G04 #@! TF.GenerationSoftware,KiCad,Pcbnew,8.0.9*
G04 #@! TF.CreationDate,2025-05-18T21:41:49+02:00*
G04 #@! TF.ProjectId,sensor-hub,73656e73-6f72-42d6-9875-622e6b696361,rev?*
G04 #@! TF.SameCoordinates,Original*
G04 #@! TF.FileFunction,Legend,Bot*
G04 #@! TF.FilePolarity,Positive*
%FSLAX46Y46*%
G04 Gerber Fmt 4.6, Leading zero omitted, Abs format (unit mm)*
G04 Created by KiCad (PCBNEW 8.0.9) date 2025-05-18 21:41:49*
%MOMM*%
%LPD*%
G01*
G04 APERTURE LIST*
G04 Aperture macros list*
%AMRoundRect*
0 Rectangle with rounded corners*
0 $1 Rounding radius*
0 $2 $3 $4 $5 $6 $7 $8 $9 X,Y pos of 4 corners*
0 Add a 4 corners polygon primitive as box body*
4,1,4,$2,$3,$4,$5,$6,$7,$8,$9,$2,$3,0*
0 Add four circle primitives for the rounded corners*
1,1,$1+$1,$2,$3*
1,1,$1+$1,$4,$5*
1,1,$1+$1,$6,$7*
1,1,$1+$1,$8,$9*
0 Add four rect primitives between the rounded corners*
20,1,$1+$1,$2,$3,$4,$5,0*
20,1,$1+$1,$4,$5,$6,$7,0*
20,1,$1+$1,$6,$7,$8,$9,0*
20,1,$1+$1,$8,$9,$2,$3,0*%
%AMFreePoly0*
4,1,19,0.550000,-0.750000,0.000000,-0.750000,0.000000,-0.744911,-0.071157,-0.744911,-0.207708,-0.704816,-0.327430,-0.627875,-0.420627,-0.520320,-0.479746,-0.390866,-0.500000,-0.250000,-0.500000,0.250000,-0.479746,0.390866,-0.420627,0.520320,-0.327430,0.627875,-0.207708,0.704816,-0.071157,0.744911,0.000000,0.744911,0.000000,0.750000,0.550000,0.750000,0.550000,-0.750000,0.550000,-0.750000,
$1*%
%AMFreePoly1*
4,1,19,0.000000,0.744911,0.071157,0.744911,0.207708,0.704816,0.327430,0.627875,0.420627,0.520320,0.479746,0.390866,0.500000,0.250000,0.500000,-0.250000,0.479746,-0.390866,0.420627,-0.520320,0.327430,-0.627875,0.207708,-0.704816,0.071157,-0.744911,0.000000,-0.744911,0.000000,-0.750000,-0.550000,-0.750000,-0.550000,0.750000,0.000000,0.750000,0.000000,0.744911,0.000000,0.744911,
$1*%
G04 Aperture macros list end*
%ADD10C,0.150000*%
%ADD11C,0.120000*%
%ADD12C,1.500000*%
%ADD13R,1.300000X1.300000*%
%ADD14C,1.300000*%
%ADD15C,3.250000*%
%ADD16RoundRect,0.248000X-0.552000X-0.552000X0.552000X-0.552000X0.552000X0.552000X-0.552000X0.552000X0*%
%ADD17C,1.600000*%
%ADD18C,1.720000*%
%ADD19C,2.200000*%
%ADD20R,1.700000X1.700000*%
%ADD21O,1.700000X1.700000*%
%ADD22R,2.000000X2.000000*%
%ADD23C,2.000000*%
%ADD24C,3.000000*%
%ADD25C,1.200000*%
%ADD26RoundRect,0.225000X-0.225000X-0.250000X0.225000X-0.250000X0.225000X0.250000X-0.225000X0.250000X0*%
%ADD27RoundRect,0.225000X0.225000X0.250000X-0.225000X0.250000X-0.225000X-0.250000X0.225000X-0.250000X0*%
%ADD28RoundRect,0.200000X-0.200000X-0.275000X0.200000X-0.275000X0.200000X0.275000X-0.200000X0.275000X0*%
%ADD29RoundRect,0.375000X0.375000X-0.625000X0.375000X0.625000X-0.375000X0.625000X-0.375000X-0.625000X0*%
%ADD30RoundRect,0.500000X1.400000X-0.500000X1.400000X0.500000X-1.400000X0.500000X-1.400000X-0.500000X0*%
%ADD31RoundRect,0.250000X-0.250000X-0.475000X0.250000X-0.475000X0.250000X0.475000X-0.250000X0.475000X0*%
%ADD32FreePoly0,270.000000*%
%ADD33R,1.500000X1.000000*%
%ADD34FreePoly1,270.000000*%
%ADD35FreePoly0,90.000000*%
%ADD36FreePoly1,90.000000*%
%ADD37RoundRect,0.250000X0.250000X0.475000X-0.250000X0.475000X-0.250000X-0.475000X0.250000X-0.475000X0*%
%ADD38RoundRect,0.200000X-0.275000X0.200000X-0.275000X-0.200000X0.275000X-0.200000X0.275000X0.200000X0*%
%ADD39C,1.000000*%
G04 APERTURE END LIST*
D10*
X120341666Y-118339580D02*
X120389285Y-118387200D01*
X120389285Y-118387200D02*
X120532142Y-118434819D01*
X120532142Y-118434819D02*
X120627380Y-118434819D01*
X120627380Y-118434819D02*
X120770237Y-118387200D01*
X120770237Y-118387200D02*
X120865475Y-118291961D01*
X120865475Y-118291961D02*
X120913094Y-118196723D01*
X120913094Y-118196723D02*
X120960713Y-118006247D01*
X120960713Y-118006247D02*
X120960713Y-117863390D01*
X120960713Y-117863390D02*
X120913094Y-117672914D01*
X120913094Y-117672914D02*
X120865475Y-117577676D01*
X120865475Y-117577676D02*
X120770237Y-117482438D01*
X120770237Y-117482438D02*
X120627380Y-117434819D01*
X120627380Y-117434819D02*
X120532142Y-117434819D01*
X120532142Y-117434819D02*
X120389285Y-117482438D01*
X120389285Y-117482438D02*
X120341666Y-117530057D01*
X119436904Y-117434819D02*
X119913094Y-117434819D01*
X119913094Y-117434819D02*
X119960713Y-117911009D01*
X119960713Y-117911009D02*
X119913094Y-117863390D01*
X119913094Y-117863390D02*
X119817856Y-117815771D01*
X119817856Y-117815771D02*
X119579761Y-117815771D01*
X119579761Y-117815771D02*
X119484523Y-117863390D01*
X119484523Y-117863390D02*
X119436904Y-117911009D01*
X119436904Y-117911009D02*
X119389285Y-118006247D01*
X119389285Y-118006247D02*
X119389285Y-118244342D01*
X119389285Y-118244342D02*
X119436904Y-118339580D01*
X119436904Y-118339580D02*
X119484523Y-118387200D01*
X119484523Y-118387200D02*
X119579761Y-118434819D01*
X119579761Y-118434819D02*
X119817856Y-118434819D01*
X119817856Y-118434819D02*
X119913094Y-118387200D01*
X119913094Y-118387200D02*
X119960713Y-118339580D01*
X92442857Y-124259580D02*
X92490476Y-124307200D01*
X92490476Y-124307200D02*
X92633333Y-124354819D01*
X92633333Y-124354819D02*
X92728571Y-124354819D01*
X92728571Y-124354819D02*
X92871428Y-124307200D01*
X92871428Y-124307200D02*
X92966666Y-124211961D01*
X92966666Y-124211961D02*
X93014285Y-124116723D01*
X93014285Y-124116723D02*
X93061904Y-123926247D01*
X93061904Y-123926247D02*
X93061904Y-123783390D01*
X93061904Y-123783390D02*
X93014285Y-123592914D01*
X93014285Y-123592914D02*
X92966666Y-123497676D01*
X92966666Y-123497676D02*
X92871428Y-123402438D01*
X92871428Y-123402438D02*
X92728571Y-123354819D01*
X92728571Y-123354819D02*
X92633333Y-123354819D01*
X92633333Y-123354819D02*
X92490476Y-123402438D01*
X92490476Y-123402438D02*
X92442857Y-123450057D01*
X92061904Y-123450057D02*
X92014285Y-123402438D01*
X92014285Y-123402438D02*
X91919047Y-123354819D01*
X91919047Y-123354819D02*
X91680952Y-123354819D01*
X91680952Y-123354819D02*
X91585714Y-123402438D01*
X91585714Y-123402438D02*
X91538095Y-123450057D01*
X91538095Y-123450057D02*
X91490476Y-123545295D01*
X91490476Y-123545295D02*
X91490476Y-123640533D01*
X91490476Y-123640533D02*
X91538095Y-123783390D01*
X91538095Y-123783390D02*
X92109523Y-124354819D01*
X92109523Y-124354819D02*
X91490476Y-124354819D01*
X91157142Y-123354819D02*
X90490476Y-123354819D01*
X90490476Y-123354819D02*
X90919047Y-124354819D01*
X129592857Y-122454819D02*
X129926190Y-121978628D01*
X130164285Y-122454819D02*
X130164285Y-121454819D01*
X130164285Y-121454819D02*
X129783333Y-121454819D01*
X129783333Y-121454819D02*
X129688095Y-121502438D01*
X129688095Y-121502438D02*
X129640476Y-121550057D01*
X129640476Y-121550057D02*
X129592857Y-121645295D01*
X129592857Y-121645295D02*
X129592857Y-121788152D01*
X129592857Y-121788152D02*
X129640476Y-121883390D01*
X129640476Y-121883390D02*
X129688095Y-121931009D01*
X129688095Y-121931009D02*
X129783333Y-121978628D01*
X129783333Y-121978628D02*
X130164285Y-121978628D01*
X128640476Y-122454819D02*
X129211904Y-122454819D01*
X128926190Y-122454819D02*
X128926190Y-121454819D01*
X128926190Y-121454819D02*
X129021428Y-121597676D01*
X129021428Y-121597676D02*
X129116666Y-121692914D01*
X129116666Y-121692914D02*
X129211904Y-121740533D01*
X128021428Y-121454819D02*
X127926190Y-121454819D01*
X127926190Y-121454819D02*
X127830952Y-121502438D01*
X127830952Y-121502438D02*
X127783333Y-121550057D01*
X127783333Y-121550057D02*
X127735714Y-121645295D01*
X127735714Y-121645295D02*
X127688095Y-121835771D01*
X127688095Y-121835771D02*
X127688095Y-122073866D01*
X127688095Y-122073866D02*
X127735714Y-122264342D01*
X127735714Y-122264342D02*
X127783333Y-122359580D01*
X127783333Y-122359580D02*
X127830952Y-122407200D01*
X127830952Y-122407200D02*
X127926190Y-122454819D01*
X127926190Y-122454819D02*
X128021428Y-122454819D01*
X128021428Y-122454819D02*
X128116666Y-122407200D01*
X128116666Y-122407200D02*
X128164285Y-122359580D01*
X128164285Y-122359580D02*
X128211904Y-122264342D01*
X128211904Y-122264342D02*
X128259523Y-122073866D01*
X128259523Y-122073866D02*
X128259523Y-121835771D01*
X128259523Y-121835771D02*
X128211904Y-121645295D01*
X128211904Y-121645295D02*
X128164285Y-121550057D01*
X128164285Y-121550057D02*
X128116666Y-121502438D01*
X128116666Y-121502438D02*
X128021428Y-121454819D01*
X123680357Y-102089580D02*
X123727976Y-102137200D01*
X123727976Y-102137200D02*
X123870833Y-102184819D01*
X123870833Y-102184819D02*
X123966071Y-102184819D01*
X123966071Y-102184819D02*
X124108928Y-102137200D01*
X124108928Y-102137200D02*
X124204166Y-102041961D01*
X124204166Y-102041961D02*
X124251785Y-101946723D01*
X124251785Y-101946723D02*
X124299404Y-101756247D01*
X124299404Y-101756247D02*
X124299404Y-101613390D01*
X124299404Y-101613390D02*
X124251785Y-101422914D01*
X124251785Y-101422914D02*
X124204166Y-101327676D01*
X124204166Y-101327676D02*
X124108928Y-101232438D01*
X124108928Y-101232438D02*
X123966071Y-101184819D01*
X123966071Y-101184819D02*
X123870833Y-101184819D01*
X123870833Y-101184819D02*
X123727976Y-101232438D01*
X123727976Y-101232438D02*
X123680357Y-101280057D01*
X123299404Y-101280057D02*
X123251785Y-101232438D01*
X123251785Y-101232438D02*
X123156547Y-101184819D01*
X123156547Y-101184819D02*
X122918452Y-101184819D01*
X122918452Y-101184819D02*
X122823214Y-101232438D01*
X122823214Y-101232438D02*
X122775595Y-101280057D01*
X122775595Y-101280057D02*
X122727976Y-101375295D01*
X122727976Y-101375295D02*
X122727976Y-101470533D01*
X122727976Y-101470533D02*
X122775595Y-101613390D01*
X122775595Y-101613390D02*
X123347023Y-102184819D01*
X123347023Y-102184819D02*
X122727976Y-102184819D01*
X121775595Y-102184819D02*
X122347023Y-102184819D01*
X122061309Y-102184819D02*
X122061309Y-101184819D01*
X122061309Y-101184819D02*
X122156547Y-101327676D01*
X122156547Y-101327676D02*
X122251785Y-101422914D01*
X122251785Y-101422914D02*
X122347023Y-101470533D01*
X56954819Y-107438095D02*
X57764342Y-107438095D01*
X57764342Y-107438095D02*
X57859580Y-107485714D01*
X57859580Y-107485714D02*
X57907200Y-107533333D01*
X57907200Y-107533333D02*
X57954819Y-107628571D01*
X57954819Y-107628571D02*
X57954819Y-107819047D01*
X57954819Y-107819047D02*
X57907200Y-107914285D01*
X57907200Y-107914285D02*
X57859580Y-107961904D01*
X57859580Y-107961904D02*
X57764342Y-108009523D01*
X57764342Y-108009523D02*
X56954819Y-108009523D01*
X56954819Y-108914285D02*
X56954819Y-108723809D01*
X56954819Y-108723809D02*
X57002438Y-108628571D01*
X57002438Y-108628571D02*
X57050057Y-108580952D01*
X57050057Y-108580952D02*
X57192914Y-108485714D01*
X57192914Y-108485714D02*
X57383390Y-108438095D01*
X57383390Y-108438095D02*
X57764342Y-108438095D01*
X57764342Y-108438095D02*
X57859580Y-108485714D01*
X57859580Y-108485714D02*
X57907200Y-108533333D01*
X57907200Y-108533333D02*
X57954819Y-108628571D01*
X57954819Y-108628571D02*
X57954819Y-108819047D01*
X57954819Y-108819047D02*
X57907200Y-108914285D01*
X57907200Y-108914285D02*
X57859580Y-108961904D01*
X57859580Y-108961904D02*
X57764342Y-109009523D01*
X57764342Y-109009523D02*
X57526247Y-109009523D01*
X57526247Y-109009523D02*
X57431009Y-108961904D01*
X57431009Y-108961904D02*
X57383390Y-108914285D01*
X57383390Y-108914285D02*
X57335771Y-108819047D01*
X57335771Y-108819047D02*
X57335771Y-108628571D01*
X57335771Y-108628571D02*
X57383390Y-108533333D01*
X57383390Y-108533333D02*
X57431009Y-108485714D01*
X57431009Y-108485714D02*
X57526247Y-108438095D01*
X53892857Y-101109580D02*
X53940476Y-101157200D01*
X53940476Y-101157200D02*
X54083333Y-101204819D01*
X54083333Y-101204819D02*
X54178571Y-101204819D01*
X54178571Y-101204819D02*
X54321428Y-101157200D01*
X54321428Y-101157200D02*
X54416666Y-101061961D01*
X54416666Y-101061961D02*
X54464285Y-100966723D01*
X54464285Y-100966723D02*
X54511904Y-100776247D01*
X54511904Y-100776247D02*
X54511904Y-100633390D01*
X54511904Y-100633390D02*
X54464285Y-100442914D01*
X54464285Y-100442914D02*
X54416666Y-100347676D01*
X54416666Y-100347676D02*
X54321428Y-100252438D01*
X54321428Y-100252438D02*
X54178571Y-100204819D01*
X54178571Y-100204819D02*
X54083333Y-100204819D01*
X54083333Y-100204819D02*
X53940476Y-100252438D01*
X53940476Y-100252438D02*
X53892857Y-100300057D01*
X53035714Y-100538152D02*
X53035714Y-101204819D01*
X53273809Y-100157200D02*
X53511904Y-100871485D01*
X53511904Y-100871485D02*
X52892857Y-100871485D01*
X52035714Y-100204819D02*
X52511904Y-100204819D01*
X52511904Y-100204819D02*
X52559523Y-100681009D01*
X52559523Y-100681009D02*
X52511904Y-100633390D01*
X52511904Y-100633390D02*
X52416666Y-100585771D01*
X52416666Y-100585771D02*
X52178571Y-100585771D01*
X52178571Y-100585771D02*
X52083333Y-100633390D01*
X52083333Y-100633390D02*
X52035714Y-100681009D01*
X52035714Y-100681009D02*
X51988095Y-100776247D01*
X51988095Y-100776247D02*
X51988095Y-101014342D01*
X51988095Y-101014342D02*
X52035714Y-101109580D01*
X52035714Y-101109580D02*
X52083333Y-101157200D01*
X52083333Y-101157200D02*
X52178571Y-101204819D01*
X52178571Y-101204819D02*
X52416666Y-101204819D01*
X52416666Y-101204819D02*
X52511904Y-101157200D01*
X52511904Y-101157200D02*
X52559523Y-101109580D01*
X61754819Y-80541666D02*
X62469104Y-80541666D01*
X62469104Y-80541666D02*
X62611961Y-80494047D01*
X62611961Y-80494047D02*
X62707200Y-80398809D01*
X62707200Y-80398809D02*
X62754819Y-80255952D01*
X62754819Y-80255952D02*
X62754819Y-80160714D01*
X62754819Y-81017857D02*
X61754819Y-81017857D01*
X61754819Y-81017857D02*
X61754819Y-81398809D01*
X61754819Y-81398809D02*
X61802438Y-81494047D01*
X61802438Y-81494047D02*
X61850057Y-81541666D01*
X61850057Y-81541666D02*
X61945295Y-81589285D01*
X61945295Y-81589285D02*
X62088152Y-81589285D01*
X62088152Y-81589285D02*
X62183390Y-81541666D01*
X62183390Y-81541666D02*
X62231009Y-81494047D01*
X62231009Y-81494047D02*
X62278628Y-81398809D01*
X62278628Y-81398809D02*
X62278628Y-81017857D01*
X61754819Y-82494047D02*
X61754819Y-82017857D01*
X61754819Y-82017857D02*
X62231009Y-81970238D01*
X62231009Y-81970238D02*
X62183390Y-82017857D01*
X62183390Y-82017857D02*
X62135771Y-82113095D01*
X62135771Y-82113095D02*
X62135771Y-82351190D01*
X62135771Y-82351190D02*
X62183390Y-82446428D01*
X62183390Y-82446428D02*
X62231009Y-82494047D01*
X62231009Y-82494047D02*
X62326247Y-82541666D01*
X62326247Y-82541666D02*
X62564342Y-82541666D01*
X62564342Y-82541666D02*
X62659580Y-82494047D01*
X62659580Y-82494047D02*
X62707200Y-82446428D01*
X62707200Y-82446428D02*
X62754819Y-82351190D01*
X62754819Y-82351190D02*
X62754819Y-82113095D01*
X62754819Y-82113095D02*
X62707200Y-82017857D01*
X62707200Y-82017857D02*
X62659580Y-81970238D01*
X120642857Y-102159580D02*
X120690476Y-102207200D01*
X120690476Y-102207200D02*
X120833333Y-102254819D01*
X120833333Y-102254819D02*
X120928571Y-102254819D01*
X120928571Y-102254819D02*
X121071428Y-102207200D01*
X121071428Y-102207200D02*
X121166666Y-102111961D01*
X121166666Y-102111961D02*
X121214285Y-102016723D01*
X121214285Y-102016723D02*
X121261904Y-101826247D01*
X121261904Y-101826247D02*
X121261904Y-101683390D01*
X121261904Y-101683390D02*
X121214285Y-101492914D01*
X121214285Y-101492914D02*
X121166666Y-101397676D01*
X121166666Y-101397676D02*
X121071428Y-101302438D01*
X121071428Y-101302438D02*
X120928571Y-101254819D01*
X120928571Y-101254819D02*
X120833333Y-101254819D01*
X120833333Y-101254819D02*
X120690476Y-101302438D01*
X120690476Y-101302438D02*
X120642857Y-101350057D01*
X120261904Y-101350057D02*
X120214285Y-101302438D01*
X120214285Y-101302438D02*
X120119047Y-101254819D01*
X120119047Y-101254819D02*
X119880952Y-101254819D01*
X119880952Y-101254819D02*
X119785714Y-101302438D01*
X119785714Y-101302438D02*
X119738095Y-101350057D01*
X119738095Y-101350057D02*
X119690476Y-101445295D01*
X119690476Y-101445295D02*
X119690476Y-101540533D01*
X119690476Y-101540533D02*
X119738095Y-101683390D01*
X119738095Y-101683390D02*
X120309523Y-102254819D01*
X120309523Y-102254819D02*
X119690476Y-102254819D01*
X119071428Y-101254819D02*
X118976190Y-101254819D01*
X118976190Y-101254819D02*
X118880952Y-101302438D01*
X118880952Y-101302438D02*
X118833333Y-101350057D01*
X118833333Y-101350057D02*
X118785714Y-101445295D01*
X118785714Y-101445295D02*
X118738095Y-101635771D01*
X118738095Y-101635771D02*
X118738095Y-101873866D01*
X118738095Y-101873866D02*
X118785714Y-102064342D01*
X118785714Y-102064342D02*
X118833333Y-102159580D01*
X118833333Y-102159580D02*
X118880952Y-102207200D01*
X118880952Y-102207200D02*
X118976190Y-102254819D01*
X118976190Y-102254819D02*
X119071428Y-102254819D01*
X119071428Y-102254819D02*
X119166666Y-102207200D01*
X119166666Y-102207200D02*
X119214285Y-102159580D01*
X119214285Y-102159580D02*
X119261904Y-102064342D01*
X119261904Y-102064342D02*
X119309523Y-101873866D01*
X119309523Y-101873866D02*
X119309523Y-101635771D01*
X119309523Y-101635771D02*
X119261904Y-101445295D01*
X119261904Y-101445295D02*
X119214285Y-101350057D01*
X119214285Y-101350057D02*
X119166666Y-101302438D01*
X119166666Y-101302438D02*
X119071428Y-101254819D01*
X76824819Y-98986666D02*
X77539104Y-98986666D01*
X77539104Y-98986666D02*
X77681961Y-98939047D01*
X77681961Y-98939047D02*
X77777200Y-98843809D01*
X77777200Y-98843809D02*
X77824819Y-98700952D01*
X77824819Y-98700952D02*
X77824819Y-98605714D01*
X77824819Y-99462857D02*
X76824819Y-99462857D01*
X76824819Y-99462857D02*
X76824819Y-99843809D01*
X76824819Y-99843809D02*
X76872438Y-99939047D01*
X76872438Y-99939047D02*
X76920057Y-99986666D01*
X76920057Y-99986666D02*
X77015295Y-100034285D01*
X77015295Y-100034285D02*
X77158152Y-100034285D01*
X77158152Y-100034285D02*
X77253390Y-99986666D01*
X77253390Y-99986666D02*
X77301009Y-99939047D01*
X77301009Y-99939047D02*
X77348628Y-99843809D01*
X77348628Y-99843809D02*
X77348628Y-99462857D01*
X77158152Y-100891428D02*
X77824819Y-100891428D01*
X76777200Y-100653333D02*
X77491485Y-100415238D01*
X77491485Y-100415238D02*
X77491485Y-101034285D01*
X53892857Y-99859580D02*
X53940476Y-99907200D01*
X53940476Y-99907200D02*
X54083333Y-99954819D01*
X54083333Y-99954819D02*
X54178571Y-99954819D01*
X54178571Y-99954819D02*
X54321428Y-99907200D01*
X54321428Y-99907200D02*
X54416666Y-99811961D01*
X54416666Y-99811961D02*
X54464285Y-99716723D01*
X54464285Y-99716723D02*
X54511904Y-99526247D01*
X54511904Y-99526247D02*
X54511904Y-99383390D01*
X54511904Y-99383390D02*
X54464285Y-99192914D01*
X54464285Y-99192914D02*
X54416666Y-99097676D01*
X54416666Y-99097676D02*
X54321428Y-99002438D01*
X54321428Y-99002438D02*
X54178571Y-98954819D01*
X54178571Y-98954819D02*
X54083333Y-98954819D01*
X54083333Y-98954819D02*
X53940476Y-99002438D01*
X53940476Y-99002438D02*
X53892857Y-99050057D01*
X53035714Y-99288152D02*
X53035714Y-99954819D01*
X53273809Y-98907200D02*
X53511904Y-99621485D01*
X53511904Y-99621485D02*
X52892857Y-99621485D01*
X52083333Y-98954819D02*
X52273809Y-98954819D01*
X52273809Y-98954819D02*
X52369047Y-99002438D01*
X52369047Y-99002438D02*
X52416666Y-99050057D01*
X52416666Y-99050057D02*
X52511904Y-99192914D01*
X52511904Y-99192914D02*
X52559523Y-99383390D01*
X52559523Y-99383390D02*
X52559523Y-99764342D01*
X52559523Y-99764342D02*
X52511904Y-99859580D01*
X52511904Y-99859580D02*
X52464285Y-99907200D01*
X52464285Y-99907200D02*
X52369047Y-99954819D01*
X52369047Y-99954819D02*
X52178571Y-99954819D01*
X52178571Y-99954819D02*
X52083333Y-99907200D01*
X52083333Y-99907200D02*
X52035714Y-99859580D01*
X52035714Y-99859580D02*
X51988095Y-99764342D01*
X51988095Y-99764342D02*
X51988095Y-99526247D01*
X51988095Y-99526247D02*
X52035714Y-99431009D01*
X52035714Y-99431009D02*
X52083333Y-99383390D01*
X52083333Y-99383390D02*
X52178571Y-99335771D01*
X52178571Y-99335771D02*
X52369047Y-99335771D01*
X52369047Y-99335771D02*
X52464285Y-99383390D01*
X52464285Y-99383390D02*
X52511904Y-99431009D01*
X52511904Y-99431009D02*
X52559523Y-99526247D01*
X50142857Y-116109580D02*
X50190476Y-116157200D01*
X50190476Y-116157200D02*
X50333333Y-116204819D01*
X50333333Y-116204819D02*
X50428571Y-116204819D01*
X50428571Y-116204819D02*
X50571428Y-116157200D01*
X50571428Y-116157200D02*
X50666666Y-116061961D01*
X50666666Y-116061961D02*
X50714285Y-115966723D01*
X50714285Y-115966723D02*
X50761904Y-115776247D01*
X50761904Y-115776247D02*
X50761904Y-115633390D01*
X50761904Y-115633390D02*
X50714285Y-115442914D01*
X50714285Y-115442914D02*
X50666666Y-115347676D01*
X50666666Y-115347676D02*
X50571428Y-115252438D01*
X50571428Y-115252438D02*
X50428571Y-115204819D01*
X50428571Y-115204819D02*
X50333333Y-115204819D01*
X50333333Y-115204819D02*
X50190476Y-115252438D01*
X50190476Y-115252438D02*
X50142857Y-115300057D01*
X49285714Y-115538152D02*
X49285714Y-116204819D01*
X49523809Y-115157200D02*
X49761904Y-115871485D01*
X49761904Y-115871485D02*
X49142857Y-115871485D01*
X48333333Y-115538152D02*
X48333333Y-116204819D01*
X48571428Y-115157200D02*
X48809523Y-115871485D01*
X48809523Y-115871485D02*
X48190476Y-115871485D01*
X92492857Y-125759580D02*
X92540476Y-125807200D01*
X92540476Y-125807200D02*
X92683333Y-125854819D01*
X92683333Y-125854819D02*
X92778571Y-125854819D01*
X92778571Y-125854819D02*
X92921428Y-125807200D01*
X92921428Y-125807200D02*
X93016666Y-125711961D01*
X93016666Y-125711961D02*
X93064285Y-125616723D01*
X93064285Y-125616723D02*
X93111904Y-125426247D01*
X93111904Y-125426247D02*
X93111904Y-125283390D01*
X93111904Y-125283390D02*
X93064285Y-125092914D01*
X93064285Y-125092914D02*
X93016666Y-124997676D01*
X93016666Y-124997676D02*
X92921428Y-124902438D01*
X92921428Y-124902438D02*
X92778571Y-124854819D01*
X92778571Y-124854819D02*
X92683333Y-124854819D01*
X92683333Y-124854819D02*
X92540476Y-124902438D01*
X92540476Y-124902438D02*
X92492857Y-124950057D01*
X92111904Y-124950057D02*
X92064285Y-124902438D01*
X92064285Y-124902438D02*
X91969047Y-124854819D01*
X91969047Y-124854819D02*
X91730952Y-124854819D01*
X91730952Y-124854819D02*
X91635714Y-124902438D01*
X91635714Y-124902438D02*
X91588095Y-124950057D01*
X91588095Y-124950057D02*
X91540476Y-125045295D01*
X91540476Y-125045295D02*
X91540476Y-125140533D01*
X91540476Y-125140533D02*
X91588095Y-125283390D01*
X91588095Y-125283390D02*
X92159523Y-125854819D01*
X92159523Y-125854819D02*
X91540476Y-125854819D01*
X90683333Y-124854819D02*
X90873809Y-124854819D01*
X90873809Y-124854819D02*
X90969047Y-124902438D01*
X90969047Y-124902438D02*
X91016666Y-124950057D01*
X91016666Y-124950057D02*
X91111904Y-125092914D01*
X91111904Y-125092914D02*
X91159523Y-125283390D01*
X91159523Y-125283390D02*
X91159523Y-125664342D01*
X91159523Y-125664342D02*
X91111904Y-125759580D01*
X91111904Y-125759580D02*
X91064285Y-125807200D01*
X91064285Y-125807200D02*
X90969047Y-125854819D01*
X90969047Y-125854819D02*
X90778571Y-125854819D01*
X90778571Y-125854819D02*
X90683333Y-125807200D01*
X90683333Y-125807200D02*
X90635714Y-125759580D01*
X90635714Y-125759580D02*
X90588095Y-125664342D01*
X90588095Y-125664342D02*
X90588095Y-125426247D01*
X90588095Y-125426247D02*
X90635714Y-125331009D01*
X90635714Y-125331009D02*
X90683333Y-125283390D01*
X90683333Y-125283390D02*
X90778571Y-125235771D01*
X90778571Y-125235771D02*
X90969047Y-125235771D01*
X90969047Y-125235771D02*
X91064285Y-125283390D01*
X91064285Y-125283390D02*
X91111904Y-125331009D01*
X91111904Y-125331009D02*
X91159523Y-125426247D01*
X127304819Y-100908333D02*
X126828628Y-100575000D01*
X127304819Y-100336905D02*
X126304819Y-100336905D01*
X126304819Y-100336905D02*
X126304819Y-100717857D01*
X126304819Y-100717857D02*
X126352438Y-100813095D01*
X126352438Y-100813095D02*
X126400057Y-100860714D01*
X126400057Y-100860714D02*
X126495295Y-100908333D01*
X126495295Y-100908333D02*
X126638152Y-100908333D01*
X126638152Y-100908333D02*
X126733390Y-100860714D01*
X126733390Y-100860714D02*
X126781009Y-100813095D01*
X126781009Y-100813095D02*
X126828628Y-100717857D01*
X126828628Y-100717857D02*
X126828628Y-100336905D01*
X127304819Y-101860714D02*
X127304819Y-101289286D01*
X127304819Y-101575000D02*
X126304819Y-101575000D01*
X126304819Y-101575000D02*
X126447676Y-101479762D01*
X126447676Y-101479762D02*
X126542914Y-101384524D01*
X126542914Y-101384524D02*
X126590533Y-101289286D01*
X88911904Y-78804819D02*
X88340476Y-78804819D01*
X88626190Y-79804819D02*
X88626190Y-78804819D01*
X88007142Y-79804819D02*
X88007142Y-78804819D01*
X88007142Y-78804819D02*
X87626190Y-78804819D01*
X87626190Y-78804819D02*
X87530952Y-78852438D01*
X87530952Y-78852438D02*
X87483333Y-78900057D01*
X87483333Y-78900057D02*
X87435714Y-78995295D01*
X87435714Y-78995295D02*
X87435714Y-79138152D01*
X87435714Y-79138152D02*
X87483333Y-79233390D01*
X87483333Y-79233390D02*
X87530952Y-79281009D01*
X87530952Y-79281009D02*
X87626190Y-79328628D01*
X87626190Y-79328628D02*
X88007142Y-79328628D01*
X87054761Y-78900057D02*
X87007142Y-78852438D01*
X87007142Y-78852438D02*
X86911904Y-78804819D01*
X86911904Y-78804819D02*
X86673809Y-78804819D01*
X86673809Y-78804819D02*
X86578571Y-78852438D01*
X86578571Y-78852438D02*
X86530952Y-78900057D01*
X86530952Y-78900057D02*
X86483333Y-78995295D01*
X86483333Y-78995295D02*
X86483333Y-79090533D01*
X86483333Y-79090533D02*
X86530952Y-79233390D01*
X86530952Y-79233390D02*
X87102380Y-79804819D01*
X87102380Y-79804819D02*
X86483333Y-79804819D01*
D11*
X120315580Y-116040000D02*
X120034420Y-116040000D01*
X120315580Y-117060000D02*
X120034420Y-117060000D01*
X88584420Y-123365000D02*
X88865580Y-123365000D01*
X88584420Y-124385000D02*
X88865580Y-124385000D01*
X126137258Y-121477500D02*
X125662742Y-121477500D01*
X126137258Y-122522500D02*
X125662742Y-122522500D01*
X123178080Y-99790000D02*
X122896920Y-99790000D01*
X123178080Y-100810000D02*
X122896920Y-100810000D01*
X49590000Y-106290000D02*
X49590000Y-110050000D01*
X50850000Y-106290000D02*
X49590000Y-106290000D01*
X55150000Y-106290000D02*
X56410000Y-106290000D01*
X56410000Y-106290000D02*
X56410000Y-110050000D01*
X56640000Y-111570000D02*
X56310000Y-111330000D01*
X56640000Y-111090000D01*
X56640000Y-111570000D01*
G36*
X56640000Y-111570000D02*
G01*
X56310000Y-111330000D01*
X56640000Y-111090000D01*
X56640000Y-111570000D01*
G37*
X56761252Y-100865000D02*
X56238748Y-100865000D01*
X56761252Y-102335000D02*
X56238748Y-102335000D01*
X59050000Y-82775000D02*
X59050000Y-79975000D01*
X59750000Y-79325000D02*
X60350000Y-79325000D01*
X60350000Y-83425000D02*
X59750000Y-83425000D01*
X61050000Y-79975000D02*
X61050000Y-82775000D01*
X61550000Y-79875000D02*
X61250000Y-80175000D01*
X61550000Y-80475000D02*
X61250000Y-80175000D01*
X61550000Y-80475000D02*
X61550000Y-79875000D01*
X59050000Y-80025000D02*
G75*
G02*
X59750000Y-79325000I699999J1D01*
G01*
X59750000Y-83425000D02*
G75*
G02*
X59050000Y-82725000I0J700000D01*
G01*
X60350000Y-79325000D02*
G75*
G02*
X61050000Y-80025000I1J-699999D01*
G01*
X61050000Y-82725000D02*
G75*
G02*
X60350000Y-83425000I-700000J0D01*
G01*
X119846920Y-99790000D02*
X120128080Y-99790000D01*
X119846920Y-100810000D02*
X120128080Y-100810000D01*
X74070000Y-100720000D02*
X74070000Y-101320000D01*
X74070000Y-100720000D02*
X74370000Y-101020000D01*
X74070000Y-101320000D02*
X74370000Y-101020000D01*
X74570000Y-101220000D02*
X74570000Y-98420000D01*
X75270000Y-97770000D02*
X75870000Y-97770000D01*
X75870000Y-101870000D02*
X75270000Y-101870000D01*
X76570000Y-98420000D02*
X76570000Y-101220000D01*
X74570000Y-98470000D02*
G75*
G02*
X75270000Y-97770000I700000J0D01*
G01*
X75270000Y-101870000D02*
G75*
G02*
X74570000Y-101170000I-1J699999D01*
G01*
X75870000Y-97770000D02*
G75*
G02*
X76570000Y-98470000I0J-700000D01*
G01*
X76570000Y-101170000D02*
G75*
G02*
X75870000Y-101870000I-699999J-1D01*
G01*
X56761252Y-98815000D02*
X56238748Y-98815000D01*
X56761252Y-100285000D02*
X56238748Y-100285000D01*
X49338748Y-113065000D02*
X49861252Y-113065000D01*
X49338748Y-114535000D02*
X49861252Y-114535000D01*
X88584420Y-124890000D02*
X88865580Y-124890000D01*
X88584420Y-125910000D02*
X88865580Y-125910000D01*
X124790000Y-101312258D02*
X124790000Y-100837742D01*
X125835000Y-101312258D02*
X125835000Y-100837742D01*
X86300000Y-81050000D02*
G75*
G02*
X84900000Y-81050000I-700000J0D01*
G01*
X84900000Y-81050000D02*
G75*
G02*
X86300000Y-81050000I700000J0D01*
G01*
%LPC*%
D12*
X102085000Y-74910000D03*
D13*
X100685000Y-73110000D03*
D14*
X99415000Y-75650000D03*
X98145000Y-73110000D03*
X96875000Y-75650000D03*
X95605000Y-73110000D03*
X94335000Y-75650000D03*
X93065000Y-73110000D03*
X91795000Y-75650000D03*
X90525000Y-73110000D03*
X89255000Y-75650000D03*
D12*
X62375000Y-131875000D03*
D13*
X60975000Y-130075000D03*
D14*
X59705000Y-132615000D03*
X58435000Y-130075000D03*
X57165000Y-132615000D03*
D15*
X125715000Y-128390000D03*
X114285000Y-128390000D03*
D16*
X124445000Y-119500000D03*
D17*
X123175000Y-122040000D03*
X121905000Y-119500000D03*
X120635000Y-122040000D03*
X119365000Y-119500000D03*
X118095000Y-122040000D03*
X116825000Y-119500000D03*
X115555000Y-122040000D03*
D18*
X125465000Y-114670000D03*
X122925000Y-114670000D03*
X117075000Y-114670000D03*
X114535000Y-114670000D03*
D19*
X127900000Y-125340000D03*
X112100000Y-125340000D03*
D20*
X80875000Y-108260000D03*
D21*
X80875000Y-110800000D03*
X80875000Y-113340000D03*
D22*
X70400000Y-84057455D03*
D23*
X70400000Y-63257455D03*
D24*
X50000000Y-74000000D03*
X136000000Y-74000000D03*
X50000000Y-125000000D03*
D20*
X73990000Y-132625000D03*
D21*
X71450000Y-132625000D03*
D25*
X95125000Y-124500000D03*
X85125000Y-124500000D03*
D12*
X120340000Y-74922500D03*
D13*
X118940000Y-73122500D03*
D14*
X117670000Y-75662500D03*
X116400000Y-73122500D03*
X115130000Y-75662500D03*
X113860000Y-73122500D03*
X112590000Y-75662500D03*
X111320000Y-73122500D03*
X110050000Y-75662500D03*
D24*
X136000000Y-125000000D03*
D20*
X62485000Y-101700000D03*
D21*
X65025000Y-101700000D03*
X67565000Y-101700000D03*
X70105000Y-101700000D03*
D26*
X119400000Y-116550000D03*
X120950000Y-116550000D03*
D27*
X89500000Y-123875000D03*
X87950000Y-123875000D03*
D28*
X125075000Y-122000000D03*
X126725000Y-122000000D03*
D26*
X122262500Y-100300000D03*
X123812500Y-100300000D03*
D29*
X55300000Y-111350000D03*
X53000000Y-111350000D03*
D30*
X53000000Y-105050000D03*
D29*
X50700000Y-111350000D03*
D31*
X55550000Y-101600000D03*
X57450000Y-101600000D03*
D32*
X60050000Y-80075000D03*
D33*
X60050000Y-81375000D03*
D34*
X60050000Y-82675000D03*
D27*
X120762500Y-100300000D03*
X119212500Y-100300000D03*
D35*
X75570000Y-101120000D03*
D33*
X75570000Y-99820000D03*
D36*
X75570000Y-98520000D03*
D31*
X55550000Y-99550000D03*
X57450000Y-99550000D03*
D37*
X50550000Y-113800000D03*
X48650000Y-113800000D03*
D27*
X89500000Y-125400000D03*
X87950000Y-125400000D03*
D38*
X125312500Y-100250000D03*
X125312500Y-101900000D03*
D39*
X85600000Y-81050000D03*
%LPD*%
M02*
