%TF.GenerationSoftware,KiCad,Pcbnew,8.0.9*%
%TF.CreationDate,2025-05-18T21:42:01+02:00*%
%TF.ProjectId,sensor-hub,73656e73-6f72-42d6-9875-622e6b696361,rev?*%
%TF.SameCoordinates,Original*%
%TF.FileFunction,Drillmap*%
%TF.FilePolarity,Positive*%
%FSLAX45Y45*%
G04 Gerber Fmt 4.5, Leading zero omitted, Abs format (unit mm)*
G04 Created by KiCad (PCBNEW 8.0.9) date 2025-05-18 21:42:01*
%MOMM*%
%LPD*%
G01*
G04 APERTURE LIST*
%ADD10C,0.050000*%
%ADD11C,0.200000*%
%ADD12C,0.100000*%
%ADD13C,0.102000*%
%ADD14C,0.150000*%
%ADD15C,0.160000*%
G04 APERTURE END LIST*
D10*
X4500000Y-5900000D02*
X14100000Y-5900000D01*
X14100000Y-14000000D01*
X4500000Y-14000000D01*
X4500000Y-5900000D01*
D11*
D12*
X4635000Y-7085000D02*
X4665000Y-7115000D01*
X4665000Y-7085000D02*
X4635000Y-7115000D01*
X4635000Y-7335000D02*
X4665000Y-7365000D01*
X4665000Y-7335000D02*
X4635000Y-7365000D01*
X4635000Y-7835000D02*
X4665000Y-7865000D01*
X4665000Y-7835000D02*
X4635000Y-7865000D01*
X4635000Y-8335000D02*
X4665000Y-8365000D01*
X4665000Y-8335000D02*
X4635000Y-8365000D01*
X4635000Y-8835000D02*
X4665000Y-8865000D01*
X4665000Y-8835000D02*
X4635000Y-8865000D01*
X4635000Y-9335000D02*
X4665000Y-9365000D01*
X4665000Y-9335000D02*
X4635000Y-9365000D01*
X4635000Y-9835000D02*
X4665000Y-9865000D01*
X4665000Y-9835000D02*
X4635000Y-9865000D01*
X4635000Y-10335000D02*
X4665000Y-10365000D01*
X4665000Y-10335000D02*
X4635000Y-10365000D01*
X4635000Y-10835000D02*
X4665000Y-10865000D01*
X4665000Y-10835000D02*
X4635000Y-10865000D01*
X4635000Y-11335000D02*
X4665000Y-11365000D01*
X4665000Y-11335000D02*
X4635000Y-11365000D01*
X4635000Y-11835000D02*
X4665000Y-11865000D01*
X4665000Y-11835000D02*
X4635000Y-11865000D01*
X4635000Y-12335000D02*
X4665000Y-12365000D01*
X4665000Y-12335000D02*
X4635000Y-12365000D01*
X4635000Y-12835000D02*
X4665000Y-12865000D01*
X4665000Y-12835000D02*
X4635000Y-12865000D01*
X4635000Y-13335000D02*
X4665000Y-13365000D01*
X4665000Y-13335000D02*
X4635000Y-13365000D01*
X4635000Y-13835000D02*
X4665000Y-13865000D01*
X4665000Y-13835000D02*
X4635000Y-13865000D01*
X4880000Y-10255000D02*
X4910000Y-10285000D01*
X4910000Y-10255000D02*
X4880000Y-10285000D01*
X5045000Y-10255000D02*
X5075000Y-10285000D01*
X5075000Y-10255000D02*
X5045000Y-10285000D01*
X5050000Y-9312500D02*
X5080000Y-9342500D01*
X5080000Y-9312500D02*
X5050000Y-9342500D01*
X5050000Y-9437500D02*
X5080000Y-9467500D01*
X5080000Y-9437500D02*
X5050000Y-9467500D01*
X5085000Y-9635000D02*
X5115000Y-9665000D01*
X5115000Y-9635000D02*
X5085000Y-9665000D01*
X5110000Y-10785000D02*
X5140000Y-10815000D01*
X5140000Y-10785000D02*
X5110000Y-10815000D01*
X5135000Y-13835000D02*
X5165000Y-13865000D01*
X5165000Y-13835000D02*
X5135000Y-13865000D01*
X5185000Y-10160000D02*
X5215000Y-10190000D01*
X5215000Y-10160000D02*
X5185000Y-10190000D01*
X5185000Y-10260000D02*
X5215000Y-10290000D01*
X5215000Y-10260000D02*
X5185000Y-10290000D01*
X5220000Y-11290000D02*
X5250000Y-11320000D01*
X5250000Y-11290000D02*
X5220000Y-11320000D01*
X5235000Y-7085000D02*
X5265000Y-7115000D01*
X5265000Y-7085000D02*
X5235000Y-7115000D01*
X5285000Y-10160000D02*
X5315000Y-10190000D01*
X5315000Y-10160000D02*
X5285000Y-10190000D01*
X5285000Y-10260000D02*
X5315000Y-10290000D01*
X5315000Y-10260000D02*
X5285000Y-10290000D01*
X5385000Y-10160000D02*
X5415000Y-10190000D01*
X5415000Y-10160000D02*
X5385000Y-10190000D01*
X5385000Y-10260000D02*
X5415000Y-10290000D01*
X5415000Y-10260000D02*
X5385000Y-10290000D01*
X5435000Y-10785000D02*
X5465000Y-10815000D01*
X5465000Y-10785000D02*
X5435000Y-10815000D01*
X5512500Y-8127500D02*
X5542500Y-8157500D01*
X5542500Y-8127500D02*
X5512500Y-8157500D01*
X5512500Y-8177500D02*
X5542500Y-8207500D01*
X5542500Y-8177500D02*
X5512500Y-8207500D01*
X5545000Y-11445000D02*
X5575000Y-11475000D01*
X5575000Y-11445000D02*
X5545000Y-11475000D01*
X5612500Y-8535000D02*
X5642500Y-8565000D01*
X5642500Y-8535000D02*
X5612500Y-8565000D01*
X5635000Y-13835000D02*
X5665000Y-13865000D01*
X5665000Y-13835000D02*
X5635000Y-13865000D01*
X5650000Y-7268000D02*
X5680000Y-7298000D01*
X5680000Y-7268000D02*
X5650000Y-7298000D01*
X5695000Y-7985000D02*
X5725000Y-8015000D01*
X5725000Y-7985000D02*
X5695000Y-8015000D01*
X5705000Y-7350000D02*
X5735000Y-7380000D01*
X5735000Y-7350000D02*
X5705000Y-7380000D01*
X5735000Y-6035000D02*
X5765000Y-6065000D01*
X5765000Y-6035000D02*
X5735000Y-6065000D01*
X5735000Y-6485000D02*
X5765000Y-6515000D01*
X5765000Y-6485000D02*
X5735000Y-6515000D01*
X5735000Y-6985000D02*
X5765000Y-7015000D01*
X5765000Y-6985000D02*
X5735000Y-7015000D01*
X5735000Y-9785000D02*
X5765000Y-9815000D01*
X5765000Y-9785000D02*
X5735000Y-9815000D01*
X5735000Y-10310000D02*
X5765000Y-10340000D01*
X5765000Y-10310000D02*
X5735000Y-10340000D01*
X5768000Y-7159000D02*
X5798000Y-7189000D01*
X5798000Y-7159000D02*
X5768000Y-7189000D01*
X5770000Y-8532500D02*
X5800000Y-8562500D01*
X5800000Y-8532500D02*
X5770000Y-8562500D01*
X5775000Y-11320000D02*
X5805000Y-11350000D01*
X5805000Y-11320000D02*
X5775000Y-11350000D01*
X5827500Y-11168000D02*
X5857500Y-11198000D01*
X5857500Y-11168000D02*
X5827500Y-11198000D01*
X5827500Y-11395000D02*
X5857500Y-11425000D01*
X5857500Y-11395000D02*
X5827500Y-11425000D01*
X5845000Y-8105000D02*
X5875000Y-8135000D01*
X5875000Y-8105000D02*
X5845000Y-8135000D01*
X5850000Y-8235000D02*
X5880000Y-8265000D01*
X5880000Y-8235000D02*
X5850000Y-8265000D01*
X5860000Y-8355000D02*
X5890000Y-8385000D01*
X5890000Y-8355000D02*
X5860000Y-8385000D01*
X5860000Y-9935000D02*
X5890000Y-9965000D01*
X5890000Y-9935000D02*
X5860000Y-9965000D01*
X5860000Y-10135000D02*
X5890000Y-10165000D01*
X5890000Y-10135000D02*
X5860000Y-10165000D01*
X5867500Y-11460000D02*
X5897500Y-11490000D01*
X5897500Y-11460000D02*
X5867500Y-11490000D01*
X5880000Y-11015000D02*
X5910000Y-11045000D01*
X5910000Y-11015000D02*
X5880000Y-11045000D01*
X5942500Y-11395000D02*
X5972500Y-11425000D01*
X5972500Y-11395000D02*
X5942500Y-11425000D01*
X5950000Y-10865000D02*
X5980000Y-10895000D01*
X5980000Y-10865000D02*
X5950000Y-10895000D01*
X5990000Y-8395000D02*
X6020000Y-8425000D01*
X6020000Y-8395000D02*
X5990000Y-8425000D01*
X6085000Y-10455000D02*
X6115000Y-10485000D01*
X6115000Y-10455000D02*
X6085000Y-10485000D01*
X6090000Y-10735000D02*
X6120000Y-10765000D01*
X6120000Y-10735000D02*
X6090000Y-10765000D01*
X6135000Y-13835000D02*
X6165000Y-13865000D01*
X6165000Y-13835000D02*
X6135000Y-13865000D01*
X6235000Y-6035000D02*
X6265000Y-6065000D01*
X6265000Y-6035000D02*
X6235000Y-6065000D01*
X6260000Y-9000000D02*
X6290000Y-9030000D01*
X6290000Y-9000000D02*
X6260000Y-9030000D01*
X6275000Y-9180000D02*
X6305000Y-9210000D01*
X6305000Y-9180000D02*
X6275000Y-9210000D01*
X6340000Y-10865000D02*
X6370000Y-10895000D01*
X6370000Y-10865000D02*
X6340000Y-10895000D01*
X6340000Y-11012500D02*
X6370000Y-11042500D01*
X6370000Y-11012500D02*
X6340000Y-11042500D01*
X6340000Y-11167500D02*
X6370000Y-11197500D01*
X6370000Y-11167500D02*
X6340000Y-11197500D01*
X6340000Y-11320000D02*
X6370000Y-11350000D01*
X6370000Y-11320000D02*
X6340000Y-11350000D01*
X6395000Y-9995000D02*
X6425000Y-10025000D01*
X6425000Y-9995000D02*
X6395000Y-10025000D01*
X6412500Y-9565000D02*
X6442500Y-9595000D01*
X6442500Y-9565000D02*
X6412500Y-9595000D01*
X6415000Y-9187500D02*
X6445000Y-9217500D01*
X6445000Y-9187500D02*
X6415000Y-9217500D01*
X6430000Y-8090000D02*
X6460000Y-8120000D01*
X6460000Y-8090000D02*
X6430000Y-8120000D01*
X6430000Y-9825000D02*
X6460000Y-9855000D01*
X6460000Y-9825000D02*
X6430000Y-9855000D01*
X6445000Y-8935000D02*
X6475000Y-8965000D01*
X6475000Y-8935000D02*
X6445000Y-8965000D01*
X6520000Y-8150000D02*
X6550000Y-8180000D01*
X6550000Y-8150000D02*
X6520000Y-8180000D01*
X6535000Y-8320000D02*
X6565000Y-8350000D01*
X6565000Y-8320000D02*
X6535000Y-8350000D01*
X6560000Y-9875000D02*
X6590000Y-9905000D01*
X6590000Y-9875000D02*
X6560000Y-9905000D01*
X6565000Y-8840000D02*
X6595000Y-8870000D01*
X6595000Y-8840000D02*
X6565000Y-8870000D01*
X6565000Y-9125000D02*
X6595000Y-9155000D01*
X6595000Y-9125000D02*
X6565000Y-9155000D01*
X6635000Y-13835000D02*
X6665000Y-13865000D01*
X6665000Y-13835000D02*
X6635000Y-13865000D01*
X6682500Y-8152500D02*
X6712500Y-8182500D01*
X6712500Y-8152500D02*
X6682500Y-8182500D01*
X6700000Y-11110000D02*
X6730000Y-11140000D01*
X6730000Y-11110000D02*
X6700000Y-11140000D01*
X6700000Y-11195000D02*
X6730000Y-11225000D01*
X6730000Y-11195000D02*
X6700000Y-11225000D01*
X6715000Y-9070000D02*
X6745000Y-9100000D01*
X6745000Y-9070000D02*
X6715000Y-9100000D01*
X6735000Y-6035000D02*
X6765000Y-6065000D01*
X6765000Y-6035000D02*
X6735000Y-6065000D01*
X6748750Y-8316250D02*
X6778750Y-8346250D01*
X6778750Y-8316250D02*
X6748750Y-8346250D01*
X6750000Y-9500000D02*
X6780000Y-9530000D01*
X6780000Y-9500000D02*
X6750000Y-9530000D01*
X6755000Y-8070000D02*
X6785000Y-8100000D01*
X6785000Y-8070000D02*
X6755000Y-8100000D01*
X6762500Y-11110000D02*
X6792500Y-11140000D01*
X6792500Y-11110000D02*
X6762500Y-11140000D01*
X6762500Y-11195000D02*
X6792500Y-11225000D01*
X6792500Y-11195000D02*
X6762500Y-11225000D01*
X6770000Y-8655000D02*
X6800000Y-8685000D01*
X6800000Y-8655000D02*
X6770000Y-8685000D01*
X6775000Y-10455000D02*
X6805000Y-10485000D01*
X6805000Y-10455000D02*
X6775000Y-10485000D01*
X6775000Y-10710000D02*
X6805000Y-10740000D01*
X6805000Y-10710000D02*
X6775000Y-10740000D01*
X6780000Y-9330000D02*
X6810000Y-9360000D01*
X6810000Y-9330000D02*
X6780000Y-9360000D01*
X6840000Y-9600000D02*
X6870000Y-9630000D01*
X6870000Y-9600000D02*
X6840000Y-9630000D01*
X6865000Y-9797500D02*
X6895000Y-9827500D01*
X6895000Y-9797500D02*
X6865000Y-9827500D01*
X6865000Y-9905000D02*
X6895000Y-9935000D01*
X6895000Y-9905000D02*
X6865000Y-9935000D01*
X6947500Y-11237500D02*
X6977500Y-11267500D01*
X6977500Y-11237500D02*
X6947500Y-11267500D01*
X6975000Y-7915000D02*
X7005000Y-7945000D01*
X7005000Y-7915000D02*
X6975000Y-7945000D01*
X6980000Y-9735000D02*
X7010000Y-9765000D01*
X7010000Y-9735000D02*
X6980000Y-9765000D01*
X7005000Y-12825000D02*
X7035000Y-12855000D01*
X7035000Y-12825000D02*
X7005000Y-12855000D01*
X7022500Y-12295000D02*
X7052500Y-12325000D01*
X7052500Y-12295000D02*
X7022500Y-12325000D01*
X7034000Y-10502000D02*
X7064000Y-10532000D01*
X7064000Y-10502000D02*
X7034000Y-10532000D01*
X7045000Y-12765000D02*
X7075000Y-12795000D01*
X7075000Y-12765000D02*
X7045000Y-12795000D01*
X7045000Y-12885000D02*
X7075000Y-12915000D01*
X7075000Y-12885000D02*
X7045000Y-12915000D01*
X7060000Y-10697500D02*
X7090000Y-10727500D01*
X7090000Y-10697500D02*
X7060000Y-10727500D01*
X7085000Y-9655000D02*
X7115000Y-9685000D01*
X7115000Y-9655000D02*
X7085000Y-9685000D01*
X7115000Y-11742500D02*
X7145000Y-11772500D01*
X7145000Y-11742500D02*
X7115000Y-11772500D01*
X7115000Y-11812500D02*
X7145000Y-11842500D01*
X7145000Y-11812500D02*
X7115000Y-11842500D01*
X7120000Y-12045000D02*
X7150000Y-12075000D01*
X7150000Y-12045000D02*
X7120000Y-12075000D01*
X7126000Y-10508000D02*
X7156000Y-10538000D01*
X7156000Y-10508000D02*
X7126000Y-10538000D01*
X7135000Y-13835000D02*
X7165000Y-13865000D01*
X7165000Y-13835000D02*
X7135000Y-13865000D01*
X7137500Y-12310000D02*
X7167500Y-12340000D01*
X7167500Y-12310000D02*
X7137500Y-12340000D01*
X7155000Y-10606000D02*
X7185000Y-10636000D01*
X7185000Y-10606000D02*
X7155000Y-10636000D01*
X7200000Y-12310000D02*
X7230000Y-12340000D01*
X7230000Y-12310000D02*
X7200000Y-12340000D01*
X7215000Y-8105000D02*
X7245000Y-8135000D01*
X7245000Y-8105000D02*
X7215000Y-8135000D01*
X7235000Y-6035000D02*
X7265000Y-6065000D01*
X7265000Y-6035000D02*
X7235000Y-6065000D01*
X7245000Y-10337500D02*
X7275000Y-10367500D01*
X7275000Y-10337500D02*
X7245000Y-10367500D01*
X7255000Y-10800000D02*
X7285000Y-10830000D01*
X7285000Y-10800000D02*
X7255000Y-10830000D01*
X7270000Y-8280000D02*
X7300000Y-8310000D01*
X7300000Y-8280000D02*
X7270000Y-8310000D01*
X7320000Y-11930000D02*
X7350000Y-11960000D01*
X7350000Y-11930000D02*
X7320000Y-11960000D01*
X7332500Y-11325000D02*
X7362500Y-11355000D01*
X7362500Y-11325000D02*
X7332500Y-11355000D01*
X7332500Y-11425000D02*
X7362500Y-11455000D01*
X7362500Y-11425000D02*
X7332500Y-11455000D01*
X7332500Y-11525000D02*
X7362500Y-11555000D01*
X7362500Y-11525000D02*
X7332500Y-11555000D01*
X7332500Y-11625000D02*
X7362500Y-11655000D01*
X7362500Y-11625000D02*
X7332500Y-11655000D01*
X7365000Y-12075000D02*
X7395000Y-12105000D01*
X7395000Y-12075000D02*
X7365000Y-12105000D01*
X7383000Y-9865000D02*
X7413000Y-9895000D01*
X7413000Y-9865000D02*
X7383000Y-9895000D01*
X7394000Y-10125000D02*
X7424000Y-10155000D01*
X7424000Y-10125000D02*
X7394000Y-10155000D01*
X7396821Y-10219179D02*
X7426821Y-10249179D01*
X7426821Y-10219179D02*
X7396821Y-10249179D01*
X7463976Y-10725000D02*
X7493976Y-10755000D01*
X7493976Y-10725000D02*
X7463976Y-10755000D01*
X7475000Y-8815000D02*
X7505000Y-8845000D01*
X7505000Y-8815000D02*
X7475000Y-8845000D01*
X7475000Y-8942500D02*
X7505000Y-8972500D01*
X7505000Y-8942500D02*
X7475000Y-8972500D01*
X7475000Y-9067500D02*
X7505000Y-9097500D01*
X7505000Y-9067500D02*
X7475000Y-9097500D01*
X7475000Y-9322500D02*
X7505000Y-9352500D01*
X7505000Y-9322500D02*
X7475000Y-9352500D01*
X7480000Y-9525000D02*
X7510000Y-9555000D01*
X7510000Y-9525000D02*
X7480000Y-9555000D01*
X7489000Y-10464000D02*
X7519000Y-10494000D01*
X7519000Y-10464000D02*
X7489000Y-10494000D01*
X7562500Y-11875000D02*
X7592500Y-11905000D01*
X7592500Y-11875000D02*
X7562500Y-11905000D01*
X7575000Y-10730000D02*
X7605000Y-10760000D01*
X7605000Y-10730000D02*
X7575000Y-10760000D01*
X7632500Y-9522500D02*
X7662500Y-9552500D01*
X7662500Y-9522500D02*
X7632500Y-9552500D01*
X7635000Y-13835000D02*
X7665000Y-13865000D01*
X7665000Y-13835000D02*
X7635000Y-13865000D01*
X7660000Y-10675000D02*
X7690000Y-10705000D01*
X7690000Y-10675000D02*
X7660000Y-10705000D01*
X7700000Y-10098000D02*
X7730000Y-10128000D01*
X7730000Y-10098000D02*
X7700000Y-10128000D01*
X7725000Y-10415000D02*
X7755000Y-10445000D01*
X7755000Y-10415000D02*
X7725000Y-10445000D01*
X7735000Y-6035000D02*
X7765000Y-6065000D01*
X7765000Y-6035000D02*
X7735000Y-6065000D01*
X7795000Y-11902500D02*
X7825000Y-11932500D01*
X7825000Y-11902500D02*
X7795000Y-11932500D01*
X7810000Y-8270000D02*
X7840000Y-8300000D01*
X7840000Y-8270000D02*
X7810000Y-8300000D01*
X7875000Y-11152500D02*
X7905000Y-11182500D01*
X7905000Y-11152500D02*
X7875000Y-11182500D01*
X7942500Y-9520000D02*
X7972500Y-9550000D01*
X7972500Y-9520000D02*
X7942500Y-9550000D01*
X7965000Y-7915000D02*
X7995000Y-7945000D01*
X7995000Y-7915000D02*
X7965000Y-7945000D01*
X7980000Y-9740000D02*
X8010000Y-9770000D01*
X8010000Y-9740000D02*
X7980000Y-9770000D01*
X8020000Y-8385000D02*
X8050000Y-8415000D01*
X8050000Y-8385000D02*
X8020000Y-8415000D01*
X8040000Y-10030000D02*
X8070000Y-10060000D01*
X8070000Y-10030000D02*
X8040000Y-10060000D01*
X8110000Y-7880000D02*
X8140000Y-7910000D01*
X8140000Y-7880000D02*
X8110000Y-7910000D01*
X8125000Y-8105000D02*
X8155000Y-8135000D01*
X8155000Y-8105000D02*
X8125000Y-8135000D01*
X8125000Y-8725000D02*
X8155000Y-8755000D01*
X8155000Y-8725000D02*
X8125000Y-8755000D01*
X8135000Y-13835000D02*
X8165000Y-13865000D01*
X8165000Y-13835000D02*
X8135000Y-13865000D01*
X8160000Y-10400000D02*
X8190000Y-10430000D01*
X8190000Y-10400000D02*
X8160000Y-10430000D01*
X8217500Y-9322500D02*
X8247500Y-9352500D01*
X8247500Y-9322500D02*
X8217500Y-9352500D01*
X8220000Y-11717500D02*
X8250000Y-11747500D01*
X8250000Y-11717500D02*
X8220000Y-11747500D01*
X8222500Y-8352500D02*
X8252500Y-8382500D01*
X8252500Y-8352500D02*
X8222500Y-8382500D01*
X8235000Y-6035000D02*
X8265000Y-6065000D01*
X8265000Y-6035000D02*
X8235000Y-6065000D01*
X8270000Y-10095000D02*
X8300000Y-10125000D01*
X8300000Y-10095000D02*
X8270000Y-10125000D01*
X8278000Y-7829000D02*
X8308000Y-7859000D01*
X8308000Y-7829000D02*
X8278000Y-7859000D01*
X8317500Y-8901250D02*
X8347500Y-8931250D01*
X8347500Y-8901250D02*
X8317500Y-8931250D01*
X8317500Y-9016250D02*
X8347500Y-9046250D01*
X8347500Y-9016250D02*
X8317500Y-9046250D01*
X8317500Y-9136250D02*
X8347500Y-9166250D01*
X8347500Y-9136250D02*
X8317500Y-9166250D01*
X8317500Y-9286250D02*
X8347500Y-9316250D01*
X8347500Y-9286250D02*
X8317500Y-9316250D01*
X8317500Y-9466250D02*
X8347500Y-9496250D01*
X8347500Y-9466250D02*
X8317500Y-9496250D01*
X8377500Y-8801250D02*
X8407500Y-8831250D01*
X8407500Y-8801250D02*
X8377500Y-8831250D01*
X8410000Y-11717500D02*
X8440000Y-11747500D01*
X8440000Y-11717500D02*
X8410000Y-11747500D01*
X8412500Y-9581250D02*
X8442500Y-9611250D01*
X8442500Y-9581250D02*
X8412500Y-9611250D01*
X8412500Y-10680000D02*
X8442500Y-10710000D01*
X8442500Y-10680000D02*
X8412500Y-10710000D01*
X8437500Y-11987500D02*
X8467500Y-12017500D01*
X8467500Y-11987500D02*
X8437500Y-12017500D01*
X8455000Y-11225000D02*
X8485000Y-11255000D01*
X8485000Y-11225000D02*
X8455000Y-11255000D01*
X8480000Y-8270000D02*
X8510000Y-8300000D01*
X8510000Y-8270000D02*
X8480000Y-8300000D01*
X8490000Y-10135000D02*
X8520000Y-10165000D01*
X8520000Y-10135000D02*
X8490000Y-10165000D01*
X8532500Y-8811250D02*
X8562500Y-8841250D01*
X8562500Y-8811250D02*
X8532500Y-8841250D01*
X8565000Y-7700000D02*
X8595000Y-7730000D01*
X8595000Y-7700000D02*
X8565000Y-7730000D01*
X8572500Y-9581250D02*
X8602500Y-9611250D01*
X8602500Y-9581250D02*
X8572500Y-9611250D01*
X8580000Y-11225000D02*
X8610000Y-11255000D01*
X8610000Y-11225000D02*
X8580000Y-11255000D01*
X8585000Y-11775000D02*
X8615000Y-11805000D01*
X8615000Y-11775000D02*
X8585000Y-11805000D01*
X8635000Y-13835000D02*
X8665000Y-13865000D01*
X8665000Y-13835000D02*
X8635000Y-13865000D01*
X8640000Y-10880000D02*
X8670000Y-10910000D01*
X8670000Y-10880000D02*
X8640000Y-10910000D01*
X8645000Y-10775000D02*
X8675000Y-10805000D01*
X8675000Y-10775000D02*
X8645000Y-10805000D01*
X8694645Y-8909105D02*
X8724645Y-8939105D01*
X8724645Y-8909105D02*
X8694645Y-8939105D01*
X8700000Y-8380000D02*
X8730000Y-8410000D01*
X8730000Y-8380000D02*
X8700000Y-8410000D01*
X8705000Y-11448000D02*
X8735000Y-11478000D01*
X8735000Y-11448000D02*
X8705000Y-11478000D01*
X8708000Y-11802000D02*
X8738000Y-11832000D01*
X8738000Y-11802000D02*
X8708000Y-11832000D01*
X8717500Y-9386250D02*
X8747500Y-9416250D01*
X8747500Y-9386250D02*
X8717500Y-9416250D01*
X8717500Y-9501250D02*
X8747500Y-9531250D01*
X8747500Y-9501250D02*
X8717500Y-9531250D01*
X8722500Y-9066250D02*
X8752500Y-9096250D01*
X8752500Y-9066250D02*
X8722500Y-9096250D01*
X8722500Y-9745000D02*
X8752500Y-9775000D01*
X8752500Y-9745000D02*
X8722500Y-9775000D01*
X8735000Y-6035000D02*
X8765000Y-6065000D01*
X8765000Y-6035000D02*
X8735000Y-6065000D01*
X8740000Y-11975000D02*
X8770000Y-12005000D01*
X8770000Y-11975000D02*
X8740000Y-12005000D01*
X8740000Y-12240000D02*
X8770000Y-12270000D01*
X8770000Y-12240000D02*
X8740000Y-12270000D01*
X8742500Y-9286250D02*
X8772500Y-9316250D01*
X8772500Y-9286250D02*
X8742500Y-9316250D01*
X8745000Y-9985000D02*
X8775000Y-10015000D01*
X8775000Y-9985000D02*
X8745000Y-10015000D01*
X8760000Y-8290000D02*
X8790000Y-8320000D01*
X8790000Y-8290000D02*
X8760000Y-8320000D01*
X8768000Y-11140000D02*
X8798000Y-11170000D01*
X8798000Y-11140000D02*
X8768000Y-11170000D01*
X8780000Y-12640000D02*
X8810000Y-12670000D01*
X8810000Y-12640000D02*
X8780000Y-12670000D01*
X8798000Y-11040000D02*
X8828000Y-11070000D01*
X8828000Y-11040000D02*
X8798000Y-11070000D01*
X8830000Y-10250000D02*
X8860000Y-10280000D01*
X8860000Y-10250000D02*
X8830000Y-10280000D01*
X8835000Y-10620000D02*
X8865000Y-10650000D01*
X8865000Y-10620000D02*
X8835000Y-10650000D01*
X8847500Y-9040000D02*
X8877500Y-9070000D01*
X8877500Y-9040000D02*
X8847500Y-9070000D01*
X8865000Y-11690000D02*
X8895000Y-11720000D01*
X8895000Y-11690000D02*
X8865000Y-11720000D01*
X8900000Y-8110000D02*
X8930000Y-8140000D01*
X8930000Y-8110000D02*
X8900000Y-8140000D01*
X8906000Y-7937000D02*
X8936000Y-7967000D01*
X8936000Y-7937000D02*
X8906000Y-7967000D01*
X8932500Y-10862500D02*
X8962500Y-10892500D01*
X8962500Y-10862500D02*
X8932500Y-10892500D01*
X8932500Y-11760000D02*
X8962500Y-11790000D01*
X8962500Y-11760000D02*
X8932500Y-11790000D01*
X8935000Y-10585000D02*
X8965000Y-10615000D01*
X8965000Y-10585000D02*
X8935000Y-10615000D01*
X8935000Y-12640000D02*
X8965000Y-12670000D01*
X8965000Y-12640000D02*
X8935000Y-12670000D01*
X8940000Y-9404427D02*
X8970000Y-9434427D01*
X8970000Y-9404427D02*
X8940000Y-9434427D01*
X8947500Y-8822500D02*
X8977500Y-8852500D01*
X8977500Y-8822500D02*
X8947500Y-8852500D01*
X8947500Y-9201250D02*
X8977500Y-9231250D01*
X8977500Y-9201250D02*
X8947500Y-9231250D01*
X8960000Y-11975000D02*
X8990000Y-12005000D01*
X8990000Y-11975000D02*
X8960000Y-12005000D01*
X8960000Y-12245000D02*
X8990000Y-12275000D01*
X8990000Y-12245000D02*
X8960000Y-12275000D01*
X8980000Y-9500000D02*
X9010000Y-9530000D01*
X9010000Y-9500000D02*
X8980000Y-9530000D01*
X9015000Y-7760000D02*
X9045000Y-7790000D01*
X9045000Y-7760000D02*
X9015000Y-7790000D01*
X9015500Y-11930000D02*
X9045500Y-11960000D01*
X9045500Y-11930000D02*
X9015500Y-11960000D01*
X9025000Y-8050000D02*
X9055000Y-8080000D01*
X9055000Y-8050000D02*
X9025000Y-8080000D01*
X9034000Y-7975000D02*
X9064000Y-8005000D01*
X9064000Y-7975000D02*
X9034000Y-8005000D01*
X9065000Y-9860000D02*
X9095000Y-9890000D01*
X9095000Y-9860000D02*
X9065000Y-9890000D01*
X9070000Y-10900000D02*
X9100000Y-10930000D01*
X9100000Y-10900000D02*
X9070000Y-10930000D01*
X9081000Y-11619000D02*
X9111000Y-11649000D01*
X9111000Y-11619000D02*
X9081000Y-11649000D01*
X9082500Y-8486250D02*
X9112500Y-8516250D01*
X9112500Y-8486250D02*
X9082500Y-8516250D01*
X9090000Y-7920000D02*
X9120000Y-7950000D01*
X9120000Y-7920000D02*
X9090000Y-7950000D01*
X9110000Y-10640000D02*
X9140000Y-10670000D01*
X9140000Y-10640000D02*
X9110000Y-10670000D01*
X9110000Y-11054000D02*
X9140000Y-11084000D01*
X9140000Y-11054000D02*
X9110000Y-11084000D01*
X9135000Y-13835000D02*
X9165000Y-13865000D01*
X9165000Y-13835000D02*
X9135000Y-13865000D01*
X9155000Y-7405000D02*
X9185000Y-7435000D01*
X9185000Y-7405000D02*
X9155000Y-7435000D01*
X9170000Y-7920246D02*
X9200000Y-7950246D01*
X9200000Y-7920246D02*
X9170000Y-7950246D01*
X9175000Y-10045000D02*
X9205000Y-10075000D01*
X9205000Y-10045000D02*
X9175000Y-10075000D01*
X9180000Y-9757500D02*
X9210000Y-9787500D01*
X9210000Y-9757500D02*
X9180000Y-9787500D01*
X9180000Y-10895000D02*
X9210000Y-10925000D01*
X9210000Y-10895000D02*
X9180000Y-10925000D01*
X9215000Y-8040000D02*
X9245000Y-8070000D01*
X9245000Y-8040000D02*
X9215000Y-8070000D01*
X9215000Y-9090000D02*
X9245000Y-9120000D01*
X9245000Y-9090000D02*
X9215000Y-9120000D01*
X9230083Y-8674680D02*
X9260083Y-8704680D01*
X9260083Y-8674680D02*
X9230083Y-8704680D01*
X9235000Y-6035000D02*
X9265000Y-6065000D01*
X9265000Y-6035000D02*
X9235000Y-6065000D01*
X9237500Y-9802500D02*
X9267500Y-9832500D01*
X9267500Y-9802500D02*
X9237500Y-9832500D01*
X9240000Y-8486250D02*
X9270000Y-8516250D01*
X9270000Y-8486250D02*
X9240000Y-8516250D01*
X9242500Y-8262500D02*
X9272500Y-8292500D01*
X9272500Y-8262500D02*
X9242500Y-8292500D01*
X9250000Y-11605000D02*
X9280000Y-11635000D01*
X9280000Y-11605000D02*
X9250000Y-11635000D01*
X9275000Y-9215000D02*
X9305000Y-9245000D01*
X9305000Y-9215000D02*
X9275000Y-9245000D01*
X9275000Y-11175000D02*
X9305000Y-11205000D01*
X9305000Y-11175000D02*
X9275000Y-11205000D01*
X9280000Y-7472500D02*
X9310000Y-7502500D01*
X9310000Y-7472500D02*
X9280000Y-7502500D01*
X9285000Y-9965000D02*
X9315000Y-9995000D01*
X9315000Y-9965000D02*
X9285000Y-9995000D01*
X9285000Y-10345000D02*
X9315000Y-10375000D01*
X9315000Y-10345000D02*
X9285000Y-10375000D01*
X9285000Y-11485000D02*
X9315000Y-11515000D01*
X9315000Y-11485000D02*
X9285000Y-11515000D01*
X9287500Y-8718950D02*
X9317500Y-8748950D01*
X9317500Y-8718950D02*
X9287500Y-8748950D01*
X9337500Y-9625000D02*
X9367500Y-9655000D01*
X9367500Y-9625000D02*
X9337500Y-9655000D01*
X9350000Y-7765000D02*
X9380000Y-7795000D01*
X9380000Y-7765000D02*
X9350000Y-7795000D01*
X9355000Y-9790000D02*
X9385000Y-9820000D01*
X9385000Y-9790000D02*
X9355000Y-9820000D01*
X9372500Y-9697500D02*
X9402500Y-9727500D01*
X9402500Y-9697500D02*
X9372500Y-9727500D01*
X9397159Y-8725381D02*
X9427159Y-8755381D01*
X9427159Y-8725381D02*
X9397159Y-8755381D01*
X9397500Y-12242500D02*
X9427500Y-12272500D01*
X9427500Y-12242500D02*
X9397500Y-12272500D01*
X9402500Y-11975000D02*
X9432500Y-12005000D01*
X9432500Y-11975000D02*
X9402500Y-12005000D01*
X9412500Y-9170000D02*
X9442500Y-9200000D01*
X9442500Y-9170000D02*
X9412500Y-9200000D01*
X9417500Y-8062500D02*
X9447500Y-8092500D01*
X9447500Y-8062500D02*
X9417500Y-8092500D01*
X9420000Y-7430000D02*
X9450000Y-7460000D01*
X9450000Y-7430000D02*
X9420000Y-7460000D01*
X9430000Y-9812500D02*
X9460000Y-9842500D01*
X9460000Y-9812500D02*
X9430000Y-9842500D01*
X9430000Y-10177500D02*
X9460000Y-10207500D01*
X9460000Y-10177500D02*
X9430000Y-10207500D01*
X9487500Y-7712500D02*
X9517500Y-7742500D01*
X9517500Y-7712500D02*
X9487500Y-7742500D01*
X9495000Y-7910000D02*
X9525000Y-7940000D01*
X9525000Y-7910000D02*
X9495000Y-7940000D01*
X9510000Y-11977500D02*
X9540000Y-12007500D01*
X9540000Y-11977500D02*
X9510000Y-12007500D01*
X9520000Y-8685000D02*
X9550000Y-8715000D01*
X9550000Y-8685000D02*
X9520000Y-8715000D01*
X9522500Y-8192500D02*
X9552500Y-8222500D01*
X9552500Y-8192500D02*
X9522500Y-8222500D01*
X9540000Y-11450000D02*
X9570000Y-11480000D01*
X9570000Y-11450000D02*
X9540000Y-11480000D01*
X9542500Y-9615000D02*
X9572500Y-9645000D01*
X9572500Y-9615000D02*
X9542500Y-9645000D01*
X9545000Y-8465000D02*
X9575000Y-8495000D01*
X9575000Y-8465000D02*
X9545000Y-8495000D01*
X9565000Y-7770000D02*
X9595000Y-7800000D01*
X9595000Y-7770000D02*
X9565000Y-7800000D01*
X9590000Y-9951250D02*
X9620000Y-9981250D01*
X9620000Y-9951250D02*
X9590000Y-9981250D01*
X9600000Y-8220000D02*
X9630000Y-8250000D01*
X9630000Y-8220000D02*
X9600000Y-8250000D01*
X9635000Y-13835000D02*
X9665000Y-13865000D01*
X9665000Y-13835000D02*
X9635000Y-13865000D01*
X9645000Y-8060000D02*
X9675000Y-8090000D01*
X9675000Y-8060000D02*
X9645000Y-8090000D01*
X9655000Y-8967000D02*
X9685000Y-8997000D01*
X9685000Y-8967000D02*
X9655000Y-8997000D01*
X9660000Y-8265000D02*
X9690000Y-8295000D01*
X9690000Y-8265000D02*
X9660000Y-8295000D01*
X9667500Y-7707500D02*
X9697500Y-7737500D01*
X9697500Y-7707500D02*
X9667500Y-7737500D01*
X9685000Y-10592500D02*
X9715000Y-10622500D01*
X9715000Y-10592500D02*
X9685000Y-10622500D01*
X9716000Y-10422000D02*
X9746000Y-10452000D01*
X9746000Y-10422000D02*
X9716000Y-10452000D01*
X9727500Y-8232500D02*
X9757500Y-8262500D01*
X9757500Y-8232500D02*
X9727500Y-8262500D01*
X9735000Y-6035000D02*
X9765000Y-6065000D01*
X9765000Y-6035000D02*
X9735000Y-6065000D01*
X9735000Y-10885000D02*
X9765000Y-10915000D01*
X9765000Y-10885000D02*
X9735000Y-10915000D01*
X9740000Y-9815000D02*
X9770000Y-9845000D01*
X9770000Y-9815000D02*
X9740000Y-9845000D01*
X9785000Y-8375000D02*
X9815000Y-8405000D01*
X9815000Y-8375000D02*
X9785000Y-8405000D01*
X9792000Y-10573000D02*
X9822000Y-10603000D01*
X9822000Y-10573000D02*
X9792000Y-10603000D01*
X9800000Y-8835000D02*
X9830000Y-8865000D01*
X9830000Y-8835000D02*
X9800000Y-8865000D01*
X9830000Y-8517500D02*
X9860000Y-8547500D01*
X9860000Y-8517500D02*
X9830000Y-8547500D01*
X9850000Y-8997500D02*
X9880000Y-9027500D01*
X9880000Y-8997500D02*
X9850000Y-9027500D01*
X9870000Y-9345000D02*
X9900000Y-9375000D01*
X9900000Y-9345000D02*
X9870000Y-9375000D01*
X9892500Y-9555000D02*
X9922500Y-9585000D01*
X9922500Y-9555000D02*
X9892500Y-9585000D01*
X9892500Y-9810000D02*
X9922500Y-9840000D01*
X9922500Y-9810000D02*
X9892500Y-9840000D01*
X9902500Y-8227500D02*
X9932500Y-8257500D01*
X9932500Y-8227500D02*
X9902500Y-8257500D01*
X9910000Y-9442500D02*
X9940000Y-9472500D01*
X9940000Y-9442500D02*
X9910000Y-9472500D01*
X9943000Y-10425000D02*
X9973000Y-10455000D01*
X9973000Y-10425000D02*
X9943000Y-10455000D01*
X9995000Y-9247500D02*
X10025000Y-9277500D01*
X10025000Y-9247500D02*
X9995000Y-9277500D01*
X9995000Y-9500000D02*
X10025000Y-9530000D01*
X10025000Y-9500000D02*
X9995000Y-9530000D01*
X10010000Y-8640000D02*
X10040000Y-8670000D01*
X10040000Y-8640000D02*
X10010000Y-8670000D01*
X10010000Y-9810000D02*
X10040000Y-9840000D01*
X10040000Y-9810000D02*
X10010000Y-9840000D01*
X10022500Y-11975000D02*
X10052500Y-12005000D01*
X10052500Y-11975000D02*
X10022500Y-12005000D01*
X10025000Y-7965000D02*
X10055000Y-7995000D01*
X10055000Y-7965000D02*
X10025000Y-7995000D01*
X10037500Y-9655000D02*
X10067500Y-9685000D01*
X10067500Y-9655000D02*
X10037500Y-9685000D01*
X10054000Y-10543000D02*
X10084000Y-10573000D01*
X10084000Y-10543000D02*
X10054000Y-10573000D01*
X10056962Y-8285601D02*
X10086962Y-8315601D01*
X10086962Y-8285601D02*
X10056962Y-8315601D01*
X10077500Y-9377500D02*
X10107500Y-9407500D01*
X10107500Y-9377500D02*
X10077500Y-9407500D01*
X10086456Y-8015093D02*
X10116456Y-8045093D01*
X10116456Y-8015093D02*
X10086456Y-8045093D01*
X10087000Y-10283000D02*
X10117000Y-10313000D01*
X10117000Y-10283000D02*
X10087000Y-10313000D01*
X10092500Y-8975000D02*
X10122500Y-9005000D01*
X10122500Y-8975000D02*
X10092500Y-9005000D01*
X10095000Y-8820000D02*
X10125000Y-8850000D01*
X10125000Y-8820000D02*
X10095000Y-8850000D01*
X10135000Y-8085000D02*
X10165000Y-8115000D01*
X10165000Y-8085000D02*
X10135000Y-8115000D01*
X10135000Y-10785000D02*
X10165000Y-10815000D01*
X10165000Y-10785000D02*
X10135000Y-10815000D01*
X10135000Y-11335000D02*
X10165000Y-11365000D01*
X10165000Y-11335000D02*
X10135000Y-11365000D01*
X10135000Y-11835000D02*
X10165000Y-11865000D01*
X10165000Y-11835000D02*
X10135000Y-11865000D01*
X10135000Y-12335000D02*
X10165000Y-12365000D01*
X10165000Y-12335000D02*
X10135000Y-12365000D01*
X10135000Y-12835000D02*
X10165000Y-12865000D01*
X10165000Y-12835000D02*
X10135000Y-12865000D01*
X10135000Y-13335000D02*
X10165000Y-13365000D01*
X10165000Y-13335000D02*
X10135000Y-13365000D01*
X10135000Y-13835000D02*
X10165000Y-13865000D01*
X10165000Y-13835000D02*
X10135000Y-13865000D01*
X10182500Y-8377500D02*
X10212500Y-8407500D01*
X10212500Y-8377500D02*
X10182500Y-8407500D01*
X10192000Y-10402000D02*
X10222000Y-10432000D01*
X10222000Y-10402000D02*
X10192000Y-10432000D01*
X10215000Y-7625000D02*
X10245000Y-7655000D01*
X10245000Y-7625000D02*
X10215000Y-7655000D01*
X10225000Y-9065000D02*
X10255000Y-9095000D01*
X10255000Y-9065000D02*
X10225000Y-9095000D01*
X10232500Y-9652500D02*
X10262500Y-9682500D01*
X10262500Y-9652500D02*
X10232500Y-9682500D01*
X10235000Y-6035000D02*
X10265000Y-6065000D01*
X10265000Y-6035000D02*
X10235000Y-6065000D01*
X10260000Y-8790000D02*
X10290000Y-8820000D01*
X10290000Y-8790000D02*
X10260000Y-8820000D01*
X10262500Y-8522500D02*
X10292500Y-8552500D01*
X10292500Y-8522500D02*
X10262500Y-8552500D01*
X10262500Y-8675000D02*
X10292500Y-8705000D01*
X10292500Y-8675000D02*
X10262500Y-8705000D01*
X10270000Y-9125000D02*
X10300000Y-9155000D01*
X10300000Y-9125000D02*
X10270000Y-9155000D01*
X10331000Y-10258000D02*
X10361000Y-10288000D01*
X10361000Y-10258000D02*
X10331000Y-10288000D01*
X10340000Y-7960000D02*
X10370000Y-7990000D01*
X10370000Y-7960000D02*
X10340000Y-7990000D01*
X10395000Y-7755000D02*
X10425000Y-7785000D01*
X10425000Y-7755000D02*
X10395000Y-7785000D01*
X10415000Y-9650000D02*
X10445000Y-9680000D01*
X10445000Y-9650000D02*
X10415000Y-9680000D01*
X10440000Y-8795000D02*
X10470000Y-8825000D01*
X10470000Y-8795000D02*
X10440000Y-8825000D01*
X10440000Y-9960000D02*
X10470000Y-9990000D01*
X10470000Y-9960000D02*
X10440000Y-9990000D01*
X10525000Y-8135000D02*
X10555000Y-8165000D01*
X10555000Y-8135000D02*
X10525000Y-8165000D01*
X10535000Y-9480000D02*
X10565000Y-9510000D01*
X10565000Y-9480000D02*
X10535000Y-9510000D01*
X10565000Y-9785000D02*
X10595000Y-9815000D01*
X10595000Y-9785000D02*
X10565000Y-9815000D01*
X10570000Y-10210000D02*
X10600000Y-10240000D01*
X10600000Y-10210000D02*
X10570000Y-10240000D01*
X10570000Y-12047500D02*
X10600000Y-12077500D01*
X10600000Y-12047500D02*
X10570000Y-12077500D01*
X10570000Y-12117500D02*
X10600000Y-12147500D01*
X10600000Y-12117500D02*
X10570000Y-12147500D01*
X10580000Y-8795000D02*
X10610000Y-8825000D01*
X10610000Y-8795000D02*
X10580000Y-8825000D01*
X10585000Y-9140000D02*
X10615000Y-9170000D01*
X10615000Y-9140000D02*
X10585000Y-9170000D01*
X10585000Y-9605000D02*
X10615000Y-9635000D01*
X10615000Y-9605000D02*
X10585000Y-9635000D01*
X10600000Y-9905000D02*
X10630000Y-9935000D01*
X10630000Y-9905000D02*
X10600000Y-9935000D01*
X10605000Y-10072500D02*
X10635000Y-10102500D01*
X10635000Y-10072500D02*
X10605000Y-10102500D01*
X10615000Y-8240000D02*
X10645000Y-8270000D01*
X10645000Y-8240000D02*
X10615000Y-8270000D01*
X10620000Y-7942500D02*
X10650000Y-7972500D01*
X10650000Y-7942500D02*
X10620000Y-7972500D01*
X10640000Y-12047500D02*
X10670000Y-12077500D01*
X10670000Y-12047500D02*
X10640000Y-12077500D01*
X10640000Y-12117500D02*
X10670000Y-12147500D01*
X10670000Y-12117500D02*
X10640000Y-12147500D01*
X10696250Y-7586250D02*
X10726250Y-7616250D01*
X10726250Y-7586250D02*
X10696250Y-7616250D01*
X10710000Y-12047500D02*
X10740000Y-12077500D01*
X10740000Y-12047500D02*
X10710000Y-12077500D01*
X10710000Y-12117500D02*
X10740000Y-12147500D01*
X10740000Y-12117500D02*
X10710000Y-12147500D01*
X10725000Y-7395000D02*
X10755000Y-7425000D01*
X10755000Y-7395000D02*
X10725000Y-7425000D01*
X10725000Y-9140000D02*
X10755000Y-9170000D01*
X10755000Y-9140000D02*
X10725000Y-9170000D01*
X10735000Y-6035000D02*
X10765000Y-6065000D01*
X10765000Y-6035000D02*
X10735000Y-6065000D01*
X10735000Y-8810000D02*
X10765000Y-8840000D01*
X10765000Y-8810000D02*
X10735000Y-8840000D01*
X10802500Y-10927500D02*
X10832500Y-10957500D01*
X10832500Y-10927500D02*
X10802500Y-10957500D01*
X10875000Y-8275000D02*
X10905000Y-8305000D01*
X10905000Y-8275000D02*
X10875000Y-8305000D01*
X10895000Y-7665000D02*
X10925000Y-7695000D01*
X10925000Y-7665000D02*
X10895000Y-7695000D01*
X10905000Y-8855000D02*
X10935000Y-8885000D01*
X10935000Y-8855000D02*
X10905000Y-8885000D01*
X10930000Y-9420000D02*
X10960000Y-9450000D01*
X10960000Y-9420000D02*
X10930000Y-9450000D01*
X10945000Y-9737500D02*
X10975000Y-9767500D01*
X10975000Y-9737500D02*
X10945000Y-9767500D01*
X10980000Y-9530000D02*
X11010000Y-9560000D01*
X11010000Y-9530000D02*
X10980000Y-9560000D01*
X11035000Y-8995000D02*
X11065000Y-9025000D01*
X11065000Y-8995000D02*
X11035000Y-9025000D01*
X11040000Y-8725000D02*
X11070000Y-8755000D01*
X11070000Y-8725000D02*
X11040000Y-8755000D01*
X11040000Y-9122500D02*
X11070000Y-9152500D01*
X11070000Y-9122500D02*
X11040000Y-9152500D01*
X11040000Y-9330000D02*
X11070000Y-9360000D01*
X11070000Y-9330000D02*
X11040000Y-9360000D01*
X11040000Y-9407500D02*
X11070000Y-9437500D01*
X11070000Y-9407500D02*
X11040000Y-9437500D01*
X11051625Y-9728375D02*
X11081625Y-9758375D01*
X11081625Y-9728375D02*
X11051625Y-9758375D01*
X11060000Y-9625000D02*
X11090000Y-9655000D01*
X11090000Y-9625000D02*
X11060000Y-9655000D01*
X11065000Y-8265000D02*
X11095000Y-8295000D01*
X11095000Y-8265000D02*
X11065000Y-8295000D01*
X11065000Y-8885000D02*
X11095000Y-8915000D01*
X11095000Y-8885000D02*
X11065000Y-8915000D01*
X11090000Y-10832500D02*
X11120000Y-10862500D01*
X11120000Y-10832500D02*
X11090000Y-10862500D01*
X11140000Y-8395000D02*
X11170000Y-8425000D01*
X11170000Y-8395000D02*
X11140000Y-8425000D01*
X11155000Y-10832500D02*
X11185000Y-10862500D01*
X11185000Y-10832500D02*
X11155000Y-10862500D01*
X11200000Y-7760000D02*
X11230000Y-7790000D01*
X11230000Y-7760000D02*
X11200000Y-7790000D01*
X11203000Y-8738000D02*
X11233000Y-8768000D01*
X11233000Y-8738000D02*
X11203000Y-8768000D01*
X11215000Y-8535000D02*
X11245000Y-8565000D01*
X11245000Y-8535000D02*
X11215000Y-8565000D01*
X11235000Y-6035000D02*
X11265000Y-6065000D01*
X11265000Y-6035000D02*
X11235000Y-6065000D01*
X11365000Y-8625000D02*
X11395000Y-8655000D01*
X11395000Y-8625000D02*
X11365000Y-8655000D01*
X11388000Y-8718000D02*
X11418000Y-8748000D01*
X11418000Y-8718000D02*
X11388000Y-8748000D01*
X11420000Y-8115000D02*
X11450000Y-8145000D01*
X11450000Y-8115000D02*
X11420000Y-8145000D01*
X11430000Y-8995000D02*
X11460000Y-9025000D01*
X11460000Y-8995000D02*
X11430000Y-9025000D01*
X11435000Y-7670000D02*
X11465000Y-7700000D01*
X11465000Y-7670000D02*
X11435000Y-7700000D01*
X11445000Y-10930000D02*
X11475000Y-10960000D01*
X11475000Y-10930000D02*
X11445000Y-10960000D01*
X11450000Y-9600000D02*
X11480000Y-9630000D01*
X11480000Y-9600000D02*
X11450000Y-9630000D01*
X11455000Y-9327500D02*
X11485000Y-9357500D01*
X11485000Y-9327500D02*
X11455000Y-9357500D01*
X11455000Y-9897500D02*
X11485000Y-9927500D01*
X11485000Y-9897500D02*
X11455000Y-9927500D01*
X11480000Y-8582500D02*
X11510000Y-8612500D01*
X11510000Y-8582500D02*
X11480000Y-8612500D01*
X11525000Y-9115000D02*
X11555000Y-9145000D01*
X11555000Y-9115000D02*
X11525000Y-9145000D01*
X11535000Y-9330000D02*
X11565000Y-9360000D01*
X11565000Y-9330000D02*
X11535000Y-9360000D01*
X11567500Y-9482500D02*
X11597500Y-9512500D01*
X11597500Y-9482500D02*
X11567500Y-9512500D01*
X11573976Y-8885000D02*
X11603976Y-8915000D01*
X11603976Y-8885000D02*
X11573976Y-8915000D01*
X11574540Y-8995460D02*
X11604540Y-9025460D01*
X11604540Y-8995460D02*
X11574540Y-9025460D01*
X11581000Y-8774000D02*
X11611000Y-8804000D01*
X11611000Y-8774000D02*
X11581000Y-8804000D01*
X11667500Y-9180000D02*
X11697500Y-9210000D01*
X11697500Y-9180000D02*
X11667500Y-9210000D01*
X11680000Y-9255000D02*
X11710000Y-9285000D01*
X11710000Y-9255000D02*
X11680000Y-9285000D01*
X11710000Y-8520000D02*
X11740000Y-8550000D01*
X11740000Y-8520000D02*
X11710000Y-8550000D01*
X11710000Y-8720000D02*
X11740000Y-8750000D01*
X11740000Y-8720000D02*
X11710000Y-8750000D01*
X11715000Y-9955000D02*
X11745000Y-9985000D01*
X11745000Y-9955000D02*
X11715000Y-9985000D01*
X11735000Y-6035000D02*
X11765000Y-6065000D01*
X11765000Y-6035000D02*
X11735000Y-6065000D01*
X11855000Y-8850000D02*
X11885000Y-8880000D01*
X11885000Y-8850000D02*
X11855000Y-8880000D01*
X11860000Y-8330000D02*
X11890000Y-8360000D01*
X11890000Y-8330000D02*
X11860000Y-8360000D01*
X11885000Y-9510000D02*
X11915000Y-9540000D01*
X11915000Y-9510000D02*
X11885000Y-9540000D01*
X11926000Y-9891000D02*
X11956000Y-9921000D01*
X11956000Y-9891000D02*
X11926000Y-9921000D01*
X12017500Y-9885000D02*
X12047500Y-9915000D01*
X12047500Y-9885000D02*
X12017500Y-9915000D01*
X12044000Y-8974000D02*
X12074000Y-9004000D01*
X12074000Y-8974000D02*
X12044000Y-9004000D01*
X12050000Y-9330000D02*
X12080000Y-9360000D01*
X12080000Y-9330000D02*
X12050000Y-9360000D01*
X12055000Y-8275000D02*
X12085000Y-8305000D01*
X12085000Y-8275000D02*
X12055000Y-8305000D01*
X12105000Y-10435000D02*
X12135000Y-10465000D01*
X12135000Y-10435000D02*
X12105000Y-10465000D01*
X12137500Y-8565000D02*
X12167500Y-8595000D01*
X12167500Y-8565000D02*
X12137500Y-8595000D01*
X12180000Y-10435000D02*
X12210000Y-10465000D01*
X12210000Y-10435000D02*
X12180000Y-10465000D01*
X12185000Y-9890000D02*
X12215000Y-9920000D01*
X12215000Y-9890000D02*
X12185000Y-9920000D01*
X12195000Y-11640000D02*
X12225000Y-11670000D01*
X12225000Y-11640000D02*
X12195000Y-11670000D01*
X12215000Y-8275000D02*
X12245000Y-8305000D01*
X12245000Y-8275000D02*
X12215000Y-8305000D01*
X12235000Y-6035000D02*
X12265000Y-6065000D01*
X12265000Y-6035000D02*
X12235000Y-6065000D01*
X12236250Y-8973750D02*
X12266250Y-9003750D01*
X12266250Y-8973750D02*
X12236250Y-9003750D01*
X12272500Y-9875000D02*
X12302500Y-9905000D01*
X12302500Y-9875000D02*
X12272500Y-9905000D01*
X12307500Y-9302500D02*
X12337500Y-9332500D01*
X12337500Y-9302500D02*
X12307500Y-9332500D01*
X12357500Y-10142500D02*
X12387500Y-10172500D01*
X12387500Y-10142500D02*
X12357500Y-10172500D01*
X12375000Y-9897500D02*
X12405000Y-9927500D01*
X12405000Y-9897500D02*
X12375000Y-9927500D01*
X12407500Y-9302500D02*
X12437500Y-9332500D01*
X12437500Y-9302500D02*
X12407500Y-9332500D01*
X12410000Y-8330000D02*
X12440000Y-8360000D01*
X12440000Y-8330000D02*
X12410000Y-8360000D01*
X12415000Y-8850000D02*
X12445000Y-8880000D01*
X12445000Y-8850000D02*
X12415000Y-8880000D01*
X12433000Y-9700000D02*
X12463000Y-9730000D01*
X12463000Y-9700000D02*
X12433000Y-9730000D01*
X12433000Y-9807000D02*
X12463000Y-9837000D01*
X12463000Y-9807000D02*
X12433000Y-9837000D01*
X12434000Y-9479000D02*
X12464000Y-9509000D01*
X12464000Y-9479000D02*
X12434000Y-9509000D01*
X12435000Y-9380000D02*
X12465000Y-9410000D01*
X12465000Y-9380000D02*
X12435000Y-9410000D01*
X12435000Y-9580000D02*
X12465000Y-9610000D01*
X12465000Y-9580000D02*
X12435000Y-9610000D01*
X12515000Y-8930000D02*
X12545000Y-8960000D01*
X12545000Y-8930000D02*
X12515000Y-8960000D01*
X12516250Y-10275000D02*
X12546250Y-10305000D01*
X12546250Y-10275000D02*
X12516250Y-10305000D01*
X12522500Y-10920000D02*
X12552500Y-10950000D01*
X12552500Y-10920000D02*
X12522500Y-10950000D01*
X12570000Y-8520000D02*
X12600000Y-8550000D01*
X12600000Y-8520000D02*
X12570000Y-8550000D01*
X12570000Y-8710000D02*
X12600000Y-8740000D01*
X12600000Y-8710000D02*
X12570000Y-8740000D01*
X12585000Y-8870000D02*
X12615000Y-8900000D01*
X12615000Y-8870000D02*
X12585000Y-8900000D01*
X12657500Y-12070000D02*
X12687500Y-12100000D01*
X12687500Y-12070000D02*
X12657500Y-12100000D01*
X12712500Y-8912500D02*
X12742500Y-8942500D01*
X12742500Y-8912500D02*
X12712500Y-8942500D01*
X12735000Y-6035000D02*
X12765000Y-6065000D01*
X12765000Y-6035000D02*
X12735000Y-6065000D01*
X12828223Y-9907126D02*
X12858223Y-9937126D01*
X12858223Y-9907126D02*
X12828223Y-9937126D01*
X12830641Y-9760025D02*
X12860641Y-9790025D01*
X12860641Y-9760025D02*
X12830641Y-9790025D01*
X12832500Y-8625000D02*
X12862500Y-8655000D01*
X12862500Y-8625000D02*
X12832500Y-8655000D01*
X12952500Y-8722500D02*
X12982500Y-8752500D01*
X12982500Y-8722500D02*
X12952500Y-8752500D01*
X12957500Y-8912500D02*
X12987500Y-8942500D01*
X12987500Y-8912500D02*
X12957500Y-8942500D01*
X12957500Y-9245000D02*
X12987500Y-9275000D01*
X12987500Y-9245000D02*
X12957500Y-9275000D01*
X13000000Y-9385000D02*
X13030000Y-9415000D01*
X13030000Y-9385000D02*
X13000000Y-9415000D01*
X13000000Y-9535000D02*
X13030000Y-9565000D01*
X13030000Y-9535000D02*
X13000000Y-9565000D01*
X13000000Y-9685000D02*
X13030000Y-9715000D01*
X13030000Y-9685000D02*
X13000000Y-9715000D01*
X13000000Y-9835000D02*
X13030000Y-9865000D01*
X13030000Y-9835000D02*
X13000000Y-9865000D01*
X13015000Y-11712500D02*
X13045000Y-11742500D01*
X13045000Y-11712500D02*
X13015000Y-11742500D01*
X13130000Y-9360000D02*
X13160000Y-9390000D01*
X13160000Y-9360000D02*
X13130000Y-9390000D01*
X13157500Y-10565000D02*
X13187500Y-10595000D01*
X13187500Y-10565000D02*
X13157500Y-10595000D01*
X13165000Y-8920000D02*
X13195000Y-8950000D01*
X13195000Y-8920000D02*
X13165000Y-8950000D01*
X13167500Y-10925000D02*
X13197500Y-10955000D01*
X13197500Y-10925000D02*
X13167500Y-10955000D01*
X13235000Y-6035000D02*
X13265000Y-6065000D01*
X13265000Y-6035000D02*
X13235000Y-6065000D01*
X13247500Y-9365000D02*
X13277500Y-9395000D01*
X13277500Y-9365000D02*
X13247500Y-9395000D01*
X13310000Y-10562500D02*
X13340000Y-10592500D01*
X13340000Y-10562500D02*
X13310000Y-10592500D01*
X13312500Y-10112500D02*
X13342500Y-10142500D01*
X13342500Y-10112500D02*
X13312500Y-10142500D01*
X13345000Y-9245000D02*
X13375000Y-9275000D01*
X13375000Y-9245000D02*
X13345000Y-9275000D01*
X13465000Y-10567500D02*
X13495000Y-10597500D01*
X13495000Y-10567500D02*
X13465000Y-10597500D01*
X13480000Y-8842500D02*
X13510000Y-8872500D01*
X13510000Y-8842500D02*
X13480000Y-8872500D01*
X13605000Y-8920000D02*
X13635000Y-8950000D01*
X13635000Y-8920000D02*
X13605000Y-8950000D01*
X13610000Y-10165000D02*
X13640000Y-10195000D01*
X13640000Y-10165000D02*
X13610000Y-10195000D01*
X13610000Y-10567500D02*
X13640000Y-10597500D01*
X13640000Y-10567500D02*
X13610000Y-10597500D01*
X13735000Y-6035000D02*
X13765000Y-6065000D01*
X13765000Y-6035000D02*
X13735000Y-6065000D01*
X13780000Y-8920000D02*
X13810000Y-8950000D01*
X13810000Y-8920000D02*
X13780000Y-8950000D01*
X13935000Y-6385000D02*
X13965000Y-6415000D01*
X13965000Y-6385000D02*
X13935000Y-6415000D01*
X13935000Y-6885000D02*
X13965000Y-6915000D01*
X13965000Y-6885000D02*
X13935000Y-6915000D01*
X13935000Y-7385000D02*
X13965000Y-7415000D01*
X13965000Y-7385000D02*
X13935000Y-7415000D01*
X13935000Y-7885000D02*
X13965000Y-7915000D01*
X13965000Y-7885000D02*
X13935000Y-7915000D01*
X13935000Y-8385000D02*
X13965000Y-8415000D01*
X13965000Y-8385000D02*
X13935000Y-8415000D01*
X13965000Y-8920000D02*
X13995000Y-8950000D01*
X13995000Y-8920000D02*
X13965000Y-8950000D01*
X5756500Y-13261500D02*
G75*
G02*
X5676500Y-13261500I-40000J0D01*
G01*
X5676500Y-13261500D02*
G75*
G02*
X5756500Y-13261500I40000J0D01*
G01*
X5883500Y-13007500D02*
G75*
G02*
X5803500Y-13007500I-40000J0D01*
G01*
X5803500Y-13007500D02*
G75*
G02*
X5883500Y-13007500I40000J0D01*
G01*
X6010500Y-13261500D02*
G75*
G02*
X5930500Y-13261500I-40000J0D01*
G01*
X5930500Y-13261500D02*
G75*
G02*
X6010500Y-13261500I40000J0D01*
G01*
X6137500Y-13007500D02*
G75*
G02*
X6057500Y-13007500I-40000J0D01*
G01*
X6057500Y-13007500D02*
G75*
G02*
X6137500Y-13007500I40000J0D01*
G01*
X8965500Y-7565000D02*
G75*
G02*
X8885500Y-7565000I-40000J0D01*
G01*
X8885500Y-7565000D02*
G75*
G02*
X8965500Y-7565000I40000J0D01*
G01*
X9092500Y-7311000D02*
G75*
G02*
X9012500Y-7311000I-40000J0D01*
G01*
X9012500Y-7311000D02*
G75*
G02*
X9092500Y-7311000I40000J0D01*
G01*
X9219500Y-7565000D02*
G75*
G02*
X9139500Y-7565000I-40000J0D01*
G01*
X9139500Y-7565000D02*
G75*
G02*
X9219500Y-7565000I40000J0D01*
G01*
X9346500Y-7311000D02*
G75*
G02*
X9266500Y-7311000I-40000J0D01*
G01*
X9266500Y-7311000D02*
G75*
G02*
X9346500Y-7311000I40000J0D01*
G01*
X9473500Y-7565000D02*
G75*
G02*
X9393500Y-7565000I-40000J0D01*
G01*
X9393500Y-7565000D02*
G75*
G02*
X9473500Y-7565000I40000J0D01*
G01*
X9600500Y-7311000D02*
G75*
G02*
X9520500Y-7311000I-40000J0D01*
G01*
X9520500Y-7311000D02*
G75*
G02*
X9600500Y-7311000I40000J0D01*
G01*
X9727500Y-7565000D02*
G75*
G02*
X9647500Y-7565000I-40000J0D01*
G01*
X9647500Y-7565000D02*
G75*
G02*
X9727500Y-7565000I40000J0D01*
G01*
X9854500Y-7311000D02*
G75*
G02*
X9774500Y-7311000I-40000J0D01*
G01*
X9774500Y-7311000D02*
G75*
G02*
X9854500Y-7311000I40000J0D01*
G01*
X9981500Y-7565000D02*
G75*
G02*
X9901500Y-7565000I-40000J0D01*
G01*
X9901500Y-7565000D02*
G75*
G02*
X9981500Y-7565000I40000J0D01*
G01*
X10108500Y-7311000D02*
G75*
G02*
X10028500Y-7311000I-40000J0D01*
G01*
X10028500Y-7311000D02*
G75*
G02*
X10108500Y-7311000I40000J0D01*
G01*
X11045000Y-7566250D02*
G75*
G02*
X10965000Y-7566250I-40000J0D01*
G01*
X10965000Y-7566250D02*
G75*
G02*
X11045000Y-7566250I40000J0D01*
G01*
X11172000Y-7312250D02*
G75*
G02*
X11092000Y-7312250I-40000J0D01*
G01*
X11092000Y-7312250D02*
G75*
G02*
X11172000Y-7312250I40000J0D01*
G01*
X11299000Y-7566250D02*
G75*
G02*
X11219000Y-7566250I-40000J0D01*
G01*
X11219000Y-7566250D02*
G75*
G02*
X11299000Y-7566250I40000J0D01*
G01*
X11426000Y-7312250D02*
G75*
G02*
X11346000Y-7312250I-40000J0D01*
G01*
X11346000Y-7312250D02*
G75*
G02*
X11426000Y-7312250I40000J0D01*
G01*
X11553000Y-7566250D02*
G75*
G02*
X11473000Y-7566250I-40000J0D01*
G01*
X11473000Y-7566250D02*
G75*
G02*
X11553000Y-7566250I40000J0D01*
G01*
X11680000Y-7312250D02*
G75*
G02*
X11600000Y-7312250I-40000J0D01*
G01*
X11600000Y-7312250D02*
G75*
G02*
X11680000Y-7312250I40000J0D01*
G01*
X11807000Y-7566250D02*
G75*
G02*
X11727000Y-7566250I-40000J0D01*
G01*
X11727000Y-7566250D02*
G75*
G02*
X11807000Y-7566250I40000J0D01*
G01*
X11934000Y-7312250D02*
G75*
G02*
X11854000Y-7312250I-40000J0D01*
G01*
X11854000Y-7312250D02*
G75*
G02*
X11934000Y-7312250I40000J0D01*
G01*
X11555500Y-12159000D02*
X11555500Y-12249000D01*
X11510500Y-12204000D02*
X11600500Y-12204000D01*
X11682500Y-11905000D02*
X11682500Y-11995000D01*
X11637500Y-11950000D02*
X11727500Y-11950000D01*
X11809500Y-12159000D02*
X11809500Y-12249000D01*
X11764500Y-12204000D02*
X11854500Y-12204000D01*
X11936500Y-11905000D02*
X11936500Y-11995000D01*
X11891500Y-11950000D02*
X11981500Y-11950000D01*
X12063500Y-12159000D02*
X12063500Y-12249000D01*
X12018500Y-12204000D02*
X12108500Y-12204000D01*
X12190500Y-11905000D02*
X12190500Y-11995000D01*
X12145500Y-11950000D02*
X12235500Y-11950000D01*
X12317500Y-12159000D02*
X12317500Y-12249000D01*
X12272500Y-12204000D02*
X12362500Y-12204000D01*
X12444500Y-11905000D02*
X12444500Y-11995000D01*
X12399500Y-11950000D02*
X12489500Y-11950000D01*
X6283856Y-10205356D02*
X6283856Y-10134644D01*
X6213144Y-10134644D01*
X6213144Y-10205356D01*
X6283856Y-10205356D01*
X6537856Y-10205356D02*
X6537856Y-10134644D01*
X6467144Y-10134644D01*
X6467144Y-10205356D01*
X6537856Y-10205356D01*
X6791856Y-10205356D02*
X6791856Y-10134644D01*
X6721144Y-10134644D01*
X6721144Y-10205356D01*
X6791856Y-10205356D01*
X7045856Y-10205356D02*
X7045856Y-10134644D01*
X6975144Y-10134644D01*
X6975144Y-10205356D01*
X7045856Y-10205356D01*
X7180356Y-13297856D02*
X7180356Y-13227144D01*
X7109644Y-13227144D01*
X7109644Y-13297856D01*
X7180356Y-13297856D01*
X7434356Y-13297856D02*
X7434356Y-13227144D01*
X7363644Y-13227144D01*
X7363644Y-13297856D01*
X7434356Y-13297856D01*
X8122856Y-10861356D02*
X8122856Y-10790644D01*
X8052144Y-10790644D01*
X8052144Y-10861356D01*
X8122856Y-10861356D01*
X8122856Y-11115356D02*
X8122856Y-11044644D01*
X8052144Y-11044644D01*
X8052144Y-11115356D01*
X8122856Y-11115356D01*
X8122856Y-11369356D02*
X8122856Y-11298644D01*
X8052144Y-11298644D01*
X8052144Y-11369356D01*
X8122856Y-11369356D01*
D13*
X11453500Y-11518000D02*
X11504500Y-11467000D01*
X11453500Y-11416000D01*
X11402500Y-11467000D01*
X11453500Y-11518000D01*
X11707500Y-11518000D02*
X11758500Y-11467000D01*
X11707500Y-11416000D01*
X11656500Y-11467000D01*
X11707500Y-11518000D01*
X12292500Y-11518000D02*
X12343500Y-11467000D01*
X12292500Y-11416000D01*
X12241500Y-11467000D01*
X12292500Y-11518000D01*
X12546500Y-11518000D02*
X12597500Y-11467000D01*
X12546500Y-11416000D01*
X12495500Y-11467000D01*
X12546500Y-11518000D01*
D14*
X6965000Y-6250745D02*
X7115000Y-6400745D01*
X7115000Y-6250745D02*
X6965000Y-6400745D01*
X7115000Y-6325745D02*
G75*
G02*
X6965000Y-6325745I-75000J0D01*
G01*
X6965000Y-6325745D02*
G75*
G02*
X7115000Y-6325745I75000J0D01*
G01*
X6965000Y-8330745D02*
X7115000Y-8480746D01*
X7115000Y-8330745D02*
X6965000Y-8480746D01*
X7115000Y-8405746D02*
G75*
G02*
X6965000Y-8405746I-75000J0D01*
G01*
X6965000Y-8405746D02*
G75*
G02*
X7115000Y-8405746I75000J0D01*
G01*
D15*
X11130000Y-12454000D02*
X11290000Y-12614000D01*
X11290000Y-12454000D02*
X11130000Y-12614000D01*
X11210000Y-12454000D02*
X11210000Y-12614000D01*
X11130000Y-12534000D02*
X11290000Y-12534000D01*
X12710000Y-12454000D02*
X12870000Y-12614000D01*
X12870000Y-12454000D02*
X12710000Y-12614000D01*
X12790000Y-12454000D02*
X12790000Y-12614000D01*
X12710000Y-12534000D02*
X12870000Y-12534000D01*
D11*
X4758277Y-14313984D02*
X4758277Y-14113984D01*
X4758277Y-14113984D02*
X4805896Y-14113984D01*
X4805896Y-14113984D02*
X4834467Y-14123508D01*
X4834467Y-14123508D02*
X4853515Y-14142555D01*
X4853515Y-14142555D02*
X4863039Y-14161603D01*
X4863039Y-14161603D02*
X4872563Y-14199698D01*
X4872563Y-14199698D02*
X4872563Y-14228269D01*
X4872563Y-14228269D02*
X4863039Y-14266365D01*
X4863039Y-14266365D02*
X4853515Y-14285412D01*
X4853515Y-14285412D02*
X4834467Y-14304460D01*
X4834467Y-14304460D02*
X4805896Y-14313984D01*
X4805896Y-14313984D02*
X4758277Y-14313984D01*
X4958277Y-14313984D02*
X4958277Y-14180650D01*
X4958277Y-14218746D02*
X4967801Y-14199698D01*
X4967801Y-14199698D02*
X4977324Y-14190174D01*
X4977324Y-14190174D02*
X4996372Y-14180650D01*
X4996372Y-14180650D02*
X5015420Y-14180650D01*
X5082086Y-14313984D02*
X5082086Y-14180650D01*
X5082086Y-14113984D02*
X5072563Y-14123508D01*
X5072563Y-14123508D02*
X5082086Y-14133031D01*
X5082086Y-14133031D02*
X5091610Y-14123508D01*
X5091610Y-14123508D02*
X5082086Y-14113984D01*
X5082086Y-14113984D02*
X5082086Y-14133031D01*
X5205896Y-14313984D02*
X5186848Y-14304460D01*
X5186848Y-14304460D02*
X5177324Y-14285412D01*
X5177324Y-14285412D02*
X5177324Y-14113984D01*
X5310658Y-14313984D02*
X5291610Y-14304460D01*
X5291610Y-14304460D02*
X5282086Y-14285412D01*
X5282086Y-14285412D02*
X5282086Y-14113984D01*
X5539229Y-14313984D02*
X5539229Y-14113984D01*
X5539229Y-14113984D02*
X5605896Y-14256841D01*
X5605896Y-14256841D02*
X5672562Y-14113984D01*
X5672562Y-14113984D02*
X5672562Y-14313984D01*
X5853515Y-14313984D02*
X5853515Y-14209222D01*
X5853515Y-14209222D02*
X5843991Y-14190174D01*
X5843991Y-14190174D02*
X5824943Y-14180650D01*
X5824943Y-14180650D02*
X5786848Y-14180650D01*
X5786848Y-14180650D02*
X5767801Y-14190174D01*
X5853515Y-14304460D02*
X5834467Y-14313984D01*
X5834467Y-14313984D02*
X5786848Y-14313984D01*
X5786848Y-14313984D02*
X5767801Y-14304460D01*
X5767801Y-14304460D02*
X5758277Y-14285412D01*
X5758277Y-14285412D02*
X5758277Y-14266365D01*
X5758277Y-14266365D02*
X5767801Y-14247317D01*
X5767801Y-14247317D02*
X5786848Y-14237793D01*
X5786848Y-14237793D02*
X5834467Y-14237793D01*
X5834467Y-14237793D02*
X5853515Y-14228269D01*
X5948753Y-14180650D02*
X5948753Y-14380650D01*
X5948753Y-14190174D02*
X5967801Y-14180650D01*
X5967801Y-14180650D02*
X6005896Y-14180650D01*
X6005896Y-14180650D02*
X6024943Y-14190174D01*
X6024943Y-14190174D02*
X6034467Y-14199698D01*
X6034467Y-14199698D02*
X6043991Y-14218746D01*
X6043991Y-14218746D02*
X6043991Y-14275888D01*
X6043991Y-14275888D02*
X6034467Y-14294936D01*
X6034467Y-14294936D02*
X6024943Y-14304460D01*
X6024943Y-14304460D02*
X6005896Y-14313984D01*
X6005896Y-14313984D02*
X5967801Y-14313984D01*
X5967801Y-14313984D02*
X5948753Y-14304460D01*
X6129705Y-14294936D02*
X6139229Y-14304460D01*
X6139229Y-14304460D02*
X6129705Y-14313984D01*
X6129705Y-14313984D02*
X6120182Y-14304460D01*
X6120182Y-14304460D02*
X6129705Y-14294936D01*
X6129705Y-14294936D02*
X6129705Y-14313984D01*
X6129705Y-14190174D02*
X6139229Y-14199698D01*
X6139229Y-14199698D02*
X6129705Y-14209222D01*
X6129705Y-14209222D02*
X6120182Y-14199698D01*
X6120182Y-14199698D02*
X6129705Y-14190174D01*
X6129705Y-14190174D02*
X6129705Y-14209222D01*
D12*
X4467500Y-14627500D02*
X4497500Y-14657500D01*
X4497500Y-14627500D02*
X4467500Y-14657500D01*
D11*
X4796372Y-14533984D02*
X4815420Y-14533984D01*
X4815420Y-14533984D02*
X4834467Y-14543508D01*
X4834467Y-14543508D02*
X4843991Y-14553031D01*
X4843991Y-14553031D02*
X4853515Y-14572079D01*
X4853515Y-14572079D02*
X4863039Y-14610174D01*
X4863039Y-14610174D02*
X4863039Y-14657793D01*
X4863039Y-14657793D02*
X4853515Y-14695888D01*
X4853515Y-14695888D02*
X4843991Y-14714936D01*
X4843991Y-14714936D02*
X4834467Y-14724460D01*
X4834467Y-14724460D02*
X4815420Y-14733984D01*
X4815420Y-14733984D02*
X4796372Y-14733984D01*
X4796372Y-14733984D02*
X4777324Y-14724460D01*
X4777324Y-14724460D02*
X4767801Y-14714936D01*
X4767801Y-14714936D02*
X4758277Y-14695888D01*
X4758277Y-14695888D02*
X4748753Y-14657793D01*
X4748753Y-14657793D02*
X4748753Y-14610174D01*
X4748753Y-14610174D02*
X4758277Y-14572079D01*
X4758277Y-14572079D02*
X4767801Y-14553031D01*
X4767801Y-14553031D02*
X4777324Y-14543508D01*
X4777324Y-14543508D02*
X4796372Y-14533984D01*
X4948753Y-14714936D02*
X4958277Y-14724460D01*
X4958277Y-14724460D02*
X4948753Y-14733984D01*
X4948753Y-14733984D02*
X4939229Y-14724460D01*
X4939229Y-14724460D02*
X4948753Y-14714936D01*
X4948753Y-14714936D02*
X4948753Y-14733984D01*
X5024944Y-14533984D02*
X5148753Y-14533984D01*
X5148753Y-14533984D02*
X5082086Y-14610174D01*
X5082086Y-14610174D02*
X5110658Y-14610174D01*
X5110658Y-14610174D02*
X5129705Y-14619698D01*
X5129705Y-14619698D02*
X5139229Y-14629222D01*
X5139229Y-14629222D02*
X5148753Y-14648269D01*
X5148753Y-14648269D02*
X5148753Y-14695888D01*
X5148753Y-14695888D02*
X5139229Y-14714936D01*
X5139229Y-14714936D02*
X5129705Y-14724460D01*
X5129705Y-14724460D02*
X5110658Y-14733984D01*
X5110658Y-14733984D02*
X5053515Y-14733984D01*
X5053515Y-14733984D02*
X5034467Y-14724460D01*
X5034467Y-14724460D02*
X5024944Y-14714936D01*
X5272563Y-14533984D02*
X5291610Y-14533984D01*
X5291610Y-14533984D02*
X5310658Y-14543508D01*
X5310658Y-14543508D02*
X5320182Y-14553031D01*
X5320182Y-14553031D02*
X5329705Y-14572079D01*
X5329705Y-14572079D02*
X5339229Y-14610174D01*
X5339229Y-14610174D02*
X5339229Y-14657793D01*
X5339229Y-14657793D02*
X5329705Y-14695888D01*
X5329705Y-14695888D02*
X5320182Y-14714936D01*
X5320182Y-14714936D02*
X5310658Y-14724460D01*
X5310658Y-14724460D02*
X5291610Y-14733984D01*
X5291610Y-14733984D02*
X5272563Y-14733984D01*
X5272563Y-14733984D02*
X5253515Y-14724460D01*
X5253515Y-14724460D02*
X5243991Y-14714936D01*
X5243991Y-14714936D02*
X5234467Y-14695888D01*
X5234467Y-14695888D02*
X5224944Y-14657793D01*
X5224944Y-14657793D02*
X5224944Y-14610174D01*
X5224944Y-14610174D02*
X5234467Y-14572079D01*
X5234467Y-14572079D02*
X5243991Y-14553031D01*
X5243991Y-14553031D02*
X5253515Y-14543508D01*
X5253515Y-14543508D02*
X5272563Y-14533984D01*
X5463039Y-14533984D02*
X5482086Y-14533984D01*
X5482086Y-14533984D02*
X5501134Y-14543508D01*
X5501134Y-14543508D02*
X5510658Y-14553031D01*
X5510658Y-14553031D02*
X5520182Y-14572079D01*
X5520182Y-14572079D02*
X5529705Y-14610174D01*
X5529705Y-14610174D02*
X5529705Y-14657793D01*
X5529705Y-14657793D02*
X5520182Y-14695888D01*
X5520182Y-14695888D02*
X5510658Y-14714936D01*
X5510658Y-14714936D02*
X5501134Y-14724460D01*
X5501134Y-14724460D02*
X5482086Y-14733984D01*
X5482086Y-14733984D02*
X5463039Y-14733984D01*
X5463039Y-14733984D02*
X5443991Y-14724460D01*
X5443991Y-14724460D02*
X5434467Y-14714936D01*
X5434467Y-14714936D02*
X5424944Y-14695888D01*
X5424944Y-14695888D02*
X5415420Y-14657793D01*
X5415420Y-14657793D02*
X5415420Y-14610174D01*
X5415420Y-14610174D02*
X5424944Y-14572079D01*
X5424944Y-14572079D02*
X5434467Y-14553031D01*
X5434467Y-14553031D02*
X5443991Y-14543508D01*
X5443991Y-14543508D02*
X5463039Y-14533984D01*
X5615420Y-14733984D02*
X5615420Y-14600650D01*
X5615420Y-14619698D02*
X5624943Y-14610174D01*
X5624943Y-14610174D02*
X5643991Y-14600650D01*
X5643991Y-14600650D02*
X5672563Y-14600650D01*
X5672563Y-14600650D02*
X5691610Y-14610174D01*
X5691610Y-14610174D02*
X5701134Y-14629222D01*
X5701134Y-14629222D02*
X5701134Y-14733984D01*
X5701134Y-14629222D02*
X5710658Y-14610174D01*
X5710658Y-14610174D02*
X5729705Y-14600650D01*
X5729705Y-14600650D02*
X5758277Y-14600650D01*
X5758277Y-14600650D02*
X5777324Y-14610174D01*
X5777324Y-14610174D02*
X5786848Y-14629222D01*
X5786848Y-14629222D02*
X5786848Y-14733984D01*
X5882086Y-14733984D02*
X5882086Y-14600650D01*
X5882086Y-14619698D02*
X5891610Y-14610174D01*
X5891610Y-14610174D02*
X5910658Y-14600650D01*
X5910658Y-14600650D02*
X5939229Y-14600650D01*
X5939229Y-14600650D02*
X5958277Y-14610174D01*
X5958277Y-14610174D02*
X5967801Y-14629222D01*
X5967801Y-14629222D02*
X5967801Y-14733984D01*
X5967801Y-14629222D02*
X5977324Y-14610174D01*
X5977324Y-14610174D02*
X5996372Y-14600650D01*
X5996372Y-14600650D02*
X6024943Y-14600650D01*
X6024943Y-14600650D02*
X6043991Y-14610174D01*
X6043991Y-14610174D02*
X6053515Y-14629222D01*
X6053515Y-14629222D02*
X6053515Y-14733984D01*
X6443991Y-14524460D02*
X6272563Y-14781603D01*
X6701134Y-14533984D02*
X6720182Y-14533984D01*
X6720182Y-14533984D02*
X6739229Y-14543508D01*
X6739229Y-14543508D02*
X6748753Y-14553031D01*
X6748753Y-14553031D02*
X6758277Y-14572079D01*
X6758277Y-14572079D02*
X6767801Y-14610174D01*
X6767801Y-14610174D02*
X6767801Y-14657793D01*
X6767801Y-14657793D02*
X6758277Y-14695888D01*
X6758277Y-14695888D02*
X6748753Y-14714936D01*
X6748753Y-14714936D02*
X6739229Y-14724460D01*
X6739229Y-14724460D02*
X6720182Y-14733984D01*
X6720182Y-14733984D02*
X6701134Y-14733984D01*
X6701134Y-14733984D02*
X6682086Y-14724460D01*
X6682086Y-14724460D02*
X6672563Y-14714936D01*
X6672563Y-14714936D02*
X6663039Y-14695888D01*
X6663039Y-14695888D02*
X6653515Y-14657793D01*
X6653515Y-14657793D02*
X6653515Y-14610174D01*
X6653515Y-14610174D02*
X6663039Y-14572079D01*
X6663039Y-14572079D02*
X6672563Y-14553031D01*
X6672563Y-14553031D02*
X6682086Y-14543508D01*
X6682086Y-14543508D02*
X6701134Y-14533984D01*
X6853515Y-14714936D02*
X6863039Y-14724460D01*
X6863039Y-14724460D02*
X6853515Y-14733984D01*
X6853515Y-14733984D02*
X6843991Y-14724460D01*
X6843991Y-14724460D02*
X6853515Y-14714936D01*
X6853515Y-14714936D02*
X6853515Y-14733984D01*
X6986848Y-14533984D02*
X7005896Y-14533984D01*
X7005896Y-14533984D02*
X7024944Y-14543508D01*
X7024944Y-14543508D02*
X7034467Y-14553031D01*
X7034467Y-14553031D02*
X7043991Y-14572079D01*
X7043991Y-14572079D02*
X7053515Y-14610174D01*
X7053515Y-14610174D02*
X7053515Y-14657793D01*
X7053515Y-14657793D02*
X7043991Y-14695888D01*
X7043991Y-14695888D02*
X7034467Y-14714936D01*
X7034467Y-14714936D02*
X7024944Y-14724460D01*
X7024944Y-14724460D02*
X7005896Y-14733984D01*
X7005896Y-14733984D02*
X6986848Y-14733984D01*
X6986848Y-14733984D02*
X6967801Y-14724460D01*
X6967801Y-14724460D02*
X6958277Y-14714936D01*
X6958277Y-14714936D02*
X6948753Y-14695888D01*
X6948753Y-14695888D02*
X6939229Y-14657793D01*
X6939229Y-14657793D02*
X6939229Y-14610174D01*
X6939229Y-14610174D02*
X6948753Y-14572079D01*
X6948753Y-14572079D02*
X6958277Y-14553031D01*
X6958277Y-14553031D02*
X6967801Y-14543508D01*
X6967801Y-14543508D02*
X6986848Y-14533984D01*
X7243991Y-14733984D02*
X7129706Y-14733984D01*
X7186848Y-14733984D02*
X7186848Y-14533984D01*
X7186848Y-14533984D02*
X7167801Y-14562555D01*
X7167801Y-14562555D02*
X7148753Y-14581603D01*
X7148753Y-14581603D02*
X7129706Y-14591127D01*
X7434467Y-14733984D02*
X7320182Y-14733984D01*
X7377325Y-14733984D02*
X7377325Y-14533984D01*
X7377325Y-14533984D02*
X7358277Y-14562555D01*
X7358277Y-14562555D02*
X7339229Y-14581603D01*
X7339229Y-14581603D02*
X7320182Y-14591127D01*
X7548753Y-14619698D02*
X7529706Y-14610174D01*
X7529706Y-14610174D02*
X7520182Y-14600650D01*
X7520182Y-14600650D02*
X7510658Y-14581603D01*
X7510658Y-14581603D02*
X7510658Y-14572079D01*
X7510658Y-14572079D02*
X7520182Y-14553031D01*
X7520182Y-14553031D02*
X7529706Y-14543508D01*
X7529706Y-14543508D02*
X7548753Y-14533984D01*
X7548753Y-14533984D02*
X7586848Y-14533984D01*
X7586848Y-14533984D02*
X7605896Y-14543508D01*
X7605896Y-14543508D02*
X7615420Y-14553031D01*
X7615420Y-14553031D02*
X7624944Y-14572079D01*
X7624944Y-14572079D02*
X7624944Y-14581603D01*
X7624944Y-14581603D02*
X7615420Y-14600650D01*
X7615420Y-14600650D02*
X7605896Y-14610174D01*
X7605896Y-14610174D02*
X7586848Y-14619698D01*
X7586848Y-14619698D02*
X7548753Y-14619698D01*
X7548753Y-14619698D02*
X7529706Y-14629222D01*
X7529706Y-14629222D02*
X7520182Y-14638746D01*
X7520182Y-14638746D02*
X7510658Y-14657793D01*
X7510658Y-14657793D02*
X7510658Y-14695888D01*
X7510658Y-14695888D02*
X7520182Y-14714936D01*
X7520182Y-14714936D02*
X7529706Y-14724460D01*
X7529706Y-14724460D02*
X7548753Y-14733984D01*
X7548753Y-14733984D02*
X7586848Y-14733984D01*
X7586848Y-14733984D02*
X7605896Y-14724460D01*
X7605896Y-14724460D02*
X7615420Y-14714936D01*
X7615420Y-14714936D02*
X7624944Y-14695888D01*
X7624944Y-14695888D02*
X7624944Y-14657793D01*
X7624944Y-14657793D02*
X7615420Y-14638746D01*
X7615420Y-14638746D02*
X7605896Y-14629222D01*
X7605896Y-14629222D02*
X7586848Y-14619698D01*
X7701134Y-14533984D02*
X7701134Y-14572079D01*
X7777325Y-14533984D02*
X7777325Y-14572079D01*
X8072563Y-14810174D02*
X8063039Y-14800650D01*
X8063039Y-14800650D02*
X8043991Y-14772079D01*
X8043991Y-14772079D02*
X8034468Y-14753031D01*
X8034468Y-14753031D02*
X8024944Y-14724460D01*
X8024944Y-14724460D02*
X8015420Y-14676841D01*
X8015420Y-14676841D02*
X8015420Y-14638746D01*
X8015420Y-14638746D02*
X8024944Y-14591127D01*
X8024944Y-14591127D02*
X8034468Y-14562555D01*
X8034468Y-14562555D02*
X8043991Y-14543508D01*
X8043991Y-14543508D02*
X8063039Y-14514936D01*
X8063039Y-14514936D02*
X8072563Y-14505412D01*
X8234468Y-14600650D02*
X8234468Y-14733984D01*
X8186848Y-14524460D02*
X8139229Y-14667317D01*
X8139229Y-14667317D02*
X8263039Y-14667317D01*
X8320182Y-14533984D02*
X8453515Y-14533984D01*
X8453515Y-14533984D02*
X8367801Y-14733984D01*
X8567801Y-14533984D02*
X8586849Y-14533984D01*
X8586849Y-14533984D02*
X8605896Y-14543508D01*
X8605896Y-14543508D02*
X8615420Y-14553031D01*
X8615420Y-14553031D02*
X8624944Y-14572079D01*
X8624944Y-14572079D02*
X8634468Y-14610174D01*
X8634468Y-14610174D02*
X8634468Y-14657793D01*
X8634468Y-14657793D02*
X8624944Y-14695888D01*
X8624944Y-14695888D02*
X8615420Y-14714936D01*
X8615420Y-14714936D02*
X8605896Y-14724460D01*
X8605896Y-14724460D02*
X8586849Y-14733984D01*
X8586849Y-14733984D02*
X8567801Y-14733984D01*
X8567801Y-14733984D02*
X8548753Y-14724460D01*
X8548753Y-14724460D02*
X8539230Y-14714936D01*
X8539230Y-14714936D02*
X8529706Y-14695888D01*
X8529706Y-14695888D02*
X8520182Y-14657793D01*
X8520182Y-14657793D02*
X8520182Y-14610174D01*
X8520182Y-14610174D02*
X8529706Y-14572079D01*
X8529706Y-14572079D02*
X8539230Y-14553031D01*
X8539230Y-14553031D02*
X8548753Y-14543508D01*
X8548753Y-14543508D02*
X8567801Y-14533984D01*
X8872563Y-14733984D02*
X8872563Y-14533984D01*
X8958277Y-14733984D02*
X8958277Y-14629222D01*
X8958277Y-14629222D02*
X8948753Y-14610174D01*
X8948753Y-14610174D02*
X8929706Y-14600650D01*
X8929706Y-14600650D02*
X8901134Y-14600650D01*
X8901134Y-14600650D02*
X8882087Y-14610174D01*
X8882087Y-14610174D02*
X8872563Y-14619698D01*
X9082087Y-14733984D02*
X9063039Y-14724460D01*
X9063039Y-14724460D02*
X9053515Y-14714936D01*
X9053515Y-14714936D02*
X9043992Y-14695888D01*
X9043992Y-14695888D02*
X9043992Y-14638746D01*
X9043992Y-14638746D02*
X9053515Y-14619698D01*
X9053515Y-14619698D02*
X9063039Y-14610174D01*
X9063039Y-14610174D02*
X9082087Y-14600650D01*
X9082087Y-14600650D02*
X9110658Y-14600650D01*
X9110658Y-14600650D02*
X9129706Y-14610174D01*
X9129706Y-14610174D02*
X9139230Y-14619698D01*
X9139230Y-14619698D02*
X9148753Y-14638746D01*
X9148753Y-14638746D02*
X9148753Y-14695888D01*
X9148753Y-14695888D02*
X9139230Y-14714936D01*
X9139230Y-14714936D02*
X9129706Y-14724460D01*
X9129706Y-14724460D02*
X9110658Y-14733984D01*
X9110658Y-14733984D02*
X9082087Y-14733984D01*
X9263039Y-14733984D02*
X9243992Y-14724460D01*
X9243992Y-14724460D02*
X9234468Y-14705412D01*
X9234468Y-14705412D02*
X9234468Y-14533984D01*
X9415420Y-14724460D02*
X9396373Y-14733984D01*
X9396373Y-14733984D02*
X9358277Y-14733984D01*
X9358277Y-14733984D02*
X9339230Y-14724460D01*
X9339230Y-14724460D02*
X9329706Y-14705412D01*
X9329706Y-14705412D02*
X9329706Y-14629222D01*
X9329706Y-14629222D02*
X9339230Y-14610174D01*
X9339230Y-14610174D02*
X9358277Y-14600650D01*
X9358277Y-14600650D02*
X9396373Y-14600650D01*
X9396373Y-14600650D02*
X9415420Y-14610174D01*
X9415420Y-14610174D02*
X9424944Y-14629222D01*
X9424944Y-14629222D02*
X9424944Y-14648269D01*
X9424944Y-14648269D02*
X9329706Y-14667317D01*
X9501134Y-14724460D02*
X9520182Y-14733984D01*
X9520182Y-14733984D02*
X9558277Y-14733984D01*
X9558277Y-14733984D02*
X9577325Y-14724460D01*
X9577325Y-14724460D02*
X9586849Y-14705412D01*
X9586849Y-14705412D02*
X9586849Y-14695888D01*
X9586849Y-14695888D02*
X9577325Y-14676841D01*
X9577325Y-14676841D02*
X9558277Y-14667317D01*
X9558277Y-14667317D02*
X9529706Y-14667317D01*
X9529706Y-14667317D02*
X9510658Y-14657793D01*
X9510658Y-14657793D02*
X9501134Y-14638746D01*
X9501134Y-14638746D02*
X9501134Y-14629222D01*
X9501134Y-14629222D02*
X9510658Y-14610174D01*
X9510658Y-14610174D02*
X9529706Y-14600650D01*
X9529706Y-14600650D02*
X9558277Y-14600650D01*
X9558277Y-14600650D02*
X9577325Y-14610174D01*
X9653515Y-14810174D02*
X9663039Y-14800650D01*
X9663039Y-14800650D02*
X9682087Y-14772079D01*
X9682087Y-14772079D02*
X9691611Y-14753031D01*
X9691611Y-14753031D02*
X9701134Y-14724460D01*
X9701134Y-14724460D02*
X9710658Y-14676841D01*
X9710658Y-14676841D02*
X9710658Y-14638746D01*
X9710658Y-14638746D02*
X9701134Y-14591127D01*
X9701134Y-14591127D02*
X9691611Y-14562555D01*
X9691611Y-14562555D02*
X9682087Y-14543508D01*
X9682087Y-14543508D02*
X9663039Y-14514936D01*
X9663039Y-14514936D02*
X9653515Y-14505412D01*
D12*
X4497500Y-14906500D02*
G75*
G02*
X4417500Y-14906500I-40000J0D01*
G01*
X4417500Y-14906500D02*
G75*
G02*
X4497500Y-14906500I40000J0D01*
G01*
D11*
X4796372Y-14797984D02*
X4815420Y-14797984D01*
X4815420Y-14797984D02*
X4834467Y-14807508D01*
X4834467Y-14807508D02*
X4843991Y-14817031D01*
X4843991Y-14817031D02*
X4853515Y-14836079D01*
X4853515Y-14836079D02*
X4863039Y-14874174D01*
X4863039Y-14874174D02*
X4863039Y-14921793D01*
X4863039Y-14921793D02*
X4853515Y-14959888D01*
X4853515Y-14959888D02*
X4843991Y-14978936D01*
X4843991Y-14978936D02*
X4834467Y-14988460D01*
X4834467Y-14988460D02*
X4815420Y-14997984D01*
X4815420Y-14997984D02*
X4796372Y-14997984D01*
X4796372Y-14997984D02*
X4777324Y-14988460D01*
X4777324Y-14988460D02*
X4767801Y-14978936D01*
X4767801Y-14978936D02*
X4758277Y-14959888D01*
X4758277Y-14959888D02*
X4748753Y-14921793D01*
X4748753Y-14921793D02*
X4748753Y-14874174D01*
X4748753Y-14874174D02*
X4758277Y-14836079D01*
X4758277Y-14836079D02*
X4767801Y-14817031D01*
X4767801Y-14817031D02*
X4777324Y-14807508D01*
X4777324Y-14807508D02*
X4796372Y-14797984D01*
X4948753Y-14978936D02*
X4958277Y-14988460D01*
X4958277Y-14988460D02*
X4948753Y-14997984D01*
X4948753Y-14997984D02*
X4939229Y-14988460D01*
X4939229Y-14988460D02*
X4948753Y-14978936D01*
X4948753Y-14978936D02*
X4948753Y-14997984D01*
X5072563Y-14883698D02*
X5053515Y-14874174D01*
X5053515Y-14874174D02*
X5043991Y-14864650D01*
X5043991Y-14864650D02*
X5034467Y-14845603D01*
X5034467Y-14845603D02*
X5034467Y-14836079D01*
X5034467Y-14836079D02*
X5043991Y-14817031D01*
X5043991Y-14817031D02*
X5053515Y-14807508D01*
X5053515Y-14807508D02*
X5072563Y-14797984D01*
X5072563Y-14797984D02*
X5110658Y-14797984D01*
X5110658Y-14797984D02*
X5129705Y-14807508D01*
X5129705Y-14807508D02*
X5139229Y-14817031D01*
X5139229Y-14817031D02*
X5148753Y-14836079D01*
X5148753Y-14836079D02*
X5148753Y-14845603D01*
X5148753Y-14845603D02*
X5139229Y-14864650D01*
X5139229Y-14864650D02*
X5129705Y-14874174D01*
X5129705Y-14874174D02*
X5110658Y-14883698D01*
X5110658Y-14883698D02*
X5072563Y-14883698D01*
X5072563Y-14883698D02*
X5053515Y-14893222D01*
X5053515Y-14893222D02*
X5043991Y-14902746D01*
X5043991Y-14902746D02*
X5034467Y-14921793D01*
X5034467Y-14921793D02*
X5034467Y-14959888D01*
X5034467Y-14959888D02*
X5043991Y-14978936D01*
X5043991Y-14978936D02*
X5053515Y-14988460D01*
X5053515Y-14988460D02*
X5072563Y-14997984D01*
X5072563Y-14997984D02*
X5110658Y-14997984D01*
X5110658Y-14997984D02*
X5129705Y-14988460D01*
X5129705Y-14988460D02*
X5139229Y-14978936D01*
X5139229Y-14978936D02*
X5148753Y-14959888D01*
X5148753Y-14959888D02*
X5148753Y-14921793D01*
X5148753Y-14921793D02*
X5139229Y-14902746D01*
X5139229Y-14902746D02*
X5129705Y-14893222D01*
X5129705Y-14893222D02*
X5110658Y-14883698D01*
X5272563Y-14797984D02*
X5291610Y-14797984D01*
X5291610Y-14797984D02*
X5310658Y-14807508D01*
X5310658Y-14807508D02*
X5320182Y-14817031D01*
X5320182Y-14817031D02*
X5329705Y-14836079D01*
X5329705Y-14836079D02*
X5339229Y-14874174D01*
X5339229Y-14874174D02*
X5339229Y-14921793D01*
X5339229Y-14921793D02*
X5329705Y-14959888D01*
X5329705Y-14959888D02*
X5320182Y-14978936D01*
X5320182Y-14978936D02*
X5310658Y-14988460D01*
X5310658Y-14988460D02*
X5291610Y-14997984D01*
X5291610Y-14997984D02*
X5272563Y-14997984D01*
X5272563Y-14997984D02*
X5253515Y-14988460D01*
X5253515Y-14988460D02*
X5243991Y-14978936D01*
X5243991Y-14978936D02*
X5234467Y-14959888D01*
X5234467Y-14959888D02*
X5224944Y-14921793D01*
X5224944Y-14921793D02*
X5224944Y-14874174D01*
X5224944Y-14874174D02*
X5234467Y-14836079D01*
X5234467Y-14836079D02*
X5243991Y-14817031D01*
X5243991Y-14817031D02*
X5253515Y-14807508D01*
X5253515Y-14807508D02*
X5272563Y-14797984D01*
X5463039Y-14797984D02*
X5482086Y-14797984D01*
X5482086Y-14797984D02*
X5501134Y-14807508D01*
X5501134Y-14807508D02*
X5510658Y-14817031D01*
X5510658Y-14817031D02*
X5520182Y-14836079D01*
X5520182Y-14836079D02*
X5529705Y-14874174D01*
X5529705Y-14874174D02*
X5529705Y-14921793D01*
X5529705Y-14921793D02*
X5520182Y-14959888D01*
X5520182Y-14959888D02*
X5510658Y-14978936D01*
X5510658Y-14978936D02*
X5501134Y-14988460D01*
X5501134Y-14988460D02*
X5482086Y-14997984D01*
X5482086Y-14997984D02*
X5463039Y-14997984D01*
X5463039Y-14997984D02*
X5443991Y-14988460D01*
X5443991Y-14988460D02*
X5434467Y-14978936D01*
X5434467Y-14978936D02*
X5424944Y-14959888D01*
X5424944Y-14959888D02*
X5415420Y-14921793D01*
X5415420Y-14921793D02*
X5415420Y-14874174D01*
X5415420Y-14874174D02*
X5424944Y-14836079D01*
X5424944Y-14836079D02*
X5434467Y-14817031D01*
X5434467Y-14817031D02*
X5443991Y-14807508D01*
X5443991Y-14807508D02*
X5463039Y-14797984D01*
X5615420Y-14997984D02*
X5615420Y-14864650D01*
X5615420Y-14883698D02*
X5624943Y-14874174D01*
X5624943Y-14874174D02*
X5643991Y-14864650D01*
X5643991Y-14864650D02*
X5672563Y-14864650D01*
X5672563Y-14864650D02*
X5691610Y-14874174D01*
X5691610Y-14874174D02*
X5701134Y-14893222D01*
X5701134Y-14893222D02*
X5701134Y-14997984D01*
X5701134Y-14893222D02*
X5710658Y-14874174D01*
X5710658Y-14874174D02*
X5729705Y-14864650D01*
X5729705Y-14864650D02*
X5758277Y-14864650D01*
X5758277Y-14864650D02*
X5777324Y-14874174D01*
X5777324Y-14874174D02*
X5786848Y-14893222D01*
X5786848Y-14893222D02*
X5786848Y-14997984D01*
X5882086Y-14997984D02*
X5882086Y-14864650D01*
X5882086Y-14883698D02*
X5891610Y-14874174D01*
X5891610Y-14874174D02*
X5910658Y-14864650D01*
X5910658Y-14864650D02*
X5939229Y-14864650D01*
X5939229Y-14864650D02*
X5958277Y-14874174D01*
X5958277Y-14874174D02*
X5967801Y-14893222D01*
X5967801Y-14893222D02*
X5967801Y-14997984D01*
X5967801Y-14893222D02*
X5977324Y-14874174D01*
X5977324Y-14874174D02*
X5996372Y-14864650D01*
X5996372Y-14864650D02*
X6024943Y-14864650D01*
X6024943Y-14864650D02*
X6043991Y-14874174D01*
X6043991Y-14874174D02*
X6053515Y-14893222D01*
X6053515Y-14893222D02*
X6053515Y-14997984D01*
X6443991Y-14788460D02*
X6272563Y-15045603D01*
X6701134Y-14797984D02*
X6720182Y-14797984D01*
X6720182Y-14797984D02*
X6739229Y-14807508D01*
X6739229Y-14807508D02*
X6748753Y-14817031D01*
X6748753Y-14817031D02*
X6758277Y-14836079D01*
X6758277Y-14836079D02*
X6767801Y-14874174D01*
X6767801Y-14874174D02*
X6767801Y-14921793D01*
X6767801Y-14921793D02*
X6758277Y-14959888D01*
X6758277Y-14959888D02*
X6748753Y-14978936D01*
X6748753Y-14978936D02*
X6739229Y-14988460D01*
X6739229Y-14988460D02*
X6720182Y-14997984D01*
X6720182Y-14997984D02*
X6701134Y-14997984D01*
X6701134Y-14997984D02*
X6682086Y-14988460D01*
X6682086Y-14988460D02*
X6672563Y-14978936D01*
X6672563Y-14978936D02*
X6663039Y-14959888D01*
X6663039Y-14959888D02*
X6653515Y-14921793D01*
X6653515Y-14921793D02*
X6653515Y-14874174D01*
X6653515Y-14874174D02*
X6663039Y-14836079D01*
X6663039Y-14836079D02*
X6672563Y-14817031D01*
X6672563Y-14817031D02*
X6682086Y-14807508D01*
X6682086Y-14807508D02*
X6701134Y-14797984D01*
X6853515Y-14978936D02*
X6863039Y-14988460D01*
X6863039Y-14988460D02*
X6853515Y-14997984D01*
X6853515Y-14997984D02*
X6843991Y-14988460D01*
X6843991Y-14988460D02*
X6853515Y-14978936D01*
X6853515Y-14978936D02*
X6853515Y-14997984D01*
X6986848Y-14797984D02*
X7005896Y-14797984D01*
X7005896Y-14797984D02*
X7024944Y-14807508D01*
X7024944Y-14807508D02*
X7034467Y-14817031D01*
X7034467Y-14817031D02*
X7043991Y-14836079D01*
X7043991Y-14836079D02*
X7053515Y-14874174D01*
X7053515Y-14874174D02*
X7053515Y-14921793D01*
X7053515Y-14921793D02*
X7043991Y-14959888D01*
X7043991Y-14959888D02*
X7034467Y-14978936D01*
X7034467Y-14978936D02*
X7024944Y-14988460D01*
X7024944Y-14988460D02*
X7005896Y-14997984D01*
X7005896Y-14997984D02*
X6986848Y-14997984D01*
X6986848Y-14997984D02*
X6967801Y-14988460D01*
X6967801Y-14988460D02*
X6958277Y-14978936D01*
X6958277Y-14978936D02*
X6948753Y-14959888D01*
X6948753Y-14959888D02*
X6939229Y-14921793D01*
X6939229Y-14921793D02*
X6939229Y-14874174D01*
X6939229Y-14874174D02*
X6948753Y-14836079D01*
X6948753Y-14836079D02*
X6958277Y-14817031D01*
X6958277Y-14817031D02*
X6967801Y-14807508D01*
X6967801Y-14807508D02*
X6986848Y-14797984D01*
X7120182Y-14797984D02*
X7243991Y-14797984D01*
X7243991Y-14797984D02*
X7177325Y-14874174D01*
X7177325Y-14874174D02*
X7205896Y-14874174D01*
X7205896Y-14874174D02*
X7224944Y-14883698D01*
X7224944Y-14883698D02*
X7234467Y-14893222D01*
X7234467Y-14893222D02*
X7243991Y-14912269D01*
X7243991Y-14912269D02*
X7243991Y-14959888D01*
X7243991Y-14959888D02*
X7234467Y-14978936D01*
X7234467Y-14978936D02*
X7224944Y-14988460D01*
X7224944Y-14988460D02*
X7205896Y-14997984D01*
X7205896Y-14997984D02*
X7148753Y-14997984D01*
X7148753Y-14997984D02*
X7129706Y-14988460D01*
X7129706Y-14988460D02*
X7120182Y-14978936D01*
X7434467Y-14997984D02*
X7320182Y-14997984D01*
X7377325Y-14997984D02*
X7377325Y-14797984D01*
X7377325Y-14797984D02*
X7358277Y-14826555D01*
X7358277Y-14826555D02*
X7339229Y-14845603D01*
X7339229Y-14845603D02*
X7320182Y-14855127D01*
X7615420Y-14797984D02*
X7520182Y-14797984D01*
X7520182Y-14797984D02*
X7510658Y-14893222D01*
X7510658Y-14893222D02*
X7520182Y-14883698D01*
X7520182Y-14883698D02*
X7539229Y-14874174D01*
X7539229Y-14874174D02*
X7586848Y-14874174D01*
X7586848Y-14874174D02*
X7605896Y-14883698D01*
X7605896Y-14883698D02*
X7615420Y-14893222D01*
X7615420Y-14893222D02*
X7624944Y-14912269D01*
X7624944Y-14912269D02*
X7624944Y-14959888D01*
X7624944Y-14959888D02*
X7615420Y-14978936D01*
X7615420Y-14978936D02*
X7605896Y-14988460D01*
X7605896Y-14988460D02*
X7586848Y-14997984D01*
X7586848Y-14997984D02*
X7539229Y-14997984D01*
X7539229Y-14997984D02*
X7520182Y-14988460D01*
X7520182Y-14988460D02*
X7510658Y-14978936D01*
X7701134Y-14797984D02*
X7701134Y-14836079D01*
X7777325Y-14797984D02*
X7777325Y-14836079D01*
X8072563Y-15074174D02*
X8063039Y-15064650D01*
X8063039Y-15064650D02*
X8043991Y-15036079D01*
X8043991Y-15036079D02*
X8034468Y-15017031D01*
X8034468Y-15017031D02*
X8024944Y-14988460D01*
X8024944Y-14988460D02*
X8015420Y-14940841D01*
X8015420Y-14940841D02*
X8015420Y-14902746D01*
X8015420Y-14902746D02*
X8024944Y-14855127D01*
X8024944Y-14855127D02*
X8034468Y-14826555D01*
X8034468Y-14826555D02*
X8043991Y-14807508D01*
X8043991Y-14807508D02*
X8063039Y-14778936D01*
X8063039Y-14778936D02*
X8072563Y-14769412D01*
X8139229Y-14817031D02*
X8148753Y-14807508D01*
X8148753Y-14807508D02*
X8167801Y-14797984D01*
X8167801Y-14797984D02*
X8215420Y-14797984D01*
X8215420Y-14797984D02*
X8234468Y-14807508D01*
X8234468Y-14807508D02*
X8243991Y-14817031D01*
X8243991Y-14817031D02*
X8253515Y-14836079D01*
X8253515Y-14836079D02*
X8253515Y-14855127D01*
X8253515Y-14855127D02*
X8243991Y-14883698D01*
X8243991Y-14883698D02*
X8129706Y-14997984D01*
X8129706Y-14997984D02*
X8253515Y-14997984D01*
X8329706Y-14817031D02*
X8339229Y-14807508D01*
X8339229Y-14807508D02*
X8358277Y-14797984D01*
X8358277Y-14797984D02*
X8405896Y-14797984D01*
X8405896Y-14797984D02*
X8424944Y-14807508D01*
X8424944Y-14807508D02*
X8434468Y-14817031D01*
X8434468Y-14817031D02*
X8443991Y-14836079D01*
X8443991Y-14836079D02*
X8443991Y-14855127D01*
X8443991Y-14855127D02*
X8434468Y-14883698D01*
X8434468Y-14883698D02*
X8320182Y-14997984D01*
X8320182Y-14997984D02*
X8443991Y-14997984D01*
X8682087Y-14997984D02*
X8682087Y-14797984D01*
X8767801Y-14997984D02*
X8767801Y-14893222D01*
X8767801Y-14893222D02*
X8758277Y-14874174D01*
X8758277Y-14874174D02*
X8739230Y-14864650D01*
X8739230Y-14864650D02*
X8710658Y-14864650D01*
X8710658Y-14864650D02*
X8691611Y-14874174D01*
X8691611Y-14874174D02*
X8682087Y-14883698D01*
X8891611Y-14997984D02*
X8872563Y-14988460D01*
X8872563Y-14988460D02*
X8863039Y-14978936D01*
X8863039Y-14978936D02*
X8853515Y-14959888D01*
X8853515Y-14959888D02*
X8853515Y-14902746D01*
X8853515Y-14902746D02*
X8863039Y-14883698D01*
X8863039Y-14883698D02*
X8872563Y-14874174D01*
X8872563Y-14874174D02*
X8891611Y-14864650D01*
X8891611Y-14864650D02*
X8920182Y-14864650D01*
X8920182Y-14864650D02*
X8939230Y-14874174D01*
X8939230Y-14874174D02*
X8948753Y-14883698D01*
X8948753Y-14883698D02*
X8958277Y-14902746D01*
X8958277Y-14902746D02*
X8958277Y-14959888D01*
X8958277Y-14959888D02*
X8948753Y-14978936D01*
X8948753Y-14978936D02*
X8939230Y-14988460D01*
X8939230Y-14988460D02*
X8920182Y-14997984D01*
X8920182Y-14997984D02*
X8891611Y-14997984D01*
X9072563Y-14997984D02*
X9053515Y-14988460D01*
X9053515Y-14988460D02*
X9043992Y-14969412D01*
X9043992Y-14969412D02*
X9043992Y-14797984D01*
X9224944Y-14988460D02*
X9205896Y-14997984D01*
X9205896Y-14997984D02*
X9167801Y-14997984D01*
X9167801Y-14997984D02*
X9148753Y-14988460D01*
X9148753Y-14988460D02*
X9139230Y-14969412D01*
X9139230Y-14969412D02*
X9139230Y-14893222D01*
X9139230Y-14893222D02*
X9148753Y-14874174D01*
X9148753Y-14874174D02*
X9167801Y-14864650D01*
X9167801Y-14864650D02*
X9205896Y-14864650D01*
X9205896Y-14864650D02*
X9224944Y-14874174D01*
X9224944Y-14874174D02*
X9234468Y-14893222D01*
X9234468Y-14893222D02*
X9234468Y-14912269D01*
X9234468Y-14912269D02*
X9139230Y-14931317D01*
X9310658Y-14988460D02*
X9329706Y-14997984D01*
X9329706Y-14997984D02*
X9367801Y-14997984D01*
X9367801Y-14997984D02*
X9386849Y-14988460D01*
X9386849Y-14988460D02*
X9396373Y-14969412D01*
X9396373Y-14969412D02*
X9396373Y-14959888D01*
X9396373Y-14959888D02*
X9386849Y-14940841D01*
X9386849Y-14940841D02*
X9367801Y-14931317D01*
X9367801Y-14931317D02*
X9339230Y-14931317D01*
X9339230Y-14931317D02*
X9320182Y-14921793D01*
X9320182Y-14921793D02*
X9310658Y-14902746D01*
X9310658Y-14902746D02*
X9310658Y-14893222D01*
X9310658Y-14893222D02*
X9320182Y-14874174D01*
X9320182Y-14874174D02*
X9339230Y-14864650D01*
X9339230Y-14864650D02*
X9367801Y-14864650D01*
X9367801Y-14864650D02*
X9386849Y-14874174D01*
X9463039Y-15074174D02*
X9472563Y-15064650D01*
X9472563Y-15064650D02*
X9491611Y-15036079D01*
X9491611Y-15036079D02*
X9501134Y-15017031D01*
X9501134Y-15017031D02*
X9510658Y-14988460D01*
X9510658Y-14988460D02*
X9520182Y-14940841D01*
X9520182Y-14940841D02*
X9520182Y-14902746D01*
X9520182Y-14902746D02*
X9510658Y-14855127D01*
X9510658Y-14855127D02*
X9501134Y-14826555D01*
X9501134Y-14826555D02*
X9491611Y-14807508D01*
X9491611Y-14807508D02*
X9472563Y-14778936D01*
X9472563Y-14778936D02*
X9463039Y-14769412D01*
D12*
X4452500Y-15125500D02*
X4452500Y-15215500D01*
X4407500Y-15170500D02*
X4497500Y-15170500D01*
D11*
X4796372Y-15061984D02*
X4815420Y-15061984D01*
X4815420Y-15061984D02*
X4834467Y-15071508D01*
X4834467Y-15071508D02*
X4843991Y-15081031D01*
X4843991Y-15081031D02*
X4853515Y-15100079D01*
X4853515Y-15100079D02*
X4863039Y-15138174D01*
X4863039Y-15138174D02*
X4863039Y-15185793D01*
X4863039Y-15185793D02*
X4853515Y-15223888D01*
X4853515Y-15223888D02*
X4843991Y-15242936D01*
X4843991Y-15242936D02*
X4834467Y-15252460D01*
X4834467Y-15252460D02*
X4815420Y-15261984D01*
X4815420Y-15261984D02*
X4796372Y-15261984D01*
X4796372Y-15261984D02*
X4777324Y-15252460D01*
X4777324Y-15252460D02*
X4767801Y-15242936D01*
X4767801Y-15242936D02*
X4758277Y-15223888D01*
X4758277Y-15223888D02*
X4748753Y-15185793D01*
X4748753Y-15185793D02*
X4748753Y-15138174D01*
X4748753Y-15138174D02*
X4758277Y-15100079D01*
X4758277Y-15100079D02*
X4767801Y-15081031D01*
X4767801Y-15081031D02*
X4777324Y-15071508D01*
X4777324Y-15071508D02*
X4796372Y-15061984D01*
X4948753Y-15242936D02*
X4958277Y-15252460D01*
X4958277Y-15252460D02*
X4948753Y-15261984D01*
X4948753Y-15261984D02*
X4939229Y-15252460D01*
X4939229Y-15252460D02*
X4948753Y-15242936D01*
X4948753Y-15242936D02*
X4948753Y-15261984D01*
X5053515Y-15261984D02*
X5091610Y-15261984D01*
X5091610Y-15261984D02*
X5110658Y-15252460D01*
X5110658Y-15252460D02*
X5120182Y-15242936D01*
X5120182Y-15242936D02*
X5139229Y-15214365D01*
X5139229Y-15214365D02*
X5148753Y-15176269D01*
X5148753Y-15176269D02*
X5148753Y-15100079D01*
X5148753Y-15100079D02*
X5139229Y-15081031D01*
X5139229Y-15081031D02*
X5129705Y-15071508D01*
X5129705Y-15071508D02*
X5110658Y-15061984D01*
X5110658Y-15061984D02*
X5072563Y-15061984D01*
X5072563Y-15061984D02*
X5053515Y-15071508D01*
X5053515Y-15071508D02*
X5043991Y-15081031D01*
X5043991Y-15081031D02*
X5034467Y-15100079D01*
X5034467Y-15100079D02*
X5034467Y-15147698D01*
X5034467Y-15147698D02*
X5043991Y-15166746D01*
X5043991Y-15166746D02*
X5053515Y-15176269D01*
X5053515Y-15176269D02*
X5072563Y-15185793D01*
X5072563Y-15185793D02*
X5110658Y-15185793D01*
X5110658Y-15185793D02*
X5129705Y-15176269D01*
X5129705Y-15176269D02*
X5139229Y-15166746D01*
X5139229Y-15166746D02*
X5148753Y-15147698D01*
X5272563Y-15061984D02*
X5291610Y-15061984D01*
X5291610Y-15061984D02*
X5310658Y-15071508D01*
X5310658Y-15071508D02*
X5320182Y-15081031D01*
X5320182Y-15081031D02*
X5329705Y-15100079D01*
X5329705Y-15100079D02*
X5339229Y-15138174D01*
X5339229Y-15138174D02*
X5339229Y-15185793D01*
X5339229Y-15185793D02*
X5329705Y-15223888D01*
X5329705Y-15223888D02*
X5320182Y-15242936D01*
X5320182Y-15242936D02*
X5310658Y-15252460D01*
X5310658Y-15252460D02*
X5291610Y-15261984D01*
X5291610Y-15261984D02*
X5272563Y-15261984D01*
X5272563Y-15261984D02*
X5253515Y-15252460D01*
X5253515Y-15252460D02*
X5243991Y-15242936D01*
X5243991Y-15242936D02*
X5234467Y-15223888D01*
X5234467Y-15223888D02*
X5224944Y-15185793D01*
X5224944Y-15185793D02*
X5224944Y-15138174D01*
X5224944Y-15138174D02*
X5234467Y-15100079D01*
X5234467Y-15100079D02*
X5243991Y-15081031D01*
X5243991Y-15081031D02*
X5253515Y-15071508D01*
X5253515Y-15071508D02*
X5272563Y-15061984D01*
X5463039Y-15061984D02*
X5482086Y-15061984D01*
X5482086Y-15061984D02*
X5501134Y-15071508D01*
X5501134Y-15071508D02*
X5510658Y-15081031D01*
X5510658Y-15081031D02*
X5520182Y-15100079D01*
X5520182Y-15100079D02*
X5529705Y-15138174D01*
X5529705Y-15138174D02*
X5529705Y-15185793D01*
X5529705Y-15185793D02*
X5520182Y-15223888D01*
X5520182Y-15223888D02*
X5510658Y-15242936D01*
X5510658Y-15242936D02*
X5501134Y-15252460D01*
X5501134Y-15252460D02*
X5482086Y-15261984D01*
X5482086Y-15261984D02*
X5463039Y-15261984D01*
X5463039Y-15261984D02*
X5443991Y-15252460D01*
X5443991Y-15252460D02*
X5434467Y-15242936D01*
X5434467Y-15242936D02*
X5424944Y-15223888D01*
X5424944Y-15223888D02*
X5415420Y-15185793D01*
X5415420Y-15185793D02*
X5415420Y-15138174D01*
X5415420Y-15138174D02*
X5424944Y-15100079D01*
X5424944Y-15100079D02*
X5434467Y-15081031D01*
X5434467Y-15081031D02*
X5443991Y-15071508D01*
X5443991Y-15071508D02*
X5463039Y-15061984D01*
X5615420Y-15261984D02*
X5615420Y-15128650D01*
X5615420Y-15147698D02*
X5624943Y-15138174D01*
X5624943Y-15138174D02*
X5643991Y-15128650D01*
X5643991Y-15128650D02*
X5672563Y-15128650D01*
X5672563Y-15128650D02*
X5691610Y-15138174D01*
X5691610Y-15138174D02*
X5701134Y-15157222D01*
X5701134Y-15157222D02*
X5701134Y-15261984D01*
X5701134Y-15157222D02*
X5710658Y-15138174D01*
X5710658Y-15138174D02*
X5729705Y-15128650D01*
X5729705Y-15128650D02*
X5758277Y-15128650D01*
X5758277Y-15128650D02*
X5777324Y-15138174D01*
X5777324Y-15138174D02*
X5786848Y-15157222D01*
X5786848Y-15157222D02*
X5786848Y-15261984D01*
X5882086Y-15261984D02*
X5882086Y-15128650D01*
X5882086Y-15147698D02*
X5891610Y-15138174D01*
X5891610Y-15138174D02*
X5910658Y-15128650D01*
X5910658Y-15128650D02*
X5939229Y-15128650D01*
X5939229Y-15128650D02*
X5958277Y-15138174D01*
X5958277Y-15138174D02*
X5967801Y-15157222D01*
X5967801Y-15157222D02*
X5967801Y-15261984D01*
X5967801Y-15157222D02*
X5977324Y-15138174D01*
X5977324Y-15138174D02*
X5996372Y-15128650D01*
X5996372Y-15128650D02*
X6024943Y-15128650D01*
X6024943Y-15128650D02*
X6043991Y-15138174D01*
X6043991Y-15138174D02*
X6053515Y-15157222D01*
X6053515Y-15157222D02*
X6053515Y-15261984D01*
X6443991Y-15052460D02*
X6272563Y-15309603D01*
X6701134Y-15061984D02*
X6720182Y-15061984D01*
X6720182Y-15061984D02*
X6739229Y-15071508D01*
X6739229Y-15071508D02*
X6748753Y-15081031D01*
X6748753Y-15081031D02*
X6758277Y-15100079D01*
X6758277Y-15100079D02*
X6767801Y-15138174D01*
X6767801Y-15138174D02*
X6767801Y-15185793D01*
X6767801Y-15185793D02*
X6758277Y-15223888D01*
X6758277Y-15223888D02*
X6748753Y-15242936D01*
X6748753Y-15242936D02*
X6739229Y-15252460D01*
X6739229Y-15252460D02*
X6720182Y-15261984D01*
X6720182Y-15261984D02*
X6701134Y-15261984D01*
X6701134Y-15261984D02*
X6682086Y-15252460D01*
X6682086Y-15252460D02*
X6672563Y-15242936D01*
X6672563Y-15242936D02*
X6663039Y-15223888D01*
X6663039Y-15223888D02*
X6653515Y-15185793D01*
X6653515Y-15185793D02*
X6653515Y-15138174D01*
X6653515Y-15138174D02*
X6663039Y-15100079D01*
X6663039Y-15100079D02*
X6672563Y-15081031D01*
X6672563Y-15081031D02*
X6682086Y-15071508D01*
X6682086Y-15071508D02*
X6701134Y-15061984D01*
X6853515Y-15242936D02*
X6863039Y-15252460D01*
X6863039Y-15252460D02*
X6853515Y-15261984D01*
X6853515Y-15261984D02*
X6843991Y-15252460D01*
X6843991Y-15252460D02*
X6853515Y-15242936D01*
X6853515Y-15242936D02*
X6853515Y-15261984D01*
X6986848Y-15061984D02*
X7005896Y-15061984D01*
X7005896Y-15061984D02*
X7024944Y-15071508D01*
X7024944Y-15071508D02*
X7034467Y-15081031D01*
X7034467Y-15081031D02*
X7043991Y-15100079D01*
X7043991Y-15100079D02*
X7053515Y-15138174D01*
X7053515Y-15138174D02*
X7053515Y-15185793D01*
X7053515Y-15185793D02*
X7043991Y-15223888D01*
X7043991Y-15223888D02*
X7034467Y-15242936D01*
X7034467Y-15242936D02*
X7024944Y-15252460D01*
X7024944Y-15252460D02*
X7005896Y-15261984D01*
X7005896Y-15261984D02*
X6986848Y-15261984D01*
X6986848Y-15261984D02*
X6967801Y-15252460D01*
X6967801Y-15252460D02*
X6958277Y-15242936D01*
X6958277Y-15242936D02*
X6948753Y-15223888D01*
X6948753Y-15223888D02*
X6939229Y-15185793D01*
X6939229Y-15185793D02*
X6939229Y-15138174D01*
X6939229Y-15138174D02*
X6948753Y-15100079D01*
X6948753Y-15100079D02*
X6958277Y-15081031D01*
X6958277Y-15081031D02*
X6967801Y-15071508D01*
X6967801Y-15071508D02*
X6986848Y-15061984D01*
X7120182Y-15061984D02*
X7243991Y-15061984D01*
X7243991Y-15061984D02*
X7177325Y-15138174D01*
X7177325Y-15138174D02*
X7205896Y-15138174D01*
X7205896Y-15138174D02*
X7224944Y-15147698D01*
X7224944Y-15147698D02*
X7234467Y-15157222D01*
X7234467Y-15157222D02*
X7243991Y-15176269D01*
X7243991Y-15176269D02*
X7243991Y-15223888D01*
X7243991Y-15223888D02*
X7234467Y-15242936D01*
X7234467Y-15242936D02*
X7224944Y-15252460D01*
X7224944Y-15252460D02*
X7205896Y-15261984D01*
X7205896Y-15261984D02*
X7148753Y-15261984D01*
X7148753Y-15261984D02*
X7129706Y-15252460D01*
X7129706Y-15252460D02*
X7120182Y-15242936D01*
X7424944Y-15061984D02*
X7329706Y-15061984D01*
X7329706Y-15061984D02*
X7320182Y-15157222D01*
X7320182Y-15157222D02*
X7329706Y-15147698D01*
X7329706Y-15147698D02*
X7348753Y-15138174D01*
X7348753Y-15138174D02*
X7396372Y-15138174D01*
X7396372Y-15138174D02*
X7415420Y-15147698D01*
X7415420Y-15147698D02*
X7424944Y-15157222D01*
X7424944Y-15157222D02*
X7434467Y-15176269D01*
X7434467Y-15176269D02*
X7434467Y-15223888D01*
X7434467Y-15223888D02*
X7424944Y-15242936D01*
X7424944Y-15242936D02*
X7415420Y-15252460D01*
X7415420Y-15252460D02*
X7396372Y-15261984D01*
X7396372Y-15261984D02*
X7348753Y-15261984D01*
X7348753Y-15261984D02*
X7329706Y-15252460D01*
X7329706Y-15252460D02*
X7320182Y-15242936D01*
X7605896Y-15128650D02*
X7605896Y-15261984D01*
X7558277Y-15052460D02*
X7510658Y-15195317D01*
X7510658Y-15195317D02*
X7634467Y-15195317D01*
X7701134Y-15061984D02*
X7701134Y-15100079D01*
X7777325Y-15061984D02*
X7777325Y-15100079D01*
X8072563Y-15338174D02*
X8063039Y-15328650D01*
X8063039Y-15328650D02*
X8043991Y-15300079D01*
X8043991Y-15300079D02*
X8034468Y-15281031D01*
X8034468Y-15281031D02*
X8024944Y-15252460D01*
X8024944Y-15252460D02*
X8015420Y-15204841D01*
X8015420Y-15204841D02*
X8015420Y-15166746D01*
X8015420Y-15166746D02*
X8024944Y-15119127D01*
X8024944Y-15119127D02*
X8034468Y-15090555D01*
X8034468Y-15090555D02*
X8043991Y-15071508D01*
X8043991Y-15071508D02*
X8063039Y-15042936D01*
X8063039Y-15042936D02*
X8072563Y-15033412D01*
X8177325Y-15147698D02*
X8158277Y-15138174D01*
X8158277Y-15138174D02*
X8148753Y-15128650D01*
X8148753Y-15128650D02*
X8139229Y-15109603D01*
X8139229Y-15109603D02*
X8139229Y-15100079D01*
X8139229Y-15100079D02*
X8148753Y-15081031D01*
X8148753Y-15081031D02*
X8158277Y-15071508D01*
X8158277Y-15071508D02*
X8177325Y-15061984D01*
X8177325Y-15061984D02*
X8215420Y-15061984D01*
X8215420Y-15061984D02*
X8234468Y-15071508D01*
X8234468Y-15071508D02*
X8243991Y-15081031D01*
X8243991Y-15081031D02*
X8253515Y-15100079D01*
X8253515Y-15100079D02*
X8253515Y-15109603D01*
X8253515Y-15109603D02*
X8243991Y-15128650D01*
X8243991Y-15128650D02*
X8234468Y-15138174D01*
X8234468Y-15138174D02*
X8215420Y-15147698D01*
X8215420Y-15147698D02*
X8177325Y-15147698D01*
X8177325Y-15147698D02*
X8158277Y-15157222D01*
X8158277Y-15157222D02*
X8148753Y-15166746D01*
X8148753Y-15166746D02*
X8139229Y-15185793D01*
X8139229Y-15185793D02*
X8139229Y-15223888D01*
X8139229Y-15223888D02*
X8148753Y-15242936D01*
X8148753Y-15242936D02*
X8158277Y-15252460D01*
X8158277Y-15252460D02*
X8177325Y-15261984D01*
X8177325Y-15261984D02*
X8215420Y-15261984D01*
X8215420Y-15261984D02*
X8234468Y-15252460D01*
X8234468Y-15252460D02*
X8243991Y-15242936D01*
X8243991Y-15242936D02*
X8253515Y-15223888D01*
X8253515Y-15223888D02*
X8253515Y-15185793D01*
X8253515Y-15185793D02*
X8243991Y-15166746D01*
X8243991Y-15166746D02*
X8234468Y-15157222D01*
X8234468Y-15157222D02*
X8215420Y-15147698D01*
X8491611Y-15261984D02*
X8491611Y-15061984D01*
X8577325Y-15261984D02*
X8577325Y-15157222D01*
X8577325Y-15157222D02*
X8567801Y-15138174D01*
X8567801Y-15138174D02*
X8548753Y-15128650D01*
X8548753Y-15128650D02*
X8520182Y-15128650D01*
X8520182Y-15128650D02*
X8501134Y-15138174D01*
X8501134Y-15138174D02*
X8491611Y-15147698D01*
X8701134Y-15261984D02*
X8682087Y-15252460D01*
X8682087Y-15252460D02*
X8672563Y-15242936D01*
X8672563Y-15242936D02*
X8663039Y-15223888D01*
X8663039Y-15223888D02*
X8663039Y-15166746D01*
X8663039Y-15166746D02*
X8672563Y-15147698D01*
X8672563Y-15147698D02*
X8682087Y-15138174D01*
X8682087Y-15138174D02*
X8701134Y-15128650D01*
X8701134Y-15128650D02*
X8729706Y-15128650D01*
X8729706Y-15128650D02*
X8748753Y-15138174D01*
X8748753Y-15138174D02*
X8758277Y-15147698D01*
X8758277Y-15147698D02*
X8767801Y-15166746D01*
X8767801Y-15166746D02*
X8767801Y-15223888D01*
X8767801Y-15223888D02*
X8758277Y-15242936D01*
X8758277Y-15242936D02*
X8748753Y-15252460D01*
X8748753Y-15252460D02*
X8729706Y-15261984D01*
X8729706Y-15261984D02*
X8701134Y-15261984D01*
X8882087Y-15261984D02*
X8863039Y-15252460D01*
X8863039Y-15252460D02*
X8853515Y-15233412D01*
X8853515Y-15233412D02*
X8853515Y-15061984D01*
X9034468Y-15252460D02*
X9015420Y-15261984D01*
X9015420Y-15261984D02*
X8977325Y-15261984D01*
X8977325Y-15261984D02*
X8958277Y-15252460D01*
X8958277Y-15252460D02*
X8948753Y-15233412D01*
X8948753Y-15233412D02*
X8948753Y-15157222D01*
X8948753Y-15157222D02*
X8958277Y-15138174D01*
X8958277Y-15138174D02*
X8977325Y-15128650D01*
X8977325Y-15128650D02*
X9015420Y-15128650D01*
X9015420Y-15128650D02*
X9034468Y-15138174D01*
X9034468Y-15138174D02*
X9043992Y-15157222D01*
X9043992Y-15157222D02*
X9043992Y-15176269D01*
X9043992Y-15176269D02*
X8948753Y-15195317D01*
X9120182Y-15252460D02*
X9139230Y-15261984D01*
X9139230Y-15261984D02*
X9177325Y-15261984D01*
X9177325Y-15261984D02*
X9196373Y-15252460D01*
X9196373Y-15252460D02*
X9205896Y-15233412D01*
X9205896Y-15233412D02*
X9205896Y-15223888D01*
X9205896Y-15223888D02*
X9196373Y-15204841D01*
X9196373Y-15204841D02*
X9177325Y-15195317D01*
X9177325Y-15195317D02*
X9148753Y-15195317D01*
X9148753Y-15195317D02*
X9129706Y-15185793D01*
X9129706Y-15185793D02*
X9120182Y-15166746D01*
X9120182Y-15166746D02*
X9120182Y-15157222D01*
X9120182Y-15157222D02*
X9129706Y-15138174D01*
X9129706Y-15138174D02*
X9148753Y-15128650D01*
X9148753Y-15128650D02*
X9177325Y-15128650D01*
X9177325Y-15128650D02*
X9196373Y-15138174D01*
X9272563Y-15338174D02*
X9282087Y-15328650D01*
X9282087Y-15328650D02*
X9301134Y-15300079D01*
X9301134Y-15300079D02*
X9310658Y-15281031D01*
X9310658Y-15281031D02*
X9320182Y-15252460D01*
X9320182Y-15252460D02*
X9329706Y-15204841D01*
X9329706Y-15204841D02*
X9329706Y-15166746D01*
X9329706Y-15166746D02*
X9320182Y-15119127D01*
X9320182Y-15119127D02*
X9310658Y-15090555D01*
X9310658Y-15090555D02*
X9301134Y-15071508D01*
X9301134Y-15071508D02*
X9282087Y-15042936D01*
X9282087Y-15042936D02*
X9272563Y-15033412D01*
D12*
X4482856Y-15469856D02*
X4482856Y-15399144D01*
X4412144Y-15399144D01*
X4412144Y-15469856D01*
X4482856Y-15469856D01*
D11*
X4863039Y-15525984D02*
X4748753Y-15525984D01*
X4805896Y-15525984D02*
X4805896Y-15325984D01*
X4805896Y-15325984D02*
X4786848Y-15354555D01*
X4786848Y-15354555D02*
X4767801Y-15373603D01*
X4767801Y-15373603D02*
X4748753Y-15383127D01*
X4948753Y-15506936D02*
X4958277Y-15516460D01*
X4958277Y-15516460D02*
X4948753Y-15525984D01*
X4948753Y-15525984D02*
X4939229Y-15516460D01*
X4939229Y-15516460D02*
X4948753Y-15506936D01*
X4948753Y-15506936D02*
X4948753Y-15525984D01*
X5082086Y-15325984D02*
X5101134Y-15325984D01*
X5101134Y-15325984D02*
X5120182Y-15335508D01*
X5120182Y-15335508D02*
X5129705Y-15345031D01*
X5129705Y-15345031D02*
X5139229Y-15364079D01*
X5139229Y-15364079D02*
X5148753Y-15402174D01*
X5148753Y-15402174D02*
X5148753Y-15449793D01*
X5148753Y-15449793D02*
X5139229Y-15487888D01*
X5139229Y-15487888D02*
X5129705Y-15506936D01*
X5129705Y-15506936D02*
X5120182Y-15516460D01*
X5120182Y-15516460D02*
X5101134Y-15525984D01*
X5101134Y-15525984D02*
X5082086Y-15525984D01*
X5082086Y-15525984D02*
X5063039Y-15516460D01*
X5063039Y-15516460D02*
X5053515Y-15506936D01*
X5053515Y-15506936D02*
X5043991Y-15487888D01*
X5043991Y-15487888D02*
X5034467Y-15449793D01*
X5034467Y-15449793D02*
X5034467Y-15402174D01*
X5034467Y-15402174D02*
X5043991Y-15364079D01*
X5043991Y-15364079D02*
X5053515Y-15345031D01*
X5053515Y-15345031D02*
X5063039Y-15335508D01*
X5063039Y-15335508D02*
X5082086Y-15325984D01*
X5272563Y-15325984D02*
X5291610Y-15325984D01*
X5291610Y-15325984D02*
X5310658Y-15335508D01*
X5310658Y-15335508D02*
X5320182Y-15345031D01*
X5320182Y-15345031D02*
X5329705Y-15364079D01*
X5329705Y-15364079D02*
X5339229Y-15402174D01*
X5339229Y-15402174D02*
X5339229Y-15449793D01*
X5339229Y-15449793D02*
X5329705Y-15487888D01*
X5329705Y-15487888D02*
X5320182Y-15506936D01*
X5320182Y-15506936D02*
X5310658Y-15516460D01*
X5310658Y-15516460D02*
X5291610Y-15525984D01*
X5291610Y-15525984D02*
X5272563Y-15525984D01*
X5272563Y-15525984D02*
X5253515Y-15516460D01*
X5253515Y-15516460D02*
X5243991Y-15506936D01*
X5243991Y-15506936D02*
X5234467Y-15487888D01*
X5234467Y-15487888D02*
X5224944Y-15449793D01*
X5224944Y-15449793D02*
X5224944Y-15402174D01*
X5224944Y-15402174D02*
X5234467Y-15364079D01*
X5234467Y-15364079D02*
X5243991Y-15345031D01*
X5243991Y-15345031D02*
X5253515Y-15335508D01*
X5253515Y-15335508D02*
X5272563Y-15325984D01*
X5463039Y-15325984D02*
X5482086Y-15325984D01*
X5482086Y-15325984D02*
X5501134Y-15335508D01*
X5501134Y-15335508D02*
X5510658Y-15345031D01*
X5510658Y-15345031D02*
X5520182Y-15364079D01*
X5520182Y-15364079D02*
X5529705Y-15402174D01*
X5529705Y-15402174D02*
X5529705Y-15449793D01*
X5529705Y-15449793D02*
X5520182Y-15487888D01*
X5520182Y-15487888D02*
X5510658Y-15506936D01*
X5510658Y-15506936D02*
X5501134Y-15516460D01*
X5501134Y-15516460D02*
X5482086Y-15525984D01*
X5482086Y-15525984D02*
X5463039Y-15525984D01*
X5463039Y-15525984D02*
X5443991Y-15516460D01*
X5443991Y-15516460D02*
X5434467Y-15506936D01*
X5434467Y-15506936D02*
X5424944Y-15487888D01*
X5424944Y-15487888D02*
X5415420Y-15449793D01*
X5415420Y-15449793D02*
X5415420Y-15402174D01*
X5415420Y-15402174D02*
X5424944Y-15364079D01*
X5424944Y-15364079D02*
X5434467Y-15345031D01*
X5434467Y-15345031D02*
X5443991Y-15335508D01*
X5443991Y-15335508D02*
X5463039Y-15325984D01*
X5615420Y-15525984D02*
X5615420Y-15392650D01*
X5615420Y-15411698D02*
X5624943Y-15402174D01*
X5624943Y-15402174D02*
X5643991Y-15392650D01*
X5643991Y-15392650D02*
X5672563Y-15392650D01*
X5672563Y-15392650D02*
X5691610Y-15402174D01*
X5691610Y-15402174D02*
X5701134Y-15421222D01*
X5701134Y-15421222D02*
X5701134Y-15525984D01*
X5701134Y-15421222D02*
X5710658Y-15402174D01*
X5710658Y-15402174D02*
X5729705Y-15392650D01*
X5729705Y-15392650D02*
X5758277Y-15392650D01*
X5758277Y-15392650D02*
X5777324Y-15402174D01*
X5777324Y-15402174D02*
X5786848Y-15421222D01*
X5786848Y-15421222D02*
X5786848Y-15525984D01*
X5882086Y-15525984D02*
X5882086Y-15392650D01*
X5882086Y-15411698D02*
X5891610Y-15402174D01*
X5891610Y-15402174D02*
X5910658Y-15392650D01*
X5910658Y-15392650D02*
X5939229Y-15392650D01*
X5939229Y-15392650D02*
X5958277Y-15402174D01*
X5958277Y-15402174D02*
X5967801Y-15421222D01*
X5967801Y-15421222D02*
X5967801Y-15525984D01*
X5967801Y-15421222D02*
X5977324Y-15402174D01*
X5977324Y-15402174D02*
X5996372Y-15392650D01*
X5996372Y-15392650D02*
X6024943Y-15392650D01*
X6024943Y-15392650D02*
X6043991Y-15402174D01*
X6043991Y-15402174D02*
X6053515Y-15421222D01*
X6053515Y-15421222D02*
X6053515Y-15525984D01*
X6443991Y-15316460D02*
X6272563Y-15573603D01*
X6701134Y-15325984D02*
X6720182Y-15325984D01*
X6720182Y-15325984D02*
X6739229Y-15335508D01*
X6739229Y-15335508D02*
X6748753Y-15345031D01*
X6748753Y-15345031D02*
X6758277Y-15364079D01*
X6758277Y-15364079D02*
X6767801Y-15402174D01*
X6767801Y-15402174D02*
X6767801Y-15449793D01*
X6767801Y-15449793D02*
X6758277Y-15487888D01*
X6758277Y-15487888D02*
X6748753Y-15506936D01*
X6748753Y-15506936D02*
X6739229Y-15516460D01*
X6739229Y-15516460D02*
X6720182Y-15525984D01*
X6720182Y-15525984D02*
X6701134Y-15525984D01*
X6701134Y-15525984D02*
X6682086Y-15516460D01*
X6682086Y-15516460D02*
X6672563Y-15506936D01*
X6672563Y-15506936D02*
X6663039Y-15487888D01*
X6663039Y-15487888D02*
X6653515Y-15449793D01*
X6653515Y-15449793D02*
X6653515Y-15402174D01*
X6653515Y-15402174D02*
X6663039Y-15364079D01*
X6663039Y-15364079D02*
X6672563Y-15345031D01*
X6672563Y-15345031D02*
X6682086Y-15335508D01*
X6682086Y-15335508D02*
X6701134Y-15325984D01*
X6853515Y-15506936D02*
X6863039Y-15516460D01*
X6863039Y-15516460D02*
X6853515Y-15525984D01*
X6853515Y-15525984D02*
X6843991Y-15516460D01*
X6843991Y-15516460D02*
X6853515Y-15506936D01*
X6853515Y-15506936D02*
X6853515Y-15525984D01*
X6986848Y-15325984D02*
X7005896Y-15325984D01*
X7005896Y-15325984D02*
X7024944Y-15335508D01*
X7024944Y-15335508D02*
X7034467Y-15345031D01*
X7034467Y-15345031D02*
X7043991Y-15364079D01*
X7043991Y-15364079D02*
X7053515Y-15402174D01*
X7053515Y-15402174D02*
X7053515Y-15449793D01*
X7053515Y-15449793D02*
X7043991Y-15487888D01*
X7043991Y-15487888D02*
X7034467Y-15506936D01*
X7034467Y-15506936D02*
X7024944Y-15516460D01*
X7024944Y-15516460D02*
X7005896Y-15525984D01*
X7005896Y-15525984D02*
X6986848Y-15525984D01*
X6986848Y-15525984D02*
X6967801Y-15516460D01*
X6967801Y-15516460D02*
X6958277Y-15506936D01*
X6958277Y-15506936D02*
X6948753Y-15487888D01*
X6948753Y-15487888D02*
X6939229Y-15449793D01*
X6939229Y-15449793D02*
X6939229Y-15402174D01*
X6939229Y-15402174D02*
X6948753Y-15364079D01*
X6948753Y-15364079D02*
X6958277Y-15345031D01*
X6958277Y-15345031D02*
X6967801Y-15335508D01*
X6967801Y-15335508D02*
X6986848Y-15325984D01*
X7120182Y-15325984D02*
X7243991Y-15325984D01*
X7243991Y-15325984D02*
X7177325Y-15402174D01*
X7177325Y-15402174D02*
X7205896Y-15402174D01*
X7205896Y-15402174D02*
X7224944Y-15411698D01*
X7224944Y-15411698D02*
X7234467Y-15421222D01*
X7234467Y-15421222D02*
X7243991Y-15440269D01*
X7243991Y-15440269D02*
X7243991Y-15487888D01*
X7243991Y-15487888D02*
X7234467Y-15506936D01*
X7234467Y-15506936D02*
X7224944Y-15516460D01*
X7224944Y-15516460D02*
X7205896Y-15525984D01*
X7205896Y-15525984D02*
X7148753Y-15525984D01*
X7148753Y-15525984D02*
X7129706Y-15516460D01*
X7129706Y-15516460D02*
X7120182Y-15506936D01*
X7339229Y-15525984D02*
X7377325Y-15525984D01*
X7377325Y-15525984D02*
X7396372Y-15516460D01*
X7396372Y-15516460D02*
X7405896Y-15506936D01*
X7405896Y-15506936D02*
X7424944Y-15478365D01*
X7424944Y-15478365D02*
X7434467Y-15440269D01*
X7434467Y-15440269D02*
X7434467Y-15364079D01*
X7434467Y-15364079D02*
X7424944Y-15345031D01*
X7424944Y-15345031D02*
X7415420Y-15335508D01*
X7415420Y-15335508D02*
X7396372Y-15325984D01*
X7396372Y-15325984D02*
X7358277Y-15325984D01*
X7358277Y-15325984D02*
X7339229Y-15335508D01*
X7339229Y-15335508D02*
X7329706Y-15345031D01*
X7329706Y-15345031D02*
X7320182Y-15364079D01*
X7320182Y-15364079D02*
X7320182Y-15411698D01*
X7320182Y-15411698D02*
X7329706Y-15430746D01*
X7329706Y-15430746D02*
X7339229Y-15440269D01*
X7339229Y-15440269D02*
X7358277Y-15449793D01*
X7358277Y-15449793D02*
X7396372Y-15449793D01*
X7396372Y-15449793D02*
X7415420Y-15440269D01*
X7415420Y-15440269D02*
X7424944Y-15430746D01*
X7424944Y-15430746D02*
X7434467Y-15411698D01*
X7605896Y-15392650D02*
X7605896Y-15525984D01*
X7558277Y-15316460D02*
X7510658Y-15459317D01*
X7510658Y-15459317D02*
X7634467Y-15459317D01*
X7701134Y-15325984D02*
X7701134Y-15364079D01*
X7777325Y-15325984D02*
X7777325Y-15364079D01*
X8072563Y-15602174D02*
X8063039Y-15592650D01*
X8063039Y-15592650D02*
X8043991Y-15564079D01*
X8043991Y-15564079D02*
X8034468Y-15545031D01*
X8034468Y-15545031D02*
X8024944Y-15516460D01*
X8024944Y-15516460D02*
X8015420Y-15468841D01*
X8015420Y-15468841D02*
X8015420Y-15430746D01*
X8015420Y-15430746D02*
X8024944Y-15383127D01*
X8024944Y-15383127D02*
X8034468Y-15354555D01*
X8034468Y-15354555D02*
X8043991Y-15335508D01*
X8043991Y-15335508D02*
X8063039Y-15306936D01*
X8063039Y-15306936D02*
X8072563Y-15297412D01*
X8158277Y-15525984D02*
X8196372Y-15525984D01*
X8196372Y-15525984D02*
X8215420Y-15516460D01*
X8215420Y-15516460D02*
X8224944Y-15506936D01*
X8224944Y-15506936D02*
X8243991Y-15478365D01*
X8243991Y-15478365D02*
X8253515Y-15440269D01*
X8253515Y-15440269D02*
X8253515Y-15364079D01*
X8253515Y-15364079D02*
X8243991Y-15345031D01*
X8243991Y-15345031D02*
X8234468Y-15335508D01*
X8234468Y-15335508D02*
X8215420Y-15325984D01*
X8215420Y-15325984D02*
X8177325Y-15325984D01*
X8177325Y-15325984D02*
X8158277Y-15335508D01*
X8158277Y-15335508D02*
X8148753Y-15345031D01*
X8148753Y-15345031D02*
X8139229Y-15364079D01*
X8139229Y-15364079D02*
X8139229Y-15411698D01*
X8139229Y-15411698D02*
X8148753Y-15430746D01*
X8148753Y-15430746D02*
X8158277Y-15440269D01*
X8158277Y-15440269D02*
X8177325Y-15449793D01*
X8177325Y-15449793D02*
X8215420Y-15449793D01*
X8215420Y-15449793D02*
X8234468Y-15440269D01*
X8234468Y-15440269D02*
X8243991Y-15430746D01*
X8243991Y-15430746D02*
X8253515Y-15411698D01*
X8491611Y-15525984D02*
X8491611Y-15325984D01*
X8577325Y-15525984D02*
X8577325Y-15421222D01*
X8577325Y-15421222D02*
X8567801Y-15402174D01*
X8567801Y-15402174D02*
X8548753Y-15392650D01*
X8548753Y-15392650D02*
X8520182Y-15392650D01*
X8520182Y-15392650D02*
X8501134Y-15402174D01*
X8501134Y-15402174D02*
X8491611Y-15411698D01*
X8701134Y-15525984D02*
X8682087Y-15516460D01*
X8682087Y-15516460D02*
X8672563Y-15506936D01*
X8672563Y-15506936D02*
X8663039Y-15487888D01*
X8663039Y-15487888D02*
X8663039Y-15430746D01*
X8663039Y-15430746D02*
X8672563Y-15411698D01*
X8672563Y-15411698D02*
X8682087Y-15402174D01*
X8682087Y-15402174D02*
X8701134Y-15392650D01*
X8701134Y-15392650D02*
X8729706Y-15392650D01*
X8729706Y-15392650D02*
X8748753Y-15402174D01*
X8748753Y-15402174D02*
X8758277Y-15411698D01*
X8758277Y-15411698D02*
X8767801Y-15430746D01*
X8767801Y-15430746D02*
X8767801Y-15487888D01*
X8767801Y-15487888D02*
X8758277Y-15506936D01*
X8758277Y-15506936D02*
X8748753Y-15516460D01*
X8748753Y-15516460D02*
X8729706Y-15525984D01*
X8729706Y-15525984D02*
X8701134Y-15525984D01*
X8882087Y-15525984D02*
X8863039Y-15516460D01*
X8863039Y-15516460D02*
X8853515Y-15497412D01*
X8853515Y-15497412D02*
X8853515Y-15325984D01*
X9034468Y-15516460D02*
X9015420Y-15525984D01*
X9015420Y-15525984D02*
X8977325Y-15525984D01*
X8977325Y-15525984D02*
X8958277Y-15516460D01*
X8958277Y-15516460D02*
X8948753Y-15497412D01*
X8948753Y-15497412D02*
X8948753Y-15421222D01*
X8948753Y-15421222D02*
X8958277Y-15402174D01*
X8958277Y-15402174D02*
X8977325Y-15392650D01*
X8977325Y-15392650D02*
X9015420Y-15392650D01*
X9015420Y-15392650D02*
X9034468Y-15402174D01*
X9034468Y-15402174D02*
X9043992Y-15421222D01*
X9043992Y-15421222D02*
X9043992Y-15440269D01*
X9043992Y-15440269D02*
X8948753Y-15459317D01*
X9120182Y-15516460D02*
X9139230Y-15525984D01*
X9139230Y-15525984D02*
X9177325Y-15525984D01*
X9177325Y-15525984D02*
X9196373Y-15516460D01*
X9196373Y-15516460D02*
X9205896Y-15497412D01*
X9205896Y-15497412D02*
X9205896Y-15487888D01*
X9205896Y-15487888D02*
X9196373Y-15468841D01*
X9196373Y-15468841D02*
X9177325Y-15459317D01*
X9177325Y-15459317D02*
X9148753Y-15459317D01*
X9148753Y-15459317D02*
X9129706Y-15449793D01*
X9129706Y-15449793D02*
X9120182Y-15430746D01*
X9120182Y-15430746D02*
X9120182Y-15421222D01*
X9120182Y-15421222D02*
X9129706Y-15402174D01*
X9129706Y-15402174D02*
X9148753Y-15392650D01*
X9148753Y-15392650D02*
X9177325Y-15392650D01*
X9177325Y-15392650D02*
X9196373Y-15402174D01*
X9272563Y-15602174D02*
X9282087Y-15592650D01*
X9282087Y-15592650D02*
X9301134Y-15564079D01*
X9301134Y-15564079D02*
X9310658Y-15545031D01*
X9310658Y-15545031D02*
X9320182Y-15516460D01*
X9320182Y-15516460D02*
X9329706Y-15468841D01*
X9329706Y-15468841D02*
X9329706Y-15430746D01*
X9329706Y-15430746D02*
X9320182Y-15383127D01*
X9320182Y-15383127D02*
X9310658Y-15354555D01*
X9310658Y-15354555D02*
X9301134Y-15335508D01*
X9301134Y-15335508D02*
X9282087Y-15306936D01*
X9282087Y-15306936D02*
X9272563Y-15297412D01*
D13*
X4446500Y-15749500D02*
X4497500Y-15698500D01*
X4446500Y-15647500D01*
X4395500Y-15698500D01*
X4446500Y-15749500D01*
D11*
X4863039Y-15789984D02*
X4748753Y-15789984D01*
X4805896Y-15789984D02*
X4805896Y-15589984D01*
X4805896Y-15589984D02*
X4786848Y-15618555D01*
X4786848Y-15618555D02*
X4767801Y-15637603D01*
X4767801Y-15637603D02*
X4748753Y-15647127D01*
X4948753Y-15770936D02*
X4958277Y-15780460D01*
X4958277Y-15780460D02*
X4948753Y-15789984D01*
X4948753Y-15789984D02*
X4939229Y-15780460D01*
X4939229Y-15780460D02*
X4948753Y-15770936D01*
X4948753Y-15770936D02*
X4948753Y-15789984D01*
X5082086Y-15589984D02*
X5101134Y-15589984D01*
X5101134Y-15589984D02*
X5120182Y-15599508D01*
X5120182Y-15599508D02*
X5129705Y-15609031D01*
X5129705Y-15609031D02*
X5139229Y-15628079D01*
X5139229Y-15628079D02*
X5148753Y-15666174D01*
X5148753Y-15666174D02*
X5148753Y-15713793D01*
X5148753Y-15713793D02*
X5139229Y-15751888D01*
X5139229Y-15751888D02*
X5129705Y-15770936D01*
X5129705Y-15770936D02*
X5120182Y-15780460D01*
X5120182Y-15780460D02*
X5101134Y-15789984D01*
X5101134Y-15789984D02*
X5082086Y-15789984D01*
X5082086Y-15789984D02*
X5063039Y-15780460D01*
X5063039Y-15780460D02*
X5053515Y-15770936D01*
X5053515Y-15770936D02*
X5043991Y-15751888D01*
X5043991Y-15751888D02*
X5034467Y-15713793D01*
X5034467Y-15713793D02*
X5034467Y-15666174D01*
X5034467Y-15666174D02*
X5043991Y-15628079D01*
X5043991Y-15628079D02*
X5053515Y-15609031D01*
X5053515Y-15609031D02*
X5063039Y-15599508D01*
X5063039Y-15599508D02*
X5082086Y-15589984D01*
X5224944Y-15609031D02*
X5234467Y-15599508D01*
X5234467Y-15599508D02*
X5253515Y-15589984D01*
X5253515Y-15589984D02*
X5301134Y-15589984D01*
X5301134Y-15589984D02*
X5320182Y-15599508D01*
X5320182Y-15599508D02*
X5329705Y-15609031D01*
X5329705Y-15609031D02*
X5339229Y-15628079D01*
X5339229Y-15628079D02*
X5339229Y-15647127D01*
X5339229Y-15647127D02*
X5329705Y-15675698D01*
X5329705Y-15675698D02*
X5215420Y-15789984D01*
X5215420Y-15789984D02*
X5339229Y-15789984D01*
X5463039Y-15589984D02*
X5482086Y-15589984D01*
X5482086Y-15589984D02*
X5501134Y-15599508D01*
X5501134Y-15599508D02*
X5510658Y-15609031D01*
X5510658Y-15609031D02*
X5520182Y-15628079D01*
X5520182Y-15628079D02*
X5529705Y-15666174D01*
X5529705Y-15666174D02*
X5529705Y-15713793D01*
X5529705Y-15713793D02*
X5520182Y-15751888D01*
X5520182Y-15751888D02*
X5510658Y-15770936D01*
X5510658Y-15770936D02*
X5501134Y-15780460D01*
X5501134Y-15780460D02*
X5482086Y-15789984D01*
X5482086Y-15789984D02*
X5463039Y-15789984D01*
X5463039Y-15789984D02*
X5443991Y-15780460D01*
X5443991Y-15780460D02*
X5434467Y-15770936D01*
X5434467Y-15770936D02*
X5424944Y-15751888D01*
X5424944Y-15751888D02*
X5415420Y-15713793D01*
X5415420Y-15713793D02*
X5415420Y-15666174D01*
X5415420Y-15666174D02*
X5424944Y-15628079D01*
X5424944Y-15628079D02*
X5434467Y-15609031D01*
X5434467Y-15609031D02*
X5443991Y-15599508D01*
X5443991Y-15599508D02*
X5463039Y-15589984D01*
X5615420Y-15789984D02*
X5615420Y-15656650D01*
X5615420Y-15675698D02*
X5624943Y-15666174D01*
X5624943Y-15666174D02*
X5643991Y-15656650D01*
X5643991Y-15656650D02*
X5672563Y-15656650D01*
X5672563Y-15656650D02*
X5691610Y-15666174D01*
X5691610Y-15666174D02*
X5701134Y-15685222D01*
X5701134Y-15685222D02*
X5701134Y-15789984D01*
X5701134Y-15685222D02*
X5710658Y-15666174D01*
X5710658Y-15666174D02*
X5729705Y-15656650D01*
X5729705Y-15656650D02*
X5758277Y-15656650D01*
X5758277Y-15656650D02*
X5777324Y-15666174D01*
X5777324Y-15666174D02*
X5786848Y-15685222D01*
X5786848Y-15685222D02*
X5786848Y-15789984D01*
X5882086Y-15789984D02*
X5882086Y-15656650D01*
X5882086Y-15675698D02*
X5891610Y-15666174D01*
X5891610Y-15666174D02*
X5910658Y-15656650D01*
X5910658Y-15656650D02*
X5939229Y-15656650D01*
X5939229Y-15656650D02*
X5958277Y-15666174D01*
X5958277Y-15666174D02*
X5967801Y-15685222D01*
X5967801Y-15685222D02*
X5967801Y-15789984D01*
X5967801Y-15685222D02*
X5977324Y-15666174D01*
X5977324Y-15666174D02*
X5996372Y-15656650D01*
X5996372Y-15656650D02*
X6024943Y-15656650D01*
X6024943Y-15656650D02*
X6043991Y-15666174D01*
X6043991Y-15666174D02*
X6053515Y-15685222D01*
X6053515Y-15685222D02*
X6053515Y-15789984D01*
X6443991Y-15580460D02*
X6272563Y-15837603D01*
X6701134Y-15589984D02*
X6720182Y-15589984D01*
X6720182Y-15589984D02*
X6739229Y-15599508D01*
X6739229Y-15599508D02*
X6748753Y-15609031D01*
X6748753Y-15609031D02*
X6758277Y-15628079D01*
X6758277Y-15628079D02*
X6767801Y-15666174D01*
X6767801Y-15666174D02*
X6767801Y-15713793D01*
X6767801Y-15713793D02*
X6758277Y-15751888D01*
X6758277Y-15751888D02*
X6748753Y-15770936D01*
X6748753Y-15770936D02*
X6739229Y-15780460D01*
X6739229Y-15780460D02*
X6720182Y-15789984D01*
X6720182Y-15789984D02*
X6701134Y-15789984D01*
X6701134Y-15789984D02*
X6682086Y-15780460D01*
X6682086Y-15780460D02*
X6672563Y-15770936D01*
X6672563Y-15770936D02*
X6663039Y-15751888D01*
X6663039Y-15751888D02*
X6653515Y-15713793D01*
X6653515Y-15713793D02*
X6653515Y-15666174D01*
X6653515Y-15666174D02*
X6663039Y-15628079D01*
X6663039Y-15628079D02*
X6672563Y-15609031D01*
X6672563Y-15609031D02*
X6682086Y-15599508D01*
X6682086Y-15599508D02*
X6701134Y-15589984D01*
X6853515Y-15770936D02*
X6863039Y-15780460D01*
X6863039Y-15780460D02*
X6853515Y-15789984D01*
X6853515Y-15789984D02*
X6843991Y-15780460D01*
X6843991Y-15780460D02*
X6853515Y-15770936D01*
X6853515Y-15770936D02*
X6853515Y-15789984D01*
X6986848Y-15589984D02*
X7005896Y-15589984D01*
X7005896Y-15589984D02*
X7024944Y-15599508D01*
X7024944Y-15599508D02*
X7034467Y-15609031D01*
X7034467Y-15609031D02*
X7043991Y-15628079D01*
X7043991Y-15628079D02*
X7053515Y-15666174D01*
X7053515Y-15666174D02*
X7053515Y-15713793D01*
X7053515Y-15713793D02*
X7043991Y-15751888D01*
X7043991Y-15751888D02*
X7034467Y-15770936D01*
X7034467Y-15770936D02*
X7024944Y-15780460D01*
X7024944Y-15780460D02*
X7005896Y-15789984D01*
X7005896Y-15789984D02*
X6986848Y-15789984D01*
X6986848Y-15789984D02*
X6967801Y-15780460D01*
X6967801Y-15780460D02*
X6958277Y-15770936D01*
X6958277Y-15770936D02*
X6948753Y-15751888D01*
X6948753Y-15751888D02*
X6939229Y-15713793D01*
X6939229Y-15713793D02*
X6939229Y-15666174D01*
X6939229Y-15666174D02*
X6948753Y-15628079D01*
X6948753Y-15628079D02*
X6958277Y-15609031D01*
X6958277Y-15609031D02*
X6967801Y-15599508D01*
X6967801Y-15599508D02*
X6986848Y-15589984D01*
X7224944Y-15656650D02*
X7224944Y-15789984D01*
X7177325Y-15580460D02*
X7129706Y-15723317D01*
X7129706Y-15723317D02*
X7253515Y-15723317D01*
X7367801Y-15589984D02*
X7386848Y-15589984D01*
X7386848Y-15589984D02*
X7405896Y-15599508D01*
X7405896Y-15599508D02*
X7415420Y-15609031D01*
X7415420Y-15609031D02*
X7424944Y-15628079D01*
X7424944Y-15628079D02*
X7434467Y-15666174D01*
X7434467Y-15666174D02*
X7434467Y-15713793D01*
X7434467Y-15713793D02*
X7424944Y-15751888D01*
X7424944Y-15751888D02*
X7415420Y-15770936D01*
X7415420Y-15770936D02*
X7405896Y-15780460D01*
X7405896Y-15780460D02*
X7386848Y-15789984D01*
X7386848Y-15789984D02*
X7367801Y-15789984D01*
X7367801Y-15789984D02*
X7348753Y-15780460D01*
X7348753Y-15780460D02*
X7339229Y-15770936D01*
X7339229Y-15770936D02*
X7329706Y-15751888D01*
X7329706Y-15751888D02*
X7320182Y-15713793D01*
X7320182Y-15713793D02*
X7320182Y-15666174D01*
X7320182Y-15666174D02*
X7329706Y-15628079D01*
X7329706Y-15628079D02*
X7339229Y-15609031D01*
X7339229Y-15609031D02*
X7348753Y-15599508D01*
X7348753Y-15599508D02*
X7367801Y-15589984D01*
X7510658Y-15609031D02*
X7520182Y-15599508D01*
X7520182Y-15599508D02*
X7539229Y-15589984D01*
X7539229Y-15589984D02*
X7586848Y-15589984D01*
X7586848Y-15589984D02*
X7605896Y-15599508D01*
X7605896Y-15599508D02*
X7615420Y-15609031D01*
X7615420Y-15609031D02*
X7624944Y-15628079D01*
X7624944Y-15628079D02*
X7624944Y-15647127D01*
X7624944Y-15647127D02*
X7615420Y-15675698D01*
X7615420Y-15675698D02*
X7501134Y-15789984D01*
X7501134Y-15789984D02*
X7624944Y-15789984D01*
X7701134Y-15589984D02*
X7701134Y-15628079D01*
X7777325Y-15589984D02*
X7777325Y-15628079D01*
X8072563Y-15866174D02*
X8063039Y-15856650D01*
X8063039Y-15856650D02*
X8043991Y-15828079D01*
X8043991Y-15828079D02*
X8034468Y-15809031D01*
X8034468Y-15809031D02*
X8024944Y-15780460D01*
X8024944Y-15780460D02*
X8015420Y-15732841D01*
X8015420Y-15732841D02*
X8015420Y-15694746D01*
X8015420Y-15694746D02*
X8024944Y-15647127D01*
X8024944Y-15647127D02*
X8034468Y-15618555D01*
X8034468Y-15618555D02*
X8043991Y-15599508D01*
X8043991Y-15599508D02*
X8063039Y-15570936D01*
X8063039Y-15570936D02*
X8072563Y-15561412D01*
X8234468Y-15656650D02*
X8234468Y-15789984D01*
X8186848Y-15580460D02*
X8139229Y-15723317D01*
X8139229Y-15723317D02*
X8263039Y-15723317D01*
X8491611Y-15789984D02*
X8491611Y-15589984D01*
X8577325Y-15789984D02*
X8577325Y-15685222D01*
X8577325Y-15685222D02*
X8567801Y-15666174D01*
X8567801Y-15666174D02*
X8548753Y-15656650D01*
X8548753Y-15656650D02*
X8520182Y-15656650D01*
X8520182Y-15656650D02*
X8501134Y-15666174D01*
X8501134Y-15666174D02*
X8491611Y-15675698D01*
X8701134Y-15789984D02*
X8682087Y-15780460D01*
X8682087Y-15780460D02*
X8672563Y-15770936D01*
X8672563Y-15770936D02*
X8663039Y-15751888D01*
X8663039Y-15751888D02*
X8663039Y-15694746D01*
X8663039Y-15694746D02*
X8672563Y-15675698D01*
X8672563Y-15675698D02*
X8682087Y-15666174D01*
X8682087Y-15666174D02*
X8701134Y-15656650D01*
X8701134Y-15656650D02*
X8729706Y-15656650D01*
X8729706Y-15656650D02*
X8748753Y-15666174D01*
X8748753Y-15666174D02*
X8758277Y-15675698D01*
X8758277Y-15675698D02*
X8767801Y-15694746D01*
X8767801Y-15694746D02*
X8767801Y-15751888D01*
X8767801Y-15751888D02*
X8758277Y-15770936D01*
X8758277Y-15770936D02*
X8748753Y-15780460D01*
X8748753Y-15780460D02*
X8729706Y-15789984D01*
X8729706Y-15789984D02*
X8701134Y-15789984D01*
X8882087Y-15789984D02*
X8863039Y-15780460D01*
X8863039Y-15780460D02*
X8853515Y-15761412D01*
X8853515Y-15761412D02*
X8853515Y-15589984D01*
X9034468Y-15780460D02*
X9015420Y-15789984D01*
X9015420Y-15789984D02*
X8977325Y-15789984D01*
X8977325Y-15789984D02*
X8958277Y-15780460D01*
X8958277Y-15780460D02*
X8948753Y-15761412D01*
X8948753Y-15761412D02*
X8948753Y-15685222D01*
X8948753Y-15685222D02*
X8958277Y-15666174D01*
X8958277Y-15666174D02*
X8977325Y-15656650D01*
X8977325Y-15656650D02*
X9015420Y-15656650D01*
X9015420Y-15656650D02*
X9034468Y-15666174D01*
X9034468Y-15666174D02*
X9043992Y-15685222D01*
X9043992Y-15685222D02*
X9043992Y-15704269D01*
X9043992Y-15704269D02*
X8948753Y-15723317D01*
X9120182Y-15780460D02*
X9139230Y-15789984D01*
X9139230Y-15789984D02*
X9177325Y-15789984D01*
X9177325Y-15789984D02*
X9196373Y-15780460D01*
X9196373Y-15780460D02*
X9205896Y-15761412D01*
X9205896Y-15761412D02*
X9205896Y-15751888D01*
X9205896Y-15751888D02*
X9196373Y-15732841D01*
X9196373Y-15732841D02*
X9177325Y-15723317D01*
X9177325Y-15723317D02*
X9148753Y-15723317D01*
X9148753Y-15723317D02*
X9129706Y-15713793D01*
X9129706Y-15713793D02*
X9120182Y-15694746D01*
X9120182Y-15694746D02*
X9120182Y-15685222D01*
X9120182Y-15685222D02*
X9129706Y-15666174D01*
X9129706Y-15666174D02*
X9148753Y-15656650D01*
X9148753Y-15656650D02*
X9177325Y-15656650D01*
X9177325Y-15656650D02*
X9196373Y-15666174D01*
X9272563Y-15866174D02*
X9282087Y-15856650D01*
X9282087Y-15856650D02*
X9301134Y-15828079D01*
X9301134Y-15828079D02*
X9310658Y-15809031D01*
X9310658Y-15809031D02*
X9320182Y-15780460D01*
X9320182Y-15780460D02*
X9329706Y-15732841D01*
X9329706Y-15732841D02*
X9329706Y-15694746D01*
X9329706Y-15694746D02*
X9320182Y-15647127D01*
X9320182Y-15647127D02*
X9310658Y-15618555D01*
X9310658Y-15618555D02*
X9301134Y-15599508D01*
X9301134Y-15599508D02*
X9282087Y-15570936D01*
X9282087Y-15570936D02*
X9272563Y-15561412D01*
D14*
X4347500Y-15887500D02*
X4497500Y-16037500D01*
X4497500Y-15887500D02*
X4347500Y-16037500D01*
X4497500Y-15962500D02*
G75*
G02*
X4347500Y-15962500I-75000J0D01*
G01*
X4347500Y-15962500D02*
G75*
G02*
X4497500Y-15962500I75000J0D01*
G01*
D11*
X4863039Y-16053984D02*
X4748753Y-16053984D01*
X4805896Y-16053984D02*
X4805896Y-15853984D01*
X4805896Y-15853984D02*
X4786848Y-15882555D01*
X4786848Y-15882555D02*
X4767801Y-15901603D01*
X4767801Y-15901603D02*
X4748753Y-15911127D01*
X4948753Y-16034936D02*
X4958277Y-16044460D01*
X4958277Y-16044460D02*
X4948753Y-16053984D01*
X4948753Y-16053984D02*
X4939229Y-16044460D01*
X4939229Y-16044460D02*
X4948753Y-16034936D01*
X4948753Y-16034936D02*
X4948753Y-16053984D01*
X5139229Y-15853984D02*
X5043991Y-15853984D01*
X5043991Y-15853984D02*
X5034467Y-15949222D01*
X5034467Y-15949222D02*
X5043991Y-15939698D01*
X5043991Y-15939698D02*
X5063039Y-15930174D01*
X5063039Y-15930174D02*
X5110658Y-15930174D01*
X5110658Y-15930174D02*
X5129705Y-15939698D01*
X5129705Y-15939698D02*
X5139229Y-15949222D01*
X5139229Y-15949222D02*
X5148753Y-15968269D01*
X5148753Y-15968269D02*
X5148753Y-16015888D01*
X5148753Y-16015888D02*
X5139229Y-16034936D01*
X5139229Y-16034936D02*
X5129705Y-16044460D01*
X5129705Y-16044460D02*
X5110658Y-16053984D01*
X5110658Y-16053984D02*
X5063039Y-16053984D01*
X5063039Y-16053984D02*
X5043991Y-16044460D01*
X5043991Y-16044460D02*
X5034467Y-16034936D01*
X5272563Y-15853984D02*
X5291610Y-15853984D01*
X5291610Y-15853984D02*
X5310658Y-15863508D01*
X5310658Y-15863508D02*
X5320182Y-15873031D01*
X5320182Y-15873031D02*
X5329705Y-15892079D01*
X5329705Y-15892079D02*
X5339229Y-15930174D01*
X5339229Y-15930174D02*
X5339229Y-15977793D01*
X5339229Y-15977793D02*
X5329705Y-16015888D01*
X5329705Y-16015888D02*
X5320182Y-16034936D01*
X5320182Y-16034936D02*
X5310658Y-16044460D01*
X5310658Y-16044460D02*
X5291610Y-16053984D01*
X5291610Y-16053984D02*
X5272563Y-16053984D01*
X5272563Y-16053984D02*
X5253515Y-16044460D01*
X5253515Y-16044460D02*
X5243991Y-16034936D01*
X5243991Y-16034936D02*
X5234467Y-16015888D01*
X5234467Y-16015888D02*
X5224944Y-15977793D01*
X5224944Y-15977793D02*
X5224944Y-15930174D01*
X5224944Y-15930174D02*
X5234467Y-15892079D01*
X5234467Y-15892079D02*
X5243991Y-15873031D01*
X5243991Y-15873031D02*
X5253515Y-15863508D01*
X5253515Y-15863508D02*
X5272563Y-15853984D01*
X5463039Y-15853984D02*
X5482086Y-15853984D01*
X5482086Y-15853984D02*
X5501134Y-15863508D01*
X5501134Y-15863508D02*
X5510658Y-15873031D01*
X5510658Y-15873031D02*
X5520182Y-15892079D01*
X5520182Y-15892079D02*
X5529705Y-15930174D01*
X5529705Y-15930174D02*
X5529705Y-15977793D01*
X5529705Y-15977793D02*
X5520182Y-16015888D01*
X5520182Y-16015888D02*
X5510658Y-16034936D01*
X5510658Y-16034936D02*
X5501134Y-16044460D01*
X5501134Y-16044460D02*
X5482086Y-16053984D01*
X5482086Y-16053984D02*
X5463039Y-16053984D01*
X5463039Y-16053984D02*
X5443991Y-16044460D01*
X5443991Y-16044460D02*
X5434467Y-16034936D01*
X5434467Y-16034936D02*
X5424944Y-16015888D01*
X5424944Y-16015888D02*
X5415420Y-15977793D01*
X5415420Y-15977793D02*
X5415420Y-15930174D01*
X5415420Y-15930174D02*
X5424944Y-15892079D01*
X5424944Y-15892079D02*
X5434467Y-15873031D01*
X5434467Y-15873031D02*
X5443991Y-15863508D01*
X5443991Y-15863508D02*
X5463039Y-15853984D01*
X5615420Y-16053984D02*
X5615420Y-15920650D01*
X5615420Y-15939698D02*
X5624943Y-15930174D01*
X5624943Y-15930174D02*
X5643991Y-15920650D01*
X5643991Y-15920650D02*
X5672563Y-15920650D01*
X5672563Y-15920650D02*
X5691610Y-15930174D01*
X5691610Y-15930174D02*
X5701134Y-15949222D01*
X5701134Y-15949222D02*
X5701134Y-16053984D01*
X5701134Y-15949222D02*
X5710658Y-15930174D01*
X5710658Y-15930174D02*
X5729705Y-15920650D01*
X5729705Y-15920650D02*
X5758277Y-15920650D01*
X5758277Y-15920650D02*
X5777324Y-15930174D01*
X5777324Y-15930174D02*
X5786848Y-15949222D01*
X5786848Y-15949222D02*
X5786848Y-16053984D01*
X5882086Y-16053984D02*
X5882086Y-15920650D01*
X5882086Y-15939698D02*
X5891610Y-15930174D01*
X5891610Y-15930174D02*
X5910658Y-15920650D01*
X5910658Y-15920650D02*
X5939229Y-15920650D01*
X5939229Y-15920650D02*
X5958277Y-15930174D01*
X5958277Y-15930174D02*
X5967801Y-15949222D01*
X5967801Y-15949222D02*
X5967801Y-16053984D01*
X5967801Y-15949222D02*
X5977324Y-15930174D01*
X5977324Y-15930174D02*
X5996372Y-15920650D01*
X5996372Y-15920650D02*
X6024943Y-15920650D01*
X6024943Y-15920650D02*
X6043991Y-15930174D01*
X6043991Y-15930174D02*
X6053515Y-15949222D01*
X6053515Y-15949222D02*
X6053515Y-16053984D01*
X6443991Y-15844460D02*
X6272563Y-16101603D01*
X6701134Y-15853984D02*
X6720182Y-15853984D01*
X6720182Y-15853984D02*
X6739229Y-15863508D01*
X6739229Y-15863508D02*
X6748753Y-15873031D01*
X6748753Y-15873031D02*
X6758277Y-15892079D01*
X6758277Y-15892079D02*
X6767801Y-15930174D01*
X6767801Y-15930174D02*
X6767801Y-15977793D01*
X6767801Y-15977793D02*
X6758277Y-16015888D01*
X6758277Y-16015888D02*
X6748753Y-16034936D01*
X6748753Y-16034936D02*
X6739229Y-16044460D01*
X6739229Y-16044460D02*
X6720182Y-16053984D01*
X6720182Y-16053984D02*
X6701134Y-16053984D01*
X6701134Y-16053984D02*
X6682086Y-16044460D01*
X6682086Y-16044460D02*
X6672563Y-16034936D01*
X6672563Y-16034936D02*
X6663039Y-16015888D01*
X6663039Y-16015888D02*
X6653515Y-15977793D01*
X6653515Y-15977793D02*
X6653515Y-15930174D01*
X6653515Y-15930174D02*
X6663039Y-15892079D01*
X6663039Y-15892079D02*
X6672563Y-15873031D01*
X6672563Y-15873031D02*
X6682086Y-15863508D01*
X6682086Y-15863508D02*
X6701134Y-15853984D01*
X6853515Y-16034936D02*
X6863039Y-16044460D01*
X6863039Y-16044460D02*
X6853515Y-16053984D01*
X6853515Y-16053984D02*
X6843991Y-16044460D01*
X6843991Y-16044460D02*
X6853515Y-16034936D01*
X6853515Y-16034936D02*
X6853515Y-16053984D01*
X6986848Y-15853984D02*
X7005896Y-15853984D01*
X7005896Y-15853984D02*
X7024944Y-15863508D01*
X7024944Y-15863508D02*
X7034467Y-15873031D01*
X7034467Y-15873031D02*
X7043991Y-15892079D01*
X7043991Y-15892079D02*
X7053515Y-15930174D01*
X7053515Y-15930174D02*
X7053515Y-15977793D01*
X7053515Y-15977793D02*
X7043991Y-16015888D01*
X7043991Y-16015888D02*
X7034467Y-16034936D01*
X7034467Y-16034936D02*
X7024944Y-16044460D01*
X7024944Y-16044460D02*
X7005896Y-16053984D01*
X7005896Y-16053984D02*
X6986848Y-16053984D01*
X6986848Y-16053984D02*
X6967801Y-16044460D01*
X6967801Y-16044460D02*
X6958277Y-16034936D01*
X6958277Y-16034936D02*
X6948753Y-16015888D01*
X6948753Y-16015888D02*
X6939229Y-15977793D01*
X6939229Y-15977793D02*
X6939229Y-15930174D01*
X6939229Y-15930174D02*
X6948753Y-15892079D01*
X6948753Y-15892079D02*
X6958277Y-15873031D01*
X6958277Y-15873031D02*
X6967801Y-15863508D01*
X6967801Y-15863508D02*
X6986848Y-15853984D01*
X7234467Y-15853984D02*
X7139229Y-15853984D01*
X7139229Y-15853984D02*
X7129706Y-15949222D01*
X7129706Y-15949222D02*
X7139229Y-15939698D01*
X7139229Y-15939698D02*
X7158277Y-15930174D01*
X7158277Y-15930174D02*
X7205896Y-15930174D01*
X7205896Y-15930174D02*
X7224944Y-15939698D01*
X7224944Y-15939698D02*
X7234467Y-15949222D01*
X7234467Y-15949222D02*
X7243991Y-15968269D01*
X7243991Y-15968269D02*
X7243991Y-16015888D01*
X7243991Y-16015888D02*
X7234467Y-16034936D01*
X7234467Y-16034936D02*
X7224944Y-16044460D01*
X7224944Y-16044460D02*
X7205896Y-16053984D01*
X7205896Y-16053984D02*
X7158277Y-16053984D01*
X7158277Y-16053984D02*
X7139229Y-16044460D01*
X7139229Y-16044460D02*
X7129706Y-16034936D01*
X7339229Y-16053984D02*
X7377325Y-16053984D01*
X7377325Y-16053984D02*
X7396372Y-16044460D01*
X7396372Y-16044460D02*
X7405896Y-16034936D01*
X7405896Y-16034936D02*
X7424944Y-16006365D01*
X7424944Y-16006365D02*
X7434467Y-15968269D01*
X7434467Y-15968269D02*
X7434467Y-15892079D01*
X7434467Y-15892079D02*
X7424944Y-15873031D01*
X7424944Y-15873031D02*
X7415420Y-15863508D01*
X7415420Y-15863508D02*
X7396372Y-15853984D01*
X7396372Y-15853984D02*
X7358277Y-15853984D01*
X7358277Y-15853984D02*
X7339229Y-15863508D01*
X7339229Y-15863508D02*
X7329706Y-15873031D01*
X7329706Y-15873031D02*
X7320182Y-15892079D01*
X7320182Y-15892079D02*
X7320182Y-15939698D01*
X7320182Y-15939698D02*
X7329706Y-15958746D01*
X7329706Y-15958746D02*
X7339229Y-15968269D01*
X7339229Y-15968269D02*
X7358277Y-15977793D01*
X7358277Y-15977793D02*
X7396372Y-15977793D01*
X7396372Y-15977793D02*
X7415420Y-15968269D01*
X7415420Y-15968269D02*
X7424944Y-15958746D01*
X7424944Y-15958746D02*
X7434467Y-15939698D01*
X7624944Y-16053984D02*
X7510658Y-16053984D01*
X7567801Y-16053984D02*
X7567801Y-15853984D01*
X7567801Y-15853984D02*
X7548753Y-15882555D01*
X7548753Y-15882555D02*
X7529706Y-15901603D01*
X7529706Y-15901603D02*
X7510658Y-15911127D01*
X7701134Y-15853984D02*
X7701134Y-15892079D01*
X7777325Y-15853984D02*
X7777325Y-15892079D01*
X8072563Y-16130174D02*
X8063039Y-16120650D01*
X8063039Y-16120650D02*
X8043991Y-16092079D01*
X8043991Y-16092079D02*
X8034468Y-16073031D01*
X8034468Y-16073031D02*
X8024944Y-16044460D01*
X8024944Y-16044460D02*
X8015420Y-15996841D01*
X8015420Y-15996841D02*
X8015420Y-15958746D01*
X8015420Y-15958746D02*
X8024944Y-15911127D01*
X8024944Y-15911127D02*
X8034468Y-15882555D01*
X8034468Y-15882555D02*
X8043991Y-15863508D01*
X8043991Y-15863508D02*
X8063039Y-15834936D01*
X8063039Y-15834936D02*
X8072563Y-15825412D01*
X8139229Y-15873031D02*
X8148753Y-15863508D01*
X8148753Y-15863508D02*
X8167801Y-15853984D01*
X8167801Y-15853984D02*
X8215420Y-15853984D01*
X8215420Y-15853984D02*
X8234468Y-15863508D01*
X8234468Y-15863508D02*
X8243991Y-15873031D01*
X8243991Y-15873031D02*
X8253515Y-15892079D01*
X8253515Y-15892079D02*
X8253515Y-15911127D01*
X8253515Y-15911127D02*
X8243991Y-15939698D01*
X8243991Y-15939698D02*
X8129706Y-16053984D01*
X8129706Y-16053984D02*
X8253515Y-16053984D01*
X8491611Y-16053984D02*
X8491611Y-15853984D01*
X8577325Y-16053984D02*
X8577325Y-15949222D01*
X8577325Y-15949222D02*
X8567801Y-15930174D01*
X8567801Y-15930174D02*
X8548753Y-15920650D01*
X8548753Y-15920650D02*
X8520182Y-15920650D01*
X8520182Y-15920650D02*
X8501134Y-15930174D01*
X8501134Y-15930174D02*
X8491611Y-15939698D01*
X8701134Y-16053984D02*
X8682087Y-16044460D01*
X8682087Y-16044460D02*
X8672563Y-16034936D01*
X8672563Y-16034936D02*
X8663039Y-16015888D01*
X8663039Y-16015888D02*
X8663039Y-15958746D01*
X8663039Y-15958746D02*
X8672563Y-15939698D01*
X8672563Y-15939698D02*
X8682087Y-15930174D01*
X8682087Y-15930174D02*
X8701134Y-15920650D01*
X8701134Y-15920650D02*
X8729706Y-15920650D01*
X8729706Y-15920650D02*
X8748753Y-15930174D01*
X8748753Y-15930174D02*
X8758277Y-15939698D01*
X8758277Y-15939698D02*
X8767801Y-15958746D01*
X8767801Y-15958746D02*
X8767801Y-16015888D01*
X8767801Y-16015888D02*
X8758277Y-16034936D01*
X8758277Y-16034936D02*
X8748753Y-16044460D01*
X8748753Y-16044460D02*
X8729706Y-16053984D01*
X8729706Y-16053984D02*
X8701134Y-16053984D01*
X8882087Y-16053984D02*
X8863039Y-16044460D01*
X8863039Y-16044460D02*
X8853515Y-16025412D01*
X8853515Y-16025412D02*
X8853515Y-15853984D01*
X9034468Y-16044460D02*
X9015420Y-16053984D01*
X9015420Y-16053984D02*
X8977325Y-16053984D01*
X8977325Y-16053984D02*
X8958277Y-16044460D01*
X8958277Y-16044460D02*
X8948753Y-16025412D01*
X8948753Y-16025412D02*
X8948753Y-15949222D01*
X8948753Y-15949222D02*
X8958277Y-15930174D01*
X8958277Y-15930174D02*
X8977325Y-15920650D01*
X8977325Y-15920650D02*
X9015420Y-15920650D01*
X9015420Y-15920650D02*
X9034468Y-15930174D01*
X9034468Y-15930174D02*
X9043992Y-15949222D01*
X9043992Y-15949222D02*
X9043992Y-15968269D01*
X9043992Y-15968269D02*
X8948753Y-15987317D01*
X9120182Y-16044460D02*
X9139230Y-16053984D01*
X9139230Y-16053984D02*
X9177325Y-16053984D01*
X9177325Y-16053984D02*
X9196373Y-16044460D01*
X9196373Y-16044460D02*
X9205896Y-16025412D01*
X9205896Y-16025412D02*
X9205896Y-16015888D01*
X9205896Y-16015888D02*
X9196373Y-15996841D01*
X9196373Y-15996841D02*
X9177325Y-15987317D01*
X9177325Y-15987317D02*
X9148753Y-15987317D01*
X9148753Y-15987317D02*
X9129706Y-15977793D01*
X9129706Y-15977793D02*
X9120182Y-15958746D01*
X9120182Y-15958746D02*
X9120182Y-15949222D01*
X9120182Y-15949222D02*
X9129706Y-15930174D01*
X9129706Y-15930174D02*
X9148753Y-15920650D01*
X9148753Y-15920650D02*
X9177325Y-15920650D01*
X9177325Y-15920650D02*
X9196373Y-15930174D01*
X9272563Y-16130174D02*
X9282087Y-16120650D01*
X9282087Y-16120650D02*
X9301134Y-16092079D01*
X9301134Y-16092079D02*
X9310658Y-16073031D01*
X9310658Y-16073031D02*
X9320182Y-16044460D01*
X9320182Y-16044460D02*
X9329706Y-15996841D01*
X9329706Y-15996841D02*
X9329706Y-15958746D01*
X9329706Y-15958746D02*
X9320182Y-15911127D01*
X9320182Y-15911127D02*
X9310658Y-15882555D01*
X9310658Y-15882555D02*
X9301134Y-15863508D01*
X9301134Y-15863508D02*
X9282087Y-15834936D01*
X9282087Y-15834936D02*
X9272563Y-15825412D01*
D15*
X4337500Y-16152500D02*
X4497500Y-16312500D01*
X4497500Y-16152500D02*
X4337500Y-16312500D01*
X4417500Y-16152500D02*
X4417500Y-16312500D01*
X4337500Y-16232500D02*
X4497500Y-16232500D01*
D11*
X4863039Y-16323984D02*
X4748753Y-16323984D01*
X4805896Y-16323984D02*
X4805896Y-16123984D01*
X4805896Y-16123984D02*
X4786848Y-16152555D01*
X4786848Y-16152555D02*
X4767801Y-16171603D01*
X4767801Y-16171603D02*
X4748753Y-16181127D01*
X4948753Y-16304936D02*
X4958277Y-16314460D01*
X4958277Y-16314460D02*
X4948753Y-16323984D01*
X4948753Y-16323984D02*
X4939229Y-16314460D01*
X4939229Y-16314460D02*
X4948753Y-16304936D01*
X4948753Y-16304936D02*
X4948753Y-16323984D01*
X5129705Y-16123984D02*
X5091610Y-16123984D01*
X5091610Y-16123984D02*
X5072563Y-16133508D01*
X5072563Y-16133508D02*
X5063039Y-16143031D01*
X5063039Y-16143031D02*
X5043991Y-16171603D01*
X5043991Y-16171603D02*
X5034467Y-16209698D01*
X5034467Y-16209698D02*
X5034467Y-16285888D01*
X5034467Y-16285888D02*
X5043991Y-16304936D01*
X5043991Y-16304936D02*
X5053515Y-16314460D01*
X5053515Y-16314460D02*
X5072563Y-16323984D01*
X5072563Y-16323984D02*
X5110658Y-16323984D01*
X5110658Y-16323984D02*
X5129705Y-16314460D01*
X5129705Y-16314460D02*
X5139229Y-16304936D01*
X5139229Y-16304936D02*
X5148753Y-16285888D01*
X5148753Y-16285888D02*
X5148753Y-16238269D01*
X5148753Y-16238269D02*
X5139229Y-16219222D01*
X5139229Y-16219222D02*
X5129705Y-16209698D01*
X5129705Y-16209698D02*
X5110658Y-16200174D01*
X5110658Y-16200174D02*
X5072563Y-16200174D01*
X5072563Y-16200174D02*
X5053515Y-16209698D01*
X5053515Y-16209698D02*
X5043991Y-16219222D01*
X5043991Y-16219222D02*
X5034467Y-16238269D01*
X5272563Y-16123984D02*
X5291610Y-16123984D01*
X5291610Y-16123984D02*
X5310658Y-16133508D01*
X5310658Y-16133508D02*
X5320182Y-16143031D01*
X5320182Y-16143031D02*
X5329705Y-16162079D01*
X5329705Y-16162079D02*
X5339229Y-16200174D01*
X5339229Y-16200174D02*
X5339229Y-16247793D01*
X5339229Y-16247793D02*
X5329705Y-16285888D01*
X5329705Y-16285888D02*
X5320182Y-16304936D01*
X5320182Y-16304936D02*
X5310658Y-16314460D01*
X5310658Y-16314460D02*
X5291610Y-16323984D01*
X5291610Y-16323984D02*
X5272563Y-16323984D01*
X5272563Y-16323984D02*
X5253515Y-16314460D01*
X5253515Y-16314460D02*
X5243991Y-16304936D01*
X5243991Y-16304936D02*
X5234467Y-16285888D01*
X5234467Y-16285888D02*
X5224944Y-16247793D01*
X5224944Y-16247793D02*
X5224944Y-16200174D01*
X5224944Y-16200174D02*
X5234467Y-16162079D01*
X5234467Y-16162079D02*
X5243991Y-16143031D01*
X5243991Y-16143031D02*
X5253515Y-16133508D01*
X5253515Y-16133508D02*
X5272563Y-16123984D01*
X5463039Y-16123984D02*
X5482086Y-16123984D01*
X5482086Y-16123984D02*
X5501134Y-16133508D01*
X5501134Y-16133508D02*
X5510658Y-16143031D01*
X5510658Y-16143031D02*
X5520182Y-16162079D01*
X5520182Y-16162079D02*
X5529705Y-16200174D01*
X5529705Y-16200174D02*
X5529705Y-16247793D01*
X5529705Y-16247793D02*
X5520182Y-16285888D01*
X5520182Y-16285888D02*
X5510658Y-16304936D01*
X5510658Y-16304936D02*
X5501134Y-16314460D01*
X5501134Y-16314460D02*
X5482086Y-16323984D01*
X5482086Y-16323984D02*
X5463039Y-16323984D01*
X5463039Y-16323984D02*
X5443991Y-16314460D01*
X5443991Y-16314460D02*
X5434467Y-16304936D01*
X5434467Y-16304936D02*
X5424944Y-16285888D01*
X5424944Y-16285888D02*
X5415420Y-16247793D01*
X5415420Y-16247793D02*
X5415420Y-16200174D01*
X5415420Y-16200174D02*
X5424944Y-16162079D01*
X5424944Y-16162079D02*
X5434467Y-16143031D01*
X5434467Y-16143031D02*
X5443991Y-16133508D01*
X5443991Y-16133508D02*
X5463039Y-16123984D01*
X5615420Y-16323984D02*
X5615420Y-16190650D01*
X5615420Y-16209698D02*
X5624943Y-16200174D01*
X5624943Y-16200174D02*
X5643991Y-16190650D01*
X5643991Y-16190650D02*
X5672563Y-16190650D01*
X5672563Y-16190650D02*
X5691610Y-16200174D01*
X5691610Y-16200174D02*
X5701134Y-16219222D01*
X5701134Y-16219222D02*
X5701134Y-16323984D01*
X5701134Y-16219222D02*
X5710658Y-16200174D01*
X5710658Y-16200174D02*
X5729705Y-16190650D01*
X5729705Y-16190650D02*
X5758277Y-16190650D01*
X5758277Y-16190650D02*
X5777324Y-16200174D01*
X5777324Y-16200174D02*
X5786848Y-16219222D01*
X5786848Y-16219222D02*
X5786848Y-16323984D01*
X5882086Y-16323984D02*
X5882086Y-16190650D01*
X5882086Y-16209698D02*
X5891610Y-16200174D01*
X5891610Y-16200174D02*
X5910658Y-16190650D01*
X5910658Y-16190650D02*
X5939229Y-16190650D01*
X5939229Y-16190650D02*
X5958277Y-16200174D01*
X5958277Y-16200174D02*
X5967801Y-16219222D01*
X5967801Y-16219222D02*
X5967801Y-16323984D01*
X5967801Y-16219222D02*
X5977324Y-16200174D01*
X5977324Y-16200174D02*
X5996372Y-16190650D01*
X5996372Y-16190650D02*
X6024943Y-16190650D01*
X6024943Y-16190650D02*
X6043991Y-16200174D01*
X6043991Y-16200174D02*
X6053515Y-16219222D01*
X6053515Y-16219222D02*
X6053515Y-16323984D01*
X6443991Y-16114460D02*
X6272563Y-16371603D01*
X6701134Y-16123984D02*
X6720182Y-16123984D01*
X6720182Y-16123984D02*
X6739229Y-16133508D01*
X6739229Y-16133508D02*
X6748753Y-16143031D01*
X6748753Y-16143031D02*
X6758277Y-16162079D01*
X6758277Y-16162079D02*
X6767801Y-16200174D01*
X6767801Y-16200174D02*
X6767801Y-16247793D01*
X6767801Y-16247793D02*
X6758277Y-16285888D01*
X6758277Y-16285888D02*
X6748753Y-16304936D01*
X6748753Y-16304936D02*
X6739229Y-16314460D01*
X6739229Y-16314460D02*
X6720182Y-16323984D01*
X6720182Y-16323984D02*
X6701134Y-16323984D01*
X6701134Y-16323984D02*
X6682086Y-16314460D01*
X6682086Y-16314460D02*
X6672563Y-16304936D01*
X6672563Y-16304936D02*
X6663039Y-16285888D01*
X6663039Y-16285888D02*
X6653515Y-16247793D01*
X6653515Y-16247793D02*
X6653515Y-16200174D01*
X6653515Y-16200174D02*
X6663039Y-16162079D01*
X6663039Y-16162079D02*
X6672563Y-16143031D01*
X6672563Y-16143031D02*
X6682086Y-16133508D01*
X6682086Y-16133508D02*
X6701134Y-16123984D01*
X6853515Y-16304936D02*
X6863039Y-16314460D01*
X6863039Y-16314460D02*
X6853515Y-16323984D01*
X6853515Y-16323984D02*
X6843991Y-16314460D01*
X6843991Y-16314460D02*
X6853515Y-16304936D01*
X6853515Y-16304936D02*
X6853515Y-16323984D01*
X6986848Y-16123984D02*
X7005896Y-16123984D01*
X7005896Y-16123984D02*
X7024944Y-16133508D01*
X7024944Y-16133508D02*
X7034467Y-16143031D01*
X7034467Y-16143031D02*
X7043991Y-16162079D01*
X7043991Y-16162079D02*
X7053515Y-16200174D01*
X7053515Y-16200174D02*
X7053515Y-16247793D01*
X7053515Y-16247793D02*
X7043991Y-16285888D01*
X7043991Y-16285888D02*
X7034467Y-16304936D01*
X7034467Y-16304936D02*
X7024944Y-16314460D01*
X7024944Y-16314460D02*
X7005896Y-16323984D01*
X7005896Y-16323984D02*
X6986848Y-16323984D01*
X6986848Y-16323984D02*
X6967801Y-16314460D01*
X6967801Y-16314460D02*
X6958277Y-16304936D01*
X6958277Y-16304936D02*
X6948753Y-16285888D01*
X6948753Y-16285888D02*
X6939229Y-16247793D01*
X6939229Y-16247793D02*
X6939229Y-16200174D01*
X6939229Y-16200174D02*
X6948753Y-16162079D01*
X6948753Y-16162079D02*
X6958277Y-16143031D01*
X6958277Y-16143031D02*
X6967801Y-16133508D01*
X6967801Y-16133508D02*
X6986848Y-16123984D01*
X7224944Y-16123984D02*
X7186848Y-16123984D01*
X7186848Y-16123984D02*
X7167801Y-16133508D01*
X7167801Y-16133508D02*
X7158277Y-16143031D01*
X7158277Y-16143031D02*
X7139229Y-16171603D01*
X7139229Y-16171603D02*
X7129706Y-16209698D01*
X7129706Y-16209698D02*
X7129706Y-16285888D01*
X7129706Y-16285888D02*
X7139229Y-16304936D01*
X7139229Y-16304936D02*
X7148753Y-16314460D01*
X7148753Y-16314460D02*
X7167801Y-16323984D01*
X7167801Y-16323984D02*
X7205896Y-16323984D01*
X7205896Y-16323984D02*
X7224944Y-16314460D01*
X7224944Y-16314460D02*
X7234467Y-16304936D01*
X7234467Y-16304936D02*
X7243991Y-16285888D01*
X7243991Y-16285888D02*
X7243991Y-16238269D01*
X7243991Y-16238269D02*
X7234467Y-16219222D01*
X7234467Y-16219222D02*
X7224944Y-16209698D01*
X7224944Y-16209698D02*
X7205896Y-16200174D01*
X7205896Y-16200174D02*
X7167801Y-16200174D01*
X7167801Y-16200174D02*
X7148753Y-16209698D01*
X7148753Y-16209698D02*
X7139229Y-16219222D01*
X7139229Y-16219222D02*
X7129706Y-16238269D01*
X7310658Y-16123984D02*
X7434467Y-16123984D01*
X7434467Y-16123984D02*
X7367801Y-16200174D01*
X7367801Y-16200174D02*
X7396372Y-16200174D01*
X7396372Y-16200174D02*
X7415420Y-16209698D01*
X7415420Y-16209698D02*
X7424944Y-16219222D01*
X7424944Y-16219222D02*
X7434467Y-16238269D01*
X7434467Y-16238269D02*
X7434467Y-16285888D01*
X7434467Y-16285888D02*
X7424944Y-16304936D01*
X7424944Y-16304936D02*
X7415420Y-16314460D01*
X7415420Y-16314460D02*
X7396372Y-16323984D01*
X7396372Y-16323984D02*
X7339229Y-16323984D01*
X7339229Y-16323984D02*
X7320182Y-16314460D01*
X7320182Y-16314460D02*
X7310658Y-16304936D01*
X7558277Y-16123984D02*
X7577325Y-16123984D01*
X7577325Y-16123984D02*
X7596372Y-16133508D01*
X7596372Y-16133508D02*
X7605896Y-16143031D01*
X7605896Y-16143031D02*
X7615420Y-16162079D01*
X7615420Y-16162079D02*
X7624944Y-16200174D01*
X7624944Y-16200174D02*
X7624944Y-16247793D01*
X7624944Y-16247793D02*
X7615420Y-16285888D01*
X7615420Y-16285888D02*
X7605896Y-16304936D01*
X7605896Y-16304936D02*
X7596372Y-16314460D01*
X7596372Y-16314460D02*
X7577325Y-16323984D01*
X7577325Y-16323984D02*
X7558277Y-16323984D01*
X7558277Y-16323984D02*
X7539229Y-16314460D01*
X7539229Y-16314460D02*
X7529706Y-16304936D01*
X7529706Y-16304936D02*
X7520182Y-16285888D01*
X7520182Y-16285888D02*
X7510658Y-16247793D01*
X7510658Y-16247793D02*
X7510658Y-16200174D01*
X7510658Y-16200174D02*
X7520182Y-16162079D01*
X7520182Y-16162079D02*
X7529706Y-16143031D01*
X7529706Y-16143031D02*
X7539229Y-16133508D01*
X7539229Y-16133508D02*
X7558277Y-16123984D01*
X7701134Y-16123984D02*
X7701134Y-16162079D01*
X7777325Y-16123984D02*
X7777325Y-16162079D01*
X8072563Y-16400174D02*
X8063039Y-16390650D01*
X8063039Y-16390650D02*
X8043991Y-16362079D01*
X8043991Y-16362079D02*
X8034468Y-16343031D01*
X8034468Y-16343031D02*
X8024944Y-16314460D01*
X8024944Y-16314460D02*
X8015420Y-16266841D01*
X8015420Y-16266841D02*
X8015420Y-16228746D01*
X8015420Y-16228746D02*
X8024944Y-16181127D01*
X8024944Y-16181127D02*
X8034468Y-16152555D01*
X8034468Y-16152555D02*
X8043991Y-16133508D01*
X8043991Y-16133508D02*
X8063039Y-16104936D01*
X8063039Y-16104936D02*
X8072563Y-16095412D01*
X8139229Y-16143031D02*
X8148753Y-16133508D01*
X8148753Y-16133508D02*
X8167801Y-16123984D01*
X8167801Y-16123984D02*
X8215420Y-16123984D01*
X8215420Y-16123984D02*
X8234468Y-16133508D01*
X8234468Y-16133508D02*
X8243991Y-16143031D01*
X8243991Y-16143031D02*
X8253515Y-16162079D01*
X8253515Y-16162079D02*
X8253515Y-16181127D01*
X8253515Y-16181127D02*
X8243991Y-16209698D01*
X8243991Y-16209698D02*
X8129706Y-16323984D01*
X8129706Y-16323984D02*
X8253515Y-16323984D01*
X8491611Y-16323984D02*
X8491611Y-16123984D01*
X8577325Y-16323984D02*
X8577325Y-16219222D01*
X8577325Y-16219222D02*
X8567801Y-16200174D01*
X8567801Y-16200174D02*
X8548753Y-16190650D01*
X8548753Y-16190650D02*
X8520182Y-16190650D01*
X8520182Y-16190650D02*
X8501134Y-16200174D01*
X8501134Y-16200174D02*
X8491611Y-16209698D01*
X8701134Y-16323984D02*
X8682087Y-16314460D01*
X8682087Y-16314460D02*
X8672563Y-16304936D01*
X8672563Y-16304936D02*
X8663039Y-16285888D01*
X8663039Y-16285888D02*
X8663039Y-16228746D01*
X8663039Y-16228746D02*
X8672563Y-16209698D01*
X8672563Y-16209698D02*
X8682087Y-16200174D01*
X8682087Y-16200174D02*
X8701134Y-16190650D01*
X8701134Y-16190650D02*
X8729706Y-16190650D01*
X8729706Y-16190650D02*
X8748753Y-16200174D01*
X8748753Y-16200174D02*
X8758277Y-16209698D01*
X8758277Y-16209698D02*
X8767801Y-16228746D01*
X8767801Y-16228746D02*
X8767801Y-16285888D01*
X8767801Y-16285888D02*
X8758277Y-16304936D01*
X8758277Y-16304936D02*
X8748753Y-16314460D01*
X8748753Y-16314460D02*
X8729706Y-16323984D01*
X8729706Y-16323984D02*
X8701134Y-16323984D01*
X8882087Y-16323984D02*
X8863039Y-16314460D01*
X8863039Y-16314460D02*
X8853515Y-16295412D01*
X8853515Y-16295412D02*
X8853515Y-16123984D01*
X9034468Y-16314460D02*
X9015420Y-16323984D01*
X9015420Y-16323984D02*
X8977325Y-16323984D01*
X8977325Y-16323984D02*
X8958277Y-16314460D01*
X8958277Y-16314460D02*
X8948753Y-16295412D01*
X8948753Y-16295412D02*
X8948753Y-16219222D01*
X8948753Y-16219222D02*
X8958277Y-16200174D01*
X8958277Y-16200174D02*
X8977325Y-16190650D01*
X8977325Y-16190650D02*
X9015420Y-16190650D01*
X9015420Y-16190650D02*
X9034468Y-16200174D01*
X9034468Y-16200174D02*
X9043992Y-16219222D01*
X9043992Y-16219222D02*
X9043992Y-16238269D01*
X9043992Y-16238269D02*
X8948753Y-16257317D01*
X9120182Y-16314460D02*
X9139230Y-16323984D01*
X9139230Y-16323984D02*
X9177325Y-16323984D01*
X9177325Y-16323984D02*
X9196373Y-16314460D01*
X9196373Y-16314460D02*
X9205896Y-16295412D01*
X9205896Y-16295412D02*
X9205896Y-16285888D01*
X9205896Y-16285888D02*
X9196373Y-16266841D01*
X9196373Y-16266841D02*
X9177325Y-16257317D01*
X9177325Y-16257317D02*
X9148753Y-16257317D01*
X9148753Y-16257317D02*
X9129706Y-16247793D01*
X9129706Y-16247793D02*
X9120182Y-16228746D01*
X9120182Y-16228746D02*
X9120182Y-16219222D01*
X9120182Y-16219222D02*
X9129706Y-16200174D01*
X9129706Y-16200174D02*
X9148753Y-16190650D01*
X9148753Y-16190650D02*
X9177325Y-16190650D01*
X9177325Y-16190650D02*
X9196373Y-16200174D01*
X9272563Y-16400174D02*
X9282087Y-16390650D01*
X9282087Y-16390650D02*
X9301134Y-16362079D01*
X9301134Y-16362079D02*
X9310658Y-16343031D01*
X9310658Y-16343031D02*
X9320182Y-16314460D01*
X9320182Y-16314460D02*
X9329706Y-16266841D01*
X9329706Y-16266841D02*
X9329706Y-16228746D01*
X9329706Y-16228746D02*
X9320182Y-16181127D01*
X9320182Y-16181127D02*
X9310658Y-16152555D01*
X9310658Y-16152555D02*
X9301134Y-16133508D01*
X9301134Y-16133508D02*
X9282087Y-16104936D01*
X9282087Y-16104936D02*
X9272563Y-16095412D01*
M02*
