G04 #@! TF.GenerationSoftware,KiCad,Pcbnew,8.0.9*
G04 #@! TF.CreationDate,2025-05-18T21:41:49+02:00*
G04 #@! TF.ProjectId,sensor-hub,73656e73-6f72-42d6-9875-622e6b696361,rev?*
G04 #@! TF.SameCoordinates,Original*
G04 #@! TF.FileFunction,Paste,Top*
G04 #@! TF.FilePolarity,Positive*
%FSLAX46Y46*%
G04 Gerber Fmt 4.6, Leading zero omitted, Abs format (unit mm)*
G04 Created by KiCad (PCBNEW 8.0.9) date 2025-05-18 21:41:49*
%MOMM*%
%LPD*%
G01*
G04 APERTURE LIST*
G04 Aperture macros list*
%AMRoundRect*
0 Rectangle with rounded corners*
0 $1 Rounding radius*
0 $2 $3 $4 $5 $6 $7 $8 $9 X,Y pos of 4 corners*
0 Add a 4 corners polygon primitive as box body*
4,1,4,$2,$3,$4,$5,$6,$7,$8,$9,$2,$3,0*
0 Add four circle primitives for the rounded corners*
1,1,$1+$1,$2,$3*
1,1,$1+$1,$4,$5*
1,1,$1+$1,$6,$7*
1,1,$1+$1,$8,$9*
0 Add four rect primitives between the rounded corners*
20,1,$1+$1,$2,$3,$4,$5,0*
20,1,$1+$1,$4,$5,$6,$7,0*
20,1,$1+$1,$6,$7,$8,$9,0*
20,1,$1+$1,$8,$9,$2,$3,0*%
G04 Aperture macros list end*
%ADD10RoundRect,0.145000X-0.145000X-0.145000X0.145000X-0.145000X0.145000X0.145000X-0.145000X0.145000X0*%
%ADD11RoundRect,0.062500X-0.375000X-0.062500X0.375000X-0.062500X0.375000X0.062500X-0.375000X0.062500X0*%
%ADD12RoundRect,0.062500X-0.062500X-0.375000X0.062500X-0.375000X0.062500X0.375000X-0.062500X0.375000X0*%
%ADD13RoundRect,0.249999X1.850001X-0.450001X1.850001X0.450001X-1.850001X0.450001X-1.850001X-0.450001X0*%
%ADD14RoundRect,0.200000X0.200000X0.275000X-0.200000X0.275000X-0.200000X-0.275000X0.200000X-0.275000X0*%
%ADD15RoundRect,0.200000X-0.275000X0.200000X-0.275000X-0.200000X0.275000X-0.200000X0.275000X0.200000X0*%
%ADD16RoundRect,0.225000X0.250000X-0.225000X0.250000X0.225000X-0.250000X0.225000X-0.250000X-0.225000X0*%
%ADD17RoundRect,0.218750X-0.256250X0.218750X-0.256250X-0.218750X0.256250X-0.218750X0.256250X0.218750X0*%
%ADD18RoundRect,0.200000X0.275000X-0.200000X0.275000X0.200000X-0.275000X0.200000X-0.275000X-0.200000X0*%
%ADD19RoundRect,0.218750X0.218750X0.256250X-0.218750X0.256250X-0.218750X-0.256250X0.218750X-0.256250X0*%
%ADD20RoundRect,0.225000X0.225000X0.250000X-0.225000X0.250000X-0.225000X-0.250000X0.225000X-0.250000X0*%
%ADD21RoundRect,0.225000X-0.250000X0.225000X-0.250000X-0.225000X0.250000X-0.225000X0.250000X0.225000X0*%
%ADD22RoundRect,0.225000X-0.225000X-0.250000X0.225000X-0.250000X0.225000X0.250000X-0.225000X0.250000X0*%
%ADD23R,1.150000X1.400000*%
%ADD24R,1.000000X1.800000*%
%ADD25RoundRect,0.200000X-0.200000X-0.275000X0.200000X-0.275000X0.200000X0.275000X-0.200000X0.275000X0*%
%ADD26RoundRect,0.250000X-0.315000X-0.315000X0.315000X-0.315000X0.315000X0.315000X-0.315000X0.315000X0*%
%ADD27RoundRect,0.250001X0.714999X-0.714999X0.714999X0.714999X-0.714999X0.714999X-0.714999X-0.714999X0*%
%ADD28RoundRect,0.212500X0.212500X-0.737500X0.212500X0.737500X-0.212500X0.737500X-0.212500X-0.737500X0*%
%ADD29RoundRect,0.212500X0.737500X-0.212500X0.737500X0.212500X-0.737500X0.212500X-0.737500X-0.212500X0*%
%ADD30R,1.000000X0.800000*%
%ADD31RoundRect,0.250000X-0.250000X-0.475000X0.250000X-0.475000X0.250000X0.475000X-0.250000X0.475000X0*%
%ADD32RoundRect,0.250000X0.475000X-0.250000X0.475000X0.250000X-0.475000X0.250000X-0.475000X-0.250000X0*%
%ADD33R,2.400000X0.740000*%
%ADD34RoundRect,0.150000X-0.335000X0.150000X-0.335000X-0.150000X0.335000X-0.150000X0.335000X0.150000X0*%
%ADD35RoundRect,0.100000X-0.100000X0.300000X-0.100000X-0.300000X0.100000X-0.300000X0.100000X0.300000X0*%
%ADD36RoundRect,0.150000X-0.150000X0.512500X-0.150000X-0.512500X0.150000X-0.512500X0.150000X0.512500X0*%
%ADD37R,1.500000X1.500000*%
%ADD38RoundRect,0.200000X0.200000X0.550000X-0.200000X0.550000X-0.200000X-0.550000X0.200000X-0.550000X0*%
%ADD39RoundRect,0.500000X0.500000X1.100000X-0.500000X1.100000X-0.500000X-1.100000X0.500000X-1.100000X0*%
%ADD40RoundRect,0.087500X0.087500X-0.125000X0.087500X0.125000X-0.087500X0.125000X-0.087500X-0.125000X0*%
%ADD41RoundRect,0.087500X0.125000X-0.087500X0.125000X0.087500X-0.125000X0.087500X-0.125000X-0.087500X0*%
%ADD42RoundRect,0.250000X0.650000X-0.325000X0.650000X0.325000X-0.650000X0.325000X-0.650000X-0.325000X0*%
%ADD43RoundRect,0.075000X0.075000X-0.662500X0.075000X0.662500X-0.075000X0.662500X-0.075000X-0.662500X0*%
%ADD44RoundRect,0.075000X0.662500X-0.075000X0.662500X0.075000X-0.662500X0.075000X-0.662500X-0.075000X0*%
G04 APERTURE END LIST*
D10*
X74680000Y-104430000D03*
X74680000Y-105150000D03*
X75400000Y-104430000D03*
X75400000Y-105150000D03*
D11*
X73602500Y-104040000D03*
X73602500Y-104540000D03*
X73602500Y-105040000D03*
X73602500Y-105540000D03*
D12*
X74290000Y-106227500D03*
X74790000Y-106227500D03*
X75290000Y-106227500D03*
X75790000Y-106227500D03*
D11*
X76477500Y-105540000D03*
X76477500Y-105040000D03*
X76477500Y-104540000D03*
X76477500Y-104040000D03*
D12*
X75790000Y-103352500D03*
X75290000Y-103352500D03*
X74790000Y-103352500D03*
X74290000Y-103352500D03*
D13*
X66650000Y-120575000D03*
X66650000Y-116875000D03*
D14*
X57125000Y-108775000D03*
X55475000Y-108775000D03*
D15*
X120762500Y-102100000D03*
X120762500Y-103750000D03*
D16*
X75050000Y-101400000D03*
X75050000Y-99850000D03*
D17*
X50600000Y-100012500D03*
X50600000Y-101587500D03*
D18*
X134750000Y-104350000D03*
X134750000Y-102700000D03*
D15*
X75050000Y-120075000D03*
X75050000Y-121725000D03*
D19*
X96537500Y-101075000D03*
X94962500Y-101075000D03*
D20*
X99100000Y-97212500D03*
X97550000Y-97212500D03*
D17*
X88525000Y-96002500D03*
X88525000Y-97577500D03*
D14*
X93350000Y-117325000D03*
X91700000Y-117325000D03*
D21*
X76575000Y-120125000D03*
X76575000Y-121675000D03*
D18*
X74950000Y-98125000D03*
X74950000Y-96475000D03*
D22*
X127662500Y-97000000D03*
X129212500Y-97000000D03*
D23*
X120712500Y-84700000D03*
X120712500Y-86900000D03*
X122312500Y-86900000D03*
X122312500Y-84700000D03*
D20*
X86225000Y-89012500D03*
X84675000Y-89012500D03*
D23*
X86225000Y-93012500D03*
X86225000Y-90812500D03*
X84625000Y-90812500D03*
X84625000Y-93012500D03*
D24*
X88725000Y-87012500D03*
X86225000Y-87012500D03*
D15*
X48950000Y-99975000D03*
X48950000Y-101625000D03*
D22*
X60875000Y-113350000D03*
X62425000Y-113350000D03*
X127662500Y-98500000D03*
X129212500Y-98500000D03*
D25*
X76175000Y-111675000D03*
X77825000Y-111675000D03*
X83425000Y-117325000D03*
X85075000Y-117325000D03*
D22*
X60875000Y-108775000D03*
X62425000Y-108775000D03*
D15*
X119212500Y-102100000D03*
X119212500Y-103750000D03*
D25*
X84525000Y-118875000D03*
X86175000Y-118875000D03*
D21*
X64275000Y-93150000D03*
X64275000Y-94700000D03*
X118712500Y-85800000D03*
X118712500Y-87350000D03*
D14*
X130925000Y-109375000D03*
X129275000Y-109375000D03*
D26*
X92175000Y-89750000D03*
X92175000Y-91150000D03*
X92175000Y-92550000D03*
X92175000Y-93950000D03*
X93575000Y-89750000D03*
X93575000Y-91150000D03*
X93575000Y-92550000D03*
X93575000Y-93950000D03*
X94975000Y-89750000D03*
X94975000Y-91150000D03*
X94975000Y-92550000D03*
X94975000Y-93950000D03*
X96375000Y-89750000D03*
X96375000Y-91150000D03*
X96375000Y-92550000D03*
X96375000Y-93950000D03*
D11*
X90837500Y-89100000D03*
X90837500Y-89600000D03*
X90837500Y-90100000D03*
X90837500Y-90600000D03*
X90837500Y-91100000D03*
X90837500Y-91600000D03*
X90837500Y-92100000D03*
X90837500Y-92600000D03*
X90837500Y-93100000D03*
X90837500Y-93600000D03*
X90837500Y-94100000D03*
X90837500Y-94600000D03*
D12*
X91525000Y-95287500D03*
X92025000Y-95287500D03*
X92525000Y-95287500D03*
X93025000Y-95287500D03*
X93525000Y-95287500D03*
X94025000Y-95287500D03*
X94525000Y-95287500D03*
X95025000Y-95287500D03*
X95525000Y-95287500D03*
X96025000Y-95287500D03*
X96525000Y-95287500D03*
X97025000Y-95287500D03*
D11*
X97712500Y-94600000D03*
X97712500Y-94100000D03*
X97712500Y-93600000D03*
X97712500Y-93100000D03*
X97712500Y-92600000D03*
X97712500Y-92100000D03*
X97712500Y-91600000D03*
X97712500Y-91100000D03*
X97712500Y-90600000D03*
X97712500Y-90100000D03*
X97712500Y-89600000D03*
X97712500Y-89100000D03*
D12*
X97025000Y-88412500D03*
X96525000Y-88412500D03*
X96025000Y-88412500D03*
X95525000Y-88412500D03*
X95025000Y-88412500D03*
X94525000Y-88412500D03*
X94025000Y-88412500D03*
X93525000Y-88412500D03*
X93025000Y-88412500D03*
X92525000Y-88412500D03*
X92025000Y-88412500D03*
X91525000Y-88412500D03*
D14*
X96575000Y-102725000D03*
X94925000Y-102725000D03*
X57125000Y-111825000D03*
X55475000Y-111825000D03*
D22*
X60875000Y-111825000D03*
X62425000Y-111825000D03*
D19*
X74675000Y-111675000D03*
X73100000Y-111675000D03*
D27*
X55950000Y-93225000D03*
X58350000Y-93225000D03*
X55950000Y-90825000D03*
X58350000Y-90825000D03*
D28*
X54650000Y-96175000D03*
X55900000Y-96175000D03*
X57150000Y-96175000D03*
X58400000Y-96175000D03*
X59650000Y-96175000D03*
D29*
X61300000Y-94525000D03*
X61300000Y-93275000D03*
X61300000Y-92025000D03*
X61300000Y-90775000D03*
X61300000Y-89525000D03*
D28*
X59650000Y-87875000D03*
X58400000Y-87875000D03*
X57150000Y-87875000D03*
X55900000Y-87875000D03*
X54650000Y-87875000D03*
D29*
X53000000Y-89525000D03*
X53000000Y-90775000D03*
X53000000Y-92025000D03*
X53000000Y-93275000D03*
X53000000Y-94525000D03*
D25*
X94000000Y-83850000D03*
X95650000Y-83850000D03*
D15*
X122312500Y-102100000D03*
X122312500Y-103750000D03*
D30*
X78550000Y-97550000D03*
X78550000Y-98950000D03*
X81050000Y-98950000D03*
X81050000Y-97550000D03*
D18*
X76485000Y-98125000D03*
X76485000Y-96475000D03*
D31*
X130725000Y-92600000D03*
X132625000Y-92600000D03*
D25*
X109050000Y-109425000D03*
X110700000Y-109425000D03*
D32*
X128475000Y-89275000D03*
X128475000Y-87375000D03*
D25*
X126275000Y-109375000D03*
X127925000Y-109375000D03*
D33*
X76500000Y-88310000D03*
X80400000Y-88310000D03*
X76500000Y-89580000D03*
X80400000Y-89580000D03*
X76500000Y-90850000D03*
X80400000Y-90850000D03*
X76500000Y-92120000D03*
X80400000Y-92120000D03*
X76500000Y-93390000D03*
X80400000Y-93390000D03*
D18*
X78250000Y-103075000D03*
X78250000Y-101425000D03*
D31*
X70350000Y-113875000D03*
X72250000Y-113875000D03*
D22*
X56300000Y-84500000D03*
X57850000Y-84500000D03*
D21*
X86175000Y-83512500D03*
X86175000Y-85062500D03*
X100125000Y-88350000D03*
X100125000Y-89900000D03*
D25*
X89475000Y-118875000D03*
X91125000Y-118875000D03*
D34*
X52350000Y-64225000D03*
X51150000Y-64225000D03*
X52350000Y-64975000D03*
X51150000Y-64975000D03*
D35*
X52750000Y-63150000D03*
X51750000Y-63150000D03*
X50750000Y-63150000D03*
X50750000Y-66050000D03*
X51750000Y-66050000D03*
X52750000Y-66050000D03*
D14*
X57125000Y-113350000D03*
X55475000Y-113350000D03*
D22*
X70350000Y-124325000D03*
X71900000Y-124325000D03*
D16*
X130300000Y-119950000D03*
X130300000Y-118400000D03*
D21*
X88725000Y-83512500D03*
X88725000Y-85062500D03*
X112150000Y-110875000D03*
X112150000Y-112425000D03*
D36*
X72250000Y-119450000D03*
X71300000Y-119450000D03*
X70350000Y-119450000D03*
X70350000Y-121725000D03*
X71300000Y-121725000D03*
X72250000Y-121725000D03*
D22*
X124525000Y-90250000D03*
X126075000Y-90250000D03*
D18*
X79775000Y-103075000D03*
X79775000Y-101425000D03*
D14*
X57125000Y-110300000D03*
X55475000Y-110300000D03*
D37*
X84275000Y-105300000D03*
X84275000Y-97500000D03*
D31*
X70400000Y-126125000D03*
X72300000Y-126125000D03*
D25*
X112050000Y-109425000D03*
X113700000Y-109425000D03*
D16*
X49150000Y-65375000D03*
X49150000Y-63825000D03*
D21*
X96050000Y-97187500D03*
X96050000Y-98737500D03*
D18*
X78100000Y-121725000D03*
X78100000Y-120075000D03*
D17*
X130700000Y-89275000D03*
X130700000Y-90850000D03*
D22*
X91025000Y-83850000D03*
X92575000Y-83850000D03*
D14*
X95550000Y-115800000D03*
X93900000Y-115800000D03*
D22*
X127662500Y-94000000D03*
X129212500Y-94000000D03*
D18*
X131750000Y-104350000D03*
X131750000Y-102700000D03*
D31*
X70350000Y-115925000D03*
X72250000Y-115925000D03*
D38*
X85355000Y-121250000D03*
X86455000Y-121250000D03*
X87555000Y-121250000D03*
X88655000Y-121250000D03*
X89755000Y-121250000D03*
X90855000Y-121250000D03*
X91955000Y-121250000D03*
X93055000Y-121250000D03*
X94155000Y-121250000D03*
X95255000Y-121250000D03*
D39*
X97945000Y-129300000D03*
X82305000Y-129300000D03*
D21*
X110600000Y-110875000D03*
X110600000Y-112425000D03*
D15*
X117662500Y-102100000D03*
X117662500Y-103750000D03*
D22*
X84675000Y-94812500D03*
X86225000Y-94812500D03*
D16*
X101625000Y-86900000D03*
X101625000Y-85350000D03*
D22*
X127662500Y-95500000D03*
X129212500Y-95500000D03*
X91000000Y-85987500D03*
X92550000Y-85987500D03*
D25*
X120662500Y-88700000D03*
X122312500Y-88700000D03*
D16*
X88525000Y-94537500D03*
X88525000Y-92987500D03*
D15*
X133250000Y-102700000D03*
X133250000Y-104350000D03*
D40*
X56597500Y-82690000D03*
X57097500Y-82690000D03*
D41*
X57610000Y-82427500D03*
X57610000Y-81927500D03*
X57610000Y-81427500D03*
D40*
X57097500Y-81165000D03*
X56597500Y-81165000D03*
D41*
X56085000Y-81427500D03*
X56085000Y-81927500D03*
X56085000Y-82427500D03*
D42*
X106550000Y-125325000D03*
X106550000Y-122375000D03*
D15*
X103125000Y-82275000D03*
X103125000Y-83925000D03*
D14*
X99325000Y-119925000D03*
X97675000Y-119925000D03*
X70350000Y-111675000D03*
X68700000Y-111675000D03*
D20*
X82050000Y-95350000D03*
X80500000Y-95350000D03*
D22*
X60875000Y-110300000D03*
X62425000Y-110300000D03*
D43*
X118725000Y-100362500D03*
X119225000Y-100362500D03*
X119725000Y-100362500D03*
X120225000Y-100362500D03*
X120725000Y-100362500D03*
X121225000Y-100362500D03*
X121725000Y-100362500D03*
X122225000Y-100362500D03*
X122725000Y-100362500D03*
X123225000Y-100362500D03*
X123725000Y-100362500D03*
X124225000Y-100362500D03*
D44*
X125637500Y-98950000D03*
X125637500Y-98450000D03*
X125637500Y-97950000D03*
X125637500Y-97450000D03*
X125637500Y-96950000D03*
X125637500Y-96450000D03*
X125637500Y-95950000D03*
X125637500Y-95450000D03*
X125637500Y-94950000D03*
X125637500Y-94450000D03*
X125637500Y-93950000D03*
X125637500Y-93450000D03*
D43*
X124225000Y-92037500D03*
X123725000Y-92037500D03*
X123225000Y-92037500D03*
X122725000Y-92037500D03*
X122225000Y-92037500D03*
X121725000Y-92037500D03*
X121225000Y-92037500D03*
X120725000Y-92037500D03*
X120225000Y-92037500D03*
X119725000Y-92037500D03*
X119225000Y-92037500D03*
X118725000Y-92037500D03*
D44*
X117312500Y-93450000D03*
X117312500Y-93950000D03*
X117312500Y-94450000D03*
X117312500Y-94950000D03*
X117312500Y-95450000D03*
X117312500Y-95950000D03*
X117312500Y-96450000D03*
X117312500Y-96950000D03*
X117312500Y-97450000D03*
X117312500Y-97950000D03*
X117312500Y-98450000D03*
X117312500Y-98950000D03*
D21*
X124312500Y-85800000D03*
X124312500Y-87350000D03*
D18*
X81300000Y-103075000D03*
X81300000Y-101425000D03*
D15*
X136250000Y-102700000D03*
X136250000Y-104350000D03*
M02*
