G04 #@! TF.GenerationSoftware,KiCad,Pcbnew,8.0.9*
G04 #@! TF.CreationDate,2025-05-18T21:41:49+02:00*
G04 #@! TF.ProjectId,sensor-hub,73656e73-6f72-42d6-9875-622e6b696361,rev?*
G04 #@! TF.SameCoordinates,Original*
G04 #@! TF.FileFunction,Soldermask,Bot*
G04 #@! TF.FilePolarity,Negative*
%FSLAX46Y46*%
G04 Gerber Fmt 4.6, Leading zero omitted, Abs format (unit mm)*
G04 Created by KiCad (PCBNEW 8.0.9) date 2025-05-18 21:41:49*
%MOMM*%
%LPD*%
G01*
G04 APERTURE LIST*
G04 Aperture macros list*
%AMRoundRect*
0 Rectangle with rounded corners*
0 $1 Rounding radius*
0 $2 $3 $4 $5 $6 $7 $8 $9 X,Y pos of 4 corners*
0 Add a 4 corners polygon primitive as box body*
4,1,4,$2,$3,$4,$5,$6,$7,$8,$9,$2,$3,0*
0 Add four circle primitives for the rounded corners*
1,1,$1+$1,$2,$3*
1,1,$1+$1,$4,$5*
1,1,$1+$1,$6,$7*
1,1,$1+$1,$8,$9*
0 Add four rect primitives between the rounded corners*
20,1,$1+$1,$2,$3,$4,$5,0*
20,1,$1+$1,$4,$5,$6,$7,0*
20,1,$1+$1,$6,$7,$8,$9,0*
20,1,$1+$1,$8,$9,$2,$3,0*%
%AMFreePoly0*
4,1,19,0.550000,-0.750000,0.000000,-0.750000,0.000000,-0.744911,-0.071157,-0.744911,-0.207708,-0.704816,-0.327430,-0.627875,-0.420627,-0.520320,-0.479746,-0.390866,-0.500000,-0.250000,-0.500000,0.250000,-0.479746,0.390866,-0.420627,0.520320,-0.327430,0.627875,-0.207708,0.704816,-0.071157,0.744911,0.000000,0.744911,0.000000,0.750000,0.550000,0.750000,0.550000,-0.750000,0.550000,-0.750000,
$1*%
%AMFreePoly1*
4,1,19,0.000000,0.744911,0.071157,0.744911,0.207708,0.704816,0.327430,0.627875,0.420627,0.520320,0.479746,0.390866,0.500000,0.250000,0.500000,-0.250000,0.479746,-0.390866,0.420627,-0.520320,0.327430,-0.627875,0.207708,-0.704816,0.071157,-0.744911,0.000000,-0.744911,0.000000,-0.750000,-0.550000,-0.750000,-0.550000,0.750000,0.000000,0.750000,0.000000,0.744911,0.000000,0.744911,
$1*%
G04 Aperture macros list end*
%ADD10C,1.500000*%
%ADD11R,1.300000X1.300000*%
%ADD12C,1.300000*%
%ADD13C,3.250000*%
%ADD14RoundRect,0.248000X-0.552000X-0.552000X0.552000X-0.552000X0.552000X0.552000X-0.552000X0.552000X0*%
%ADD15C,1.600000*%
%ADD16C,1.720000*%
%ADD17C,2.200000*%
%ADD18R,1.700000X1.700000*%
%ADD19O,1.700000X1.700000*%
%ADD20R,2.000000X2.000000*%
%ADD21C,2.000000*%
%ADD22C,3.000000*%
%ADD23C,1.200000*%
%ADD24RoundRect,0.225000X-0.225000X-0.250000X0.225000X-0.250000X0.225000X0.250000X-0.225000X0.250000X0*%
%ADD25RoundRect,0.225000X0.225000X0.250000X-0.225000X0.250000X-0.225000X-0.250000X0.225000X-0.250000X0*%
%ADD26RoundRect,0.200000X-0.200000X-0.275000X0.200000X-0.275000X0.200000X0.275000X-0.200000X0.275000X0*%
%ADD27RoundRect,0.375000X0.375000X-0.625000X0.375000X0.625000X-0.375000X0.625000X-0.375000X-0.625000X0*%
%ADD28RoundRect,0.500000X1.400000X-0.500000X1.400000X0.500000X-1.400000X0.500000X-1.400000X-0.500000X0*%
%ADD29RoundRect,0.250000X-0.250000X-0.475000X0.250000X-0.475000X0.250000X0.475000X-0.250000X0.475000X0*%
%ADD30FreePoly0,270.000000*%
%ADD31R,1.500000X1.000000*%
%ADD32FreePoly1,270.000000*%
%ADD33FreePoly0,90.000000*%
%ADD34FreePoly1,90.000000*%
%ADD35RoundRect,0.250000X0.250000X0.475000X-0.250000X0.475000X-0.250000X-0.475000X0.250000X-0.475000X0*%
%ADD36RoundRect,0.200000X-0.275000X0.200000X-0.275000X-0.200000X0.275000X-0.200000X0.275000X0.200000X0*%
%ADD37C,1.000000*%
G04 APERTURE END LIST*
D10*
X102085000Y-74910000D03*
D11*
X100685000Y-73110000D03*
D12*
X99415000Y-75650000D03*
X98145000Y-73110000D03*
X96875000Y-75650000D03*
X95605000Y-73110000D03*
X94335000Y-75650000D03*
X93065000Y-73110000D03*
X91795000Y-75650000D03*
X90525000Y-73110000D03*
X89255000Y-75650000D03*
D10*
X62375000Y-131875000D03*
D11*
X60975000Y-130075000D03*
D12*
X59705000Y-132615000D03*
X58435000Y-130075000D03*
X57165000Y-132615000D03*
D13*
X125715000Y-128390000D03*
X114285000Y-128390000D03*
D14*
X124445000Y-119500000D03*
D15*
X123175000Y-122040000D03*
X121905000Y-119500000D03*
X120635000Y-122040000D03*
X119365000Y-119500000D03*
X118095000Y-122040000D03*
X116825000Y-119500000D03*
X115555000Y-122040000D03*
D16*
X125465000Y-114670000D03*
X122925000Y-114670000D03*
X117075000Y-114670000D03*
X114535000Y-114670000D03*
D17*
X127900000Y-125340000D03*
X112100000Y-125340000D03*
D18*
X80875000Y-108260000D03*
D19*
X80875000Y-110800000D03*
X80875000Y-113340000D03*
D20*
X70400000Y-84057455D03*
D21*
X70400000Y-63257455D03*
D22*
X50000000Y-74000000D03*
X136000000Y-74000000D03*
X50000000Y-125000000D03*
D18*
X73990000Y-132625000D03*
D19*
X71450000Y-132625000D03*
D23*
X95125000Y-124500000D03*
X85125000Y-124500000D03*
D10*
X120340000Y-74922500D03*
D11*
X118940000Y-73122500D03*
D12*
X117670000Y-75662500D03*
X116400000Y-73122500D03*
X115130000Y-75662500D03*
X113860000Y-73122500D03*
X112590000Y-75662500D03*
X111320000Y-73122500D03*
X110050000Y-75662500D03*
D22*
X136000000Y-125000000D03*
D18*
X62485000Y-101700000D03*
D19*
X65025000Y-101700000D03*
X67565000Y-101700000D03*
X70105000Y-101700000D03*
D24*
X119400000Y-116550000D03*
X120950000Y-116550000D03*
D25*
X89500000Y-123875000D03*
X87950000Y-123875000D03*
D26*
X125075000Y-122000000D03*
X126725000Y-122000000D03*
D24*
X122262500Y-100300000D03*
X123812500Y-100300000D03*
D27*
X55300000Y-111350000D03*
X53000000Y-111350000D03*
D28*
X53000000Y-105050000D03*
D27*
X50700000Y-111350000D03*
D29*
X55550000Y-101600000D03*
X57450000Y-101600000D03*
D30*
X60050000Y-80075000D03*
D31*
X60050000Y-81375000D03*
D32*
X60050000Y-82675000D03*
D25*
X120762500Y-100300000D03*
X119212500Y-100300000D03*
D33*
X75570000Y-101120000D03*
D31*
X75570000Y-99820000D03*
D34*
X75570000Y-98520000D03*
D29*
X55550000Y-99550000D03*
X57450000Y-99550000D03*
D35*
X50550000Y-113800000D03*
X48650000Y-113800000D03*
D25*
X89500000Y-125400000D03*
X87950000Y-125400000D03*
D36*
X125312500Y-100250000D03*
X125312500Y-101900000D03*
D37*
X85600000Y-81050000D03*
M02*
