M48
; DRILL file {KiCad 8.0.9} date 2025-05-18T21:42:00+0200
; FORMAT={-:-/ absolute / metric / decimal}
; #@! TF.CreationDate,2025-05-18T21:42:00+02:00
; #@! TF.GenerationSoftware,Kicad,Pcbnew,8.0.9
; #@! TF.FileFunction,Plated,1,4,PTH
FMAT,2
METRIC
; #@! TA.AperFunction,Plated,PTH,ViaDrill
T1C0.300
; #@! TA.AperFunction,Plated,PTH,ComponentDrill
T2C0.800
; #@! TA.AperFunction,Plated,PTH,ComponentDrill
T3C0.900
; #@! TA.AperFunction,Plated,PTH,ComponentDrill
T4C1.000
; #@! TA.AperFunction,Plated,PTH,ComponentDrill
T5C1.020
; #@! TA.AperFunction,Plated,PTH,ComponentDrill
T6C1.500
; #@! TA.AperFunction,Plated,PTH,ComponentDrill
T7C1.600
%
G90
G05
T1
X46.5Y-71.0
X46.5Y-73.5
X46.5Y-78.5
X46.5Y-83.5
X46.5Y-88.5
X46.5Y-93.5
X46.5Y-98.5
X46.5Y-103.5
X46.5Y-108.5
X46.5Y-113.5
X46.5Y-118.5
X46.5Y-123.5
X46.5Y-128.5
X46.5Y-133.5
X46.5Y-138.5
X48.95Y-102.7
X50.6Y-102.7
X50.65Y-93.275
X50.65Y-94.525
X51.0Y-96.5
X51.25Y-108.0
X51.5Y-138.5
X52.0Y-101.75
X52.0Y-102.75
X52.35Y-113.05
X52.5Y-71.0
X53.0Y-101.75
X53.0Y-102.75
X54.0Y-101.75
X54.0Y-102.75
X54.5Y-108.0
X55.275Y-81.425
X55.275Y-81.925
X55.6Y-114.6
X56.275Y-85.5
X56.5Y-138.5
X56.65Y-72.83
X57.1Y-80.0
X57.2Y-73.65
X57.5Y-60.5
X57.5Y-65.0
X57.5Y-70.0
X57.5Y-98.0
X57.5Y-103.25
X57.83Y-71.74
X57.85Y-85.475
X57.9Y-113.35
X58.425Y-111.83
X58.425Y-114.1
X58.6Y-81.2
X58.65Y-82.5
X58.75Y-83.7
X58.75Y-99.5
X58.75Y-101.5
X58.825Y-114.75
X58.95Y-110.3
X59.575Y-114.1
X59.65Y-108.8
X60.05Y-84.1
X61.0Y-104.7
X61.05Y-107.5
X61.5Y-138.5
X62.5Y-60.5
X62.75Y-90.15
X62.9Y-91.95
X63.55Y-108.8
X63.55Y-110.275
X63.55Y-111.825
X63.55Y-113.35
X64.1Y-100.1
X64.275Y-95.8
X64.3Y-92.025
X64.45Y-81.05
X64.45Y-98.4
X64.6Y-89.5
X65.35Y-81.65
X65.5Y-83.35
X65.75Y-98.9
X65.8Y-88.55
X65.8Y-91.4
X66.5Y-138.5
X66.975Y-81.675
X67.15Y-111.25
X67.15Y-112.1
X67.3Y-90.85
X67.5Y-60.5
X67.638Y-83.312
X67.65Y-95.15
X67.7Y-80.85
X67.775Y-111.25
X67.775Y-112.1
X67.85Y-86.7
X67.9Y-104.7
X67.9Y-107.25
X67.95Y-93.45
X68.55Y-96.15
X68.8Y-98.125
X68.8Y-99.2
X69.625Y-112.525
X69.9Y-79.3
X69.95Y-97.5
X70.2Y-128.4
X70.375Y-123.1
X70.49Y-105.17
X70.6Y-127.8
X70.6Y-129.0
X70.75Y-107.125
X71.0Y-96.7
X71.3Y-117.575
X71.3Y-118.275
X71.35Y-120.6
X71.41Y-105.23
X71.5Y-138.5
X71.525Y-123.25
X71.7Y-106.21
X72.15Y-123.25
X72.3Y-81.2
X72.5Y-60.5
X72.6Y-103.525
X72.7Y-108.15
X72.85Y-82.95
X73.35Y-119.45
X73.475Y-113.4
X73.475Y-114.4
X73.475Y-115.4
X73.475Y-116.4
X73.8Y-120.9
X73.98Y-98.8
X74.09Y-101.4
X74.118Y-102.342
X74.79Y-107.4
X74.9Y-88.3
X74.9Y-89.575
X74.9Y-90.825
X74.9Y-93.375
X74.95Y-95.4
X75.04Y-104.79
X75.775Y-118.9
X75.9Y-107.45
X76.475Y-95.375
X76.5Y-138.5
X76.75Y-106.9
X77.15Y-101.13
X77.4Y-104.3
X77.5Y-60.5
X78.1Y-119.175
X78.25Y-82.85
X78.9Y-111.675
X79.575Y-95.35
X79.8Y-79.3
X79.95Y-97.55
X80.35Y-84.0
X80.55Y-100.45
X81.25Y-78.95
X81.4Y-81.2
X81.4Y-87.4
X81.5Y-138.5
X81.75Y-104.15
X82.325Y-93.375
X82.35Y-117.325
X82.375Y-83.675
X82.5Y-60.5
X82.85Y-101.1
X82.93Y-78.44
X83.325Y-89.162
X83.325Y-90.312
X83.325Y-91.513
X83.325Y-93.013
X83.325Y-94.812
X83.925Y-88.162
X84.25Y-117.325
X84.275Y-95.962
X84.275Y-106.95
X84.525Y-120.025
X84.7Y-112.4
X84.95Y-82.85
X85.05Y-101.5
X85.475Y-88.263
X85.8Y-77.15
X85.875Y-95.962
X85.95Y-112.4
X86.0Y-117.9
X86.5Y-138.5
X86.55Y-108.95
X86.6Y-107.9
X87.096Y-89.241
X87.15Y-83.95
X87.2Y-114.63
X87.23Y-118.17
X87.325Y-94.013
X87.325Y-95.162
X87.375Y-90.812
X87.375Y-97.6
X87.5Y-60.5
X87.55Y-119.9
X87.55Y-122.55
X87.575Y-93.013
X87.6Y-100.0
X87.75Y-83.05
X87.83Y-111.55
X87.95Y-126.55
X88.13Y-110.55
X88.45Y-102.65
X88.5Y-106.35
X88.625Y-90.55
X88.8Y-117.05
X89.15Y-81.25
X89.21Y-79.52
X89.475Y-108.775
X89.475Y-117.75
X89.5Y-106.0
X89.5Y-126.55
X89.55Y-94.194
X89.625Y-88.375
X89.625Y-92.162
X89.75Y-119.9
X89.75Y-122.6
X89.95Y-95.15
X90.3Y-77.75
X90.305Y-119.45
X90.4Y-80.65
X90.49Y-79.9
X90.8Y-98.75
X90.85Y-109.15
X90.96Y-116.34
X90.975Y-85.013
X91.05Y-79.35
X91.25Y-106.55
X91.25Y-110.69
X91.5Y-138.5
X91.7Y-74.2
X91.85Y-79.352
X91.9Y-100.6
X91.95Y-97.725
X91.95Y-109.1
X92.3Y-80.55
X92.3Y-91.05
X92.451Y-86.897
X92.5Y-60.5
X92.525Y-98.175
X92.55Y-85.013
X92.575Y-82.775
X92.65Y-116.2
X92.9Y-92.3
X92.9Y-111.9
X92.95Y-74.875
X93.0Y-99.8
X93.0Y-103.6
X93.0Y-115.0
X93.025Y-87.34
X93.525Y-96.4
X93.65Y-77.8
X93.7Y-98.05
X93.875Y-97.125
X94.122Y-87.404
X94.125Y-122.575
X94.175Y-119.9
X94.275Y-91.85
X94.325Y-80.775
X94.35Y-74.45
X94.45Y-98.275
X94.45Y-101.925
X95.025Y-77.275
X95.1Y-79.25
X95.25Y-119.925
X95.35Y-87.0
X95.375Y-82.075
X95.55Y-114.65
X95.575Y-96.3
X95.6Y-84.8
X95.8Y-77.85
X96.05Y-99.662
X96.15Y-82.35
X96.5Y-138.5
X96.6Y-80.75
X96.7Y-89.82
X96.75Y-82.8
X96.825Y-77.225
X97.0Y-106.075
X97.31Y-104.37
X97.425Y-82.475
X97.5Y-60.5
X97.5Y-109.0
X97.55Y-98.3
X98.0Y-83.9
X98.07Y-105.88
X98.15Y-88.5
X98.45Y-85.325
X98.65Y-90.125
X98.85Y-93.6
X99.075Y-95.7
X99.075Y-98.25
X99.175Y-82.425
X99.25Y-94.575
X99.58Y-104.4
X100.1Y-92.625
X100.1Y-95.15
X100.25Y-86.55
X100.25Y-98.25
X100.375Y-119.9
X100.4Y-79.8
X100.525Y-96.7
X100.69Y-105.58
X100.72Y-83.006
X100.925Y-93.925
X101.015Y-80.301
X101.02Y-102.98
X101.075Y-89.9
X101.1Y-88.35
X101.5Y-81.0
X101.5Y-108.0
X101.5Y-113.5
X101.5Y-118.5
X101.5Y-123.5
X101.5Y-128.5
X101.5Y-133.5
X101.5Y-138.5
X101.975Y-83.925
X102.07Y-104.17
X102.3Y-76.4
X102.4Y-90.8
X102.475Y-96.675
X102.5Y-60.5
X102.75Y-88.05
X102.775Y-85.375
X102.775Y-86.9
X102.85Y-91.4
X103.46Y-102.73
X103.55Y-79.75
X104.1Y-77.7
X104.3Y-96.65
X104.55Y-88.1
X104.55Y-99.75
X105.4Y-81.5
X105.5Y-94.95
X105.8Y-98.0
X105.85Y-102.25
X105.85Y-120.625
X105.85Y-121.325
X105.95Y-88.1
X106.0Y-91.55
X106.0Y-96.2
X106.15Y-99.2
X106.2Y-100.875
X106.3Y-82.55
X106.35Y-79.575
X106.55Y-120.625
X106.55Y-121.325
X107.112Y-76.013
X107.25Y-120.625
X107.25Y-121.325
X107.4Y-74.1
X107.4Y-91.55
X107.5Y-60.5
X107.5Y-88.25
X108.175Y-109.425
X108.9Y-82.9
X109.1Y-76.8
X109.2Y-88.7
X109.45Y-94.35
X109.6Y-97.525
X109.95Y-95.45
X110.5Y-90.1
X110.55Y-87.4
X110.55Y-91.375
X110.55Y-93.45
X110.55Y-94.225
X110.666Y-97.434
X110.75Y-96.4
X110.8Y-82.8
X110.8Y-89.0
X111.05Y-108.475
X111.55Y-84.1
X111.7Y-108.475
X112.15Y-77.75
X112.18Y-87.53
X112.3Y-85.5
X112.5Y-60.5
X113.8Y-86.4
X114.03Y-87.33
X114.35Y-81.3
X114.45Y-90.1
X114.5Y-76.85
X114.6Y-109.45
X114.65Y-96.15
X114.7Y-93.425
X114.7Y-99.125
X114.95Y-85.975
X115.4Y-91.3
X115.5Y-93.45
X115.825Y-94.975
X115.89Y-89.0
X115.895Y-90.105
X115.96Y-87.89
X116.825Y-91.95
X116.95Y-92.7
X117.25Y-85.35
X117.25Y-87.35
X117.3Y-99.7
X117.5Y-60.5
X118.7Y-88.65
X118.75Y-83.45
X119.0Y-95.25
X119.41Y-99.06
X120.325Y-99.0
X120.59Y-89.89
X120.65Y-93.45
X120.7Y-82.9
X121.2Y-104.5
X121.525Y-85.8
X121.95Y-104.5
X122.0Y-99.05
X122.1Y-116.55
X122.3Y-82.9
X122.5Y-60.5
X122.512Y-89.888
X122.875Y-98.9
X123.225Y-93.175
X123.725Y-101.575
X123.9Y-99.125
X124.225Y-93.175
X124.25Y-83.45
X124.3Y-88.65
X124.48Y-97.15
X124.48Y-98.22
X124.49Y-94.94
X124.5Y-93.95
X124.5Y-95.95
X125.3Y-89.45
X125.312Y-102.9
X125.375Y-109.35
X125.85Y-85.35
X125.85Y-87.25
X126.0Y-88.85
X126.725Y-120.85
X127.275Y-89.275
X127.5Y-60.5
X128.432Y-99.221
X128.456Y-97.75
X128.475Y-86.4
X129.675Y-87.375
X129.725Y-89.275
X129.725Y-92.6
X130.15Y-94.0
X130.15Y-95.5
X130.15Y-97.0
X130.15Y-98.5
X130.3Y-117.275
X131.45Y-93.75
X131.725Y-105.8
X131.8Y-89.35
X131.825Y-109.4
X132.5Y-60.5
X132.625Y-93.8
X133.25Y-105.775
X133.275Y-101.275
X133.6Y-92.6
X134.8Y-105.825
X134.95Y-88.575
X136.2Y-89.35
X136.25Y-101.8
X136.25Y-105.825
X137.5Y-60.5
X137.95Y-89.35
X139.5Y-64.0
X139.5Y-69.0
X139.5Y-74.0
X139.5Y-79.0
X139.5Y-84.0
X139.8Y-89.35
T2
X57.165Y-132.615
X58.435Y-130.075
X59.705Y-132.615
X60.975Y-130.075
X89.255Y-75.65
X90.525Y-73.11
X91.795Y-75.65
X93.065Y-73.11
X94.335Y-75.65
X95.605Y-73.11
X96.875Y-75.65
X98.145Y-73.11
X99.415Y-75.65
X100.685Y-73.11
X110.05Y-75.662
X111.32Y-73.123
X112.59Y-75.662
X113.86Y-73.123
X115.13Y-75.662
X116.4Y-73.123
X117.67Y-75.662
X118.94Y-73.123
T3
X115.555Y-122.04
X116.825Y-119.5
X118.095Y-122.04
X119.365Y-119.5
X120.635Y-122.04
X121.905Y-119.5
X123.175Y-122.04
X124.445Y-119.5
T4
X62.485Y-101.7
X65.025Y-101.7
X67.565Y-101.7
X70.105Y-101.7
X71.45Y-132.625
X73.99Y-132.625
X80.875Y-108.26
X80.875Y-110.8
X80.875Y-113.34
T5
X114.535Y-114.67
X117.075Y-114.67
X122.925Y-114.67
X125.465Y-114.67
T6
X70.4Y-63.257
X70.4Y-84.057
T7
X112.1Y-125.34
X127.9Y-125.34
M30
