%TF.GenerationSoftware,KiCad,Pcbnew,8.0.9*%
%TF.CreationDate,2025-05-18T21:42:01+02:00*%
%TF.ProjectId,sensor-hub,73656e73-6f72-42d6-9875-622e6b696361,rev?*%
%TF.SameCoordinates,Original*%
%TF.FileFunction,Drillmap*%
%TF.FilePolarity,Positive*%
%FSLAX45Y45*%
G04 Gerber Fmt 4.5, Leading zero omitted, Abs format (unit mm)*
G04 Created by KiCad (PCBNEW 8.0.9) date 2025-05-18 21:42:01*
%MOMM*%
%LPD*%
G01*
G04 APERTURE LIST*
%ADD10C,0.050000*%
%ADD11C,0.200000*%
%ADD12C,0.120000*%
%ADD13C,0.150000*%
%ADD14C,0.300000*%
%ADD15C,0.325000*%
G04 APERTURE END LIST*
D10*
X4500000Y-5900000D02*
X14100000Y-5900000D01*
X14100000Y-14000000D01*
X4500000Y-14000000D01*
X4500000Y-5900000D01*
D11*
D12*
X8452500Y-12390000D02*
X8572500Y-12510000D01*
X8572500Y-12390000D02*
X8452500Y-12510000D01*
X9452500Y-12390000D02*
X9572500Y-12510000D01*
X9572500Y-12390000D02*
X9452500Y-12510000D01*
D13*
X6312500Y-13187500D02*
G75*
G02*
X6162500Y-13187500I-75000J0D01*
G01*
X6162500Y-13187500D02*
G75*
G02*
X6312500Y-13187500I75000J0D01*
G01*
X10283500Y-7491000D02*
G75*
G02*
X10133500Y-7491000I-75000J0D01*
G01*
X10133500Y-7491000D02*
G75*
G02*
X10283500Y-7491000I75000J0D01*
G01*
X12109000Y-7492250D02*
G75*
G02*
X11959000Y-7492250I-75000J0D01*
G01*
X11959000Y-7492250D02*
G75*
G02*
X12109000Y-7492250I75000J0D01*
G01*
D14*
X5000000Y-7250000D02*
X5000000Y-7550000D01*
X4850000Y-7400000D02*
X5150000Y-7400000D01*
X5000000Y-12350000D02*
X5000000Y-12650000D01*
X4850000Y-12500000D02*
X5150000Y-12500000D01*
X13600000Y-7250000D02*
X13600000Y-7550000D01*
X13450000Y-7400000D02*
X13750000Y-7400000D01*
X13600000Y-12350000D02*
X13600000Y-12650000D01*
X13450000Y-12500000D02*
X13750000Y-12500000D01*
D15*
X11543406Y-12953906D02*
X11543406Y-12724094D01*
X11313594Y-12724094D01*
X11313594Y-12953906D01*
X11543406Y-12953906D01*
X12686406Y-12953906D02*
X12686406Y-12724094D01*
X12456594Y-12724094D01*
X12456594Y-12953906D01*
X12686406Y-12953906D01*
D11*
X4758277Y-14313984D02*
X4758277Y-14113984D01*
X4758277Y-14113984D02*
X4805896Y-14113984D01*
X4805896Y-14113984D02*
X4834467Y-14123508D01*
X4834467Y-14123508D02*
X4853515Y-14142555D01*
X4853515Y-14142555D02*
X4863039Y-14161603D01*
X4863039Y-14161603D02*
X4872563Y-14199698D01*
X4872563Y-14199698D02*
X4872563Y-14228269D01*
X4872563Y-14228269D02*
X4863039Y-14266365D01*
X4863039Y-14266365D02*
X4853515Y-14285412D01*
X4853515Y-14285412D02*
X4834467Y-14304460D01*
X4834467Y-14304460D02*
X4805896Y-14313984D01*
X4805896Y-14313984D02*
X4758277Y-14313984D01*
X4958277Y-14313984D02*
X4958277Y-14180650D01*
X4958277Y-14218746D02*
X4967801Y-14199698D01*
X4967801Y-14199698D02*
X4977324Y-14190174D01*
X4977324Y-14190174D02*
X4996372Y-14180650D01*
X4996372Y-14180650D02*
X5015420Y-14180650D01*
X5082086Y-14313984D02*
X5082086Y-14180650D01*
X5082086Y-14113984D02*
X5072563Y-14123508D01*
X5072563Y-14123508D02*
X5082086Y-14133031D01*
X5082086Y-14133031D02*
X5091610Y-14123508D01*
X5091610Y-14123508D02*
X5082086Y-14113984D01*
X5082086Y-14113984D02*
X5082086Y-14133031D01*
X5205896Y-14313984D02*
X5186848Y-14304460D01*
X5186848Y-14304460D02*
X5177324Y-14285412D01*
X5177324Y-14285412D02*
X5177324Y-14113984D01*
X5310658Y-14313984D02*
X5291610Y-14304460D01*
X5291610Y-14304460D02*
X5282086Y-14285412D01*
X5282086Y-14285412D02*
X5282086Y-14113984D01*
X5539229Y-14313984D02*
X5539229Y-14113984D01*
X5539229Y-14113984D02*
X5605896Y-14256841D01*
X5605896Y-14256841D02*
X5672562Y-14113984D01*
X5672562Y-14113984D02*
X5672562Y-14313984D01*
X5853515Y-14313984D02*
X5853515Y-14209222D01*
X5853515Y-14209222D02*
X5843991Y-14190174D01*
X5843991Y-14190174D02*
X5824943Y-14180650D01*
X5824943Y-14180650D02*
X5786848Y-14180650D01*
X5786848Y-14180650D02*
X5767801Y-14190174D01*
X5853515Y-14304460D02*
X5834467Y-14313984D01*
X5834467Y-14313984D02*
X5786848Y-14313984D01*
X5786848Y-14313984D02*
X5767801Y-14304460D01*
X5767801Y-14304460D02*
X5758277Y-14285412D01*
X5758277Y-14285412D02*
X5758277Y-14266365D01*
X5758277Y-14266365D02*
X5767801Y-14247317D01*
X5767801Y-14247317D02*
X5786848Y-14237793D01*
X5786848Y-14237793D02*
X5834467Y-14237793D01*
X5834467Y-14237793D02*
X5853515Y-14228269D01*
X5948753Y-14180650D02*
X5948753Y-14380650D01*
X5948753Y-14190174D02*
X5967801Y-14180650D01*
X5967801Y-14180650D02*
X6005896Y-14180650D01*
X6005896Y-14180650D02*
X6024943Y-14190174D01*
X6024943Y-14190174D02*
X6034467Y-14199698D01*
X6034467Y-14199698D02*
X6043991Y-14218746D01*
X6043991Y-14218746D02*
X6043991Y-14275888D01*
X6043991Y-14275888D02*
X6034467Y-14294936D01*
X6034467Y-14294936D02*
X6024943Y-14304460D01*
X6024943Y-14304460D02*
X6005896Y-14313984D01*
X6005896Y-14313984D02*
X5967801Y-14313984D01*
X5967801Y-14313984D02*
X5948753Y-14304460D01*
X6129705Y-14294936D02*
X6139229Y-14304460D01*
X6139229Y-14304460D02*
X6129705Y-14313984D01*
X6129705Y-14313984D02*
X6120182Y-14304460D01*
X6120182Y-14304460D02*
X6129705Y-14294936D01*
X6129705Y-14294936D02*
X6129705Y-14313984D01*
X6129705Y-14190174D02*
X6139229Y-14199698D01*
X6139229Y-14199698D02*
X6129705Y-14209222D01*
X6129705Y-14209222D02*
X6120182Y-14199698D01*
X6120182Y-14199698D02*
X6129705Y-14190174D01*
X6129705Y-14190174D02*
X6129705Y-14209222D01*
D12*
X4377500Y-14582500D02*
X4497500Y-14702500D01*
X4497500Y-14582500D02*
X4377500Y-14702500D01*
D11*
X4863039Y-14733984D02*
X4748753Y-14733984D01*
X4805896Y-14733984D02*
X4805896Y-14533984D01*
X4805896Y-14533984D02*
X4786848Y-14562555D01*
X4786848Y-14562555D02*
X4767801Y-14581603D01*
X4767801Y-14581603D02*
X4748753Y-14591127D01*
X4948753Y-14714936D02*
X4958277Y-14724460D01*
X4958277Y-14724460D02*
X4948753Y-14733984D01*
X4948753Y-14733984D02*
X4939229Y-14724460D01*
X4939229Y-14724460D02*
X4948753Y-14714936D01*
X4948753Y-14714936D02*
X4948753Y-14733984D01*
X5034467Y-14553031D02*
X5043991Y-14543508D01*
X5043991Y-14543508D02*
X5063039Y-14533984D01*
X5063039Y-14533984D02*
X5110658Y-14533984D01*
X5110658Y-14533984D02*
X5129705Y-14543508D01*
X5129705Y-14543508D02*
X5139229Y-14553031D01*
X5139229Y-14553031D02*
X5148753Y-14572079D01*
X5148753Y-14572079D02*
X5148753Y-14591127D01*
X5148753Y-14591127D02*
X5139229Y-14619698D01*
X5139229Y-14619698D02*
X5024944Y-14733984D01*
X5024944Y-14733984D02*
X5148753Y-14733984D01*
X5272563Y-14533984D02*
X5291610Y-14533984D01*
X5291610Y-14533984D02*
X5310658Y-14543508D01*
X5310658Y-14543508D02*
X5320182Y-14553031D01*
X5320182Y-14553031D02*
X5329705Y-14572079D01*
X5329705Y-14572079D02*
X5339229Y-14610174D01*
X5339229Y-14610174D02*
X5339229Y-14657793D01*
X5339229Y-14657793D02*
X5329705Y-14695888D01*
X5329705Y-14695888D02*
X5320182Y-14714936D01*
X5320182Y-14714936D02*
X5310658Y-14724460D01*
X5310658Y-14724460D02*
X5291610Y-14733984D01*
X5291610Y-14733984D02*
X5272563Y-14733984D01*
X5272563Y-14733984D02*
X5253515Y-14724460D01*
X5253515Y-14724460D02*
X5243991Y-14714936D01*
X5243991Y-14714936D02*
X5234467Y-14695888D01*
X5234467Y-14695888D02*
X5224944Y-14657793D01*
X5224944Y-14657793D02*
X5224944Y-14610174D01*
X5224944Y-14610174D02*
X5234467Y-14572079D01*
X5234467Y-14572079D02*
X5243991Y-14553031D01*
X5243991Y-14553031D02*
X5253515Y-14543508D01*
X5253515Y-14543508D02*
X5272563Y-14533984D01*
X5463039Y-14533984D02*
X5482086Y-14533984D01*
X5482086Y-14533984D02*
X5501134Y-14543508D01*
X5501134Y-14543508D02*
X5510658Y-14553031D01*
X5510658Y-14553031D02*
X5520182Y-14572079D01*
X5520182Y-14572079D02*
X5529705Y-14610174D01*
X5529705Y-14610174D02*
X5529705Y-14657793D01*
X5529705Y-14657793D02*
X5520182Y-14695888D01*
X5520182Y-14695888D02*
X5510658Y-14714936D01*
X5510658Y-14714936D02*
X5501134Y-14724460D01*
X5501134Y-14724460D02*
X5482086Y-14733984D01*
X5482086Y-14733984D02*
X5463039Y-14733984D01*
X5463039Y-14733984D02*
X5443991Y-14724460D01*
X5443991Y-14724460D02*
X5434467Y-14714936D01*
X5434467Y-14714936D02*
X5424944Y-14695888D01*
X5424944Y-14695888D02*
X5415420Y-14657793D01*
X5415420Y-14657793D02*
X5415420Y-14610174D01*
X5415420Y-14610174D02*
X5424944Y-14572079D01*
X5424944Y-14572079D02*
X5434467Y-14553031D01*
X5434467Y-14553031D02*
X5443991Y-14543508D01*
X5443991Y-14543508D02*
X5463039Y-14533984D01*
X5615420Y-14733984D02*
X5615420Y-14600650D01*
X5615420Y-14619698D02*
X5624943Y-14610174D01*
X5624943Y-14610174D02*
X5643991Y-14600650D01*
X5643991Y-14600650D02*
X5672563Y-14600650D01*
X5672563Y-14600650D02*
X5691610Y-14610174D01*
X5691610Y-14610174D02*
X5701134Y-14629222D01*
X5701134Y-14629222D02*
X5701134Y-14733984D01*
X5701134Y-14629222D02*
X5710658Y-14610174D01*
X5710658Y-14610174D02*
X5729705Y-14600650D01*
X5729705Y-14600650D02*
X5758277Y-14600650D01*
X5758277Y-14600650D02*
X5777324Y-14610174D01*
X5777324Y-14610174D02*
X5786848Y-14629222D01*
X5786848Y-14629222D02*
X5786848Y-14733984D01*
X5882086Y-14733984D02*
X5882086Y-14600650D01*
X5882086Y-14619698D02*
X5891610Y-14610174D01*
X5891610Y-14610174D02*
X5910658Y-14600650D01*
X5910658Y-14600650D02*
X5939229Y-14600650D01*
X5939229Y-14600650D02*
X5958277Y-14610174D01*
X5958277Y-14610174D02*
X5967801Y-14629222D01*
X5967801Y-14629222D02*
X5967801Y-14733984D01*
X5967801Y-14629222D02*
X5977324Y-14610174D01*
X5977324Y-14610174D02*
X5996372Y-14600650D01*
X5996372Y-14600650D02*
X6024943Y-14600650D01*
X6024943Y-14600650D02*
X6043991Y-14610174D01*
X6043991Y-14610174D02*
X6053515Y-14629222D01*
X6053515Y-14629222D02*
X6053515Y-14733984D01*
X6443991Y-14524460D02*
X6272563Y-14781603D01*
X6701134Y-14533984D02*
X6720182Y-14533984D01*
X6720182Y-14533984D02*
X6739229Y-14543508D01*
X6739229Y-14543508D02*
X6748753Y-14553031D01*
X6748753Y-14553031D02*
X6758277Y-14572079D01*
X6758277Y-14572079D02*
X6767801Y-14610174D01*
X6767801Y-14610174D02*
X6767801Y-14657793D01*
X6767801Y-14657793D02*
X6758277Y-14695888D01*
X6758277Y-14695888D02*
X6748753Y-14714936D01*
X6748753Y-14714936D02*
X6739229Y-14724460D01*
X6739229Y-14724460D02*
X6720182Y-14733984D01*
X6720182Y-14733984D02*
X6701134Y-14733984D01*
X6701134Y-14733984D02*
X6682086Y-14724460D01*
X6682086Y-14724460D02*
X6672563Y-14714936D01*
X6672563Y-14714936D02*
X6663039Y-14695888D01*
X6663039Y-14695888D02*
X6653515Y-14657793D01*
X6653515Y-14657793D02*
X6653515Y-14610174D01*
X6653515Y-14610174D02*
X6663039Y-14572079D01*
X6663039Y-14572079D02*
X6672563Y-14553031D01*
X6672563Y-14553031D02*
X6682086Y-14543508D01*
X6682086Y-14543508D02*
X6701134Y-14533984D01*
X6853515Y-14714936D02*
X6863039Y-14724460D01*
X6863039Y-14724460D02*
X6853515Y-14733984D01*
X6853515Y-14733984D02*
X6843991Y-14724460D01*
X6843991Y-14724460D02*
X6853515Y-14714936D01*
X6853515Y-14714936D02*
X6853515Y-14733984D01*
X6986848Y-14533984D02*
X7005896Y-14533984D01*
X7005896Y-14533984D02*
X7024944Y-14543508D01*
X7024944Y-14543508D02*
X7034467Y-14553031D01*
X7034467Y-14553031D02*
X7043991Y-14572079D01*
X7043991Y-14572079D02*
X7053515Y-14610174D01*
X7053515Y-14610174D02*
X7053515Y-14657793D01*
X7053515Y-14657793D02*
X7043991Y-14695888D01*
X7043991Y-14695888D02*
X7034467Y-14714936D01*
X7034467Y-14714936D02*
X7024944Y-14724460D01*
X7024944Y-14724460D02*
X7005896Y-14733984D01*
X7005896Y-14733984D02*
X6986848Y-14733984D01*
X6986848Y-14733984D02*
X6967801Y-14724460D01*
X6967801Y-14724460D02*
X6958277Y-14714936D01*
X6958277Y-14714936D02*
X6948753Y-14695888D01*
X6948753Y-14695888D02*
X6939229Y-14657793D01*
X6939229Y-14657793D02*
X6939229Y-14610174D01*
X6939229Y-14610174D02*
X6948753Y-14572079D01*
X6948753Y-14572079D02*
X6958277Y-14553031D01*
X6958277Y-14553031D02*
X6967801Y-14543508D01*
X6967801Y-14543508D02*
X6986848Y-14533984D01*
X7224944Y-14600650D02*
X7224944Y-14733984D01*
X7177325Y-14524460D02*
X7129706Y-14667317D01*
X7129706Y-14667317D02*
X7253515Y-14667317D01*
X7310658Y-14533984D02*
X7443991Y-14533984D01*
X7443991Y-14533984D02*
X7358277Y-14733984D01*
X7510658Y-14553031D02*
X7520182Y-14543508D01*
X7520182Y-14543508D02*
X7539229Y-14533984D01*
X7539229Y-14533984D02*
X7586848Y-14533984D01*
X7586848Y-14533984D02*
X7605896Y-14543508D01*
X7605896Y-14543508D02*
X7615420Y-14553031D01*
X7615420Y-14553031D02*
X7624944Y-14572079D01*
X7624944Y-14572079D02*
X7624944Y-14591127D01*
X7624944Y-14591127D02*
X7615420Y-14619698D01*
X7615420Y-14619698D02*
X7501134Y-14733984D01*
X7501134Y-14733984D02*
X7624944Y-14733984D01*
X7701134Y-14533984D02*
X7701134Y-14572079D01*
X7777325Y-14533984D02*
X7777325Y-14572079D01*
X8072563Y-14810174D02*
X8063039Y-14800650D01*
X8063039Y-14800650D02*
X8043991Y-14772079D01*
X8043991Y-14772079D02*
X8034468Y-14753031D01*
X8034468Y-14753031D02*
X8024944Y-14724460D01*
X8024944Y-14724460D02*
X8015420Y-14676841D01*
X8015420Y-14676841D02*
X8015420Y-14638746D01*
X8015420Y-14638746D02*
X8024944Y-14591127D01*
X8024944Y-14591127D02*
X8034468Y-14562555D01*
X8034468Y-14562555D02*
X8043991Y-14543508D01*
X8043991Y-14543508D02*
X8063039Y-14514936D01*
X8063039Y-14514936D02*
X8072563Y-14505412D01*
X8139229Y-14553031D02*
X8148753Y-14543508D01*
X8148753Y-14543508D02*
X8167801Y-14533984D01*
X8167801Y-14533984D02*
X8215420Y-14533984D01*
X8215420Y-14533984D02*
X8234468Y-14543508D01*
X8234468Y-14543508D02*
X8243991Y-14553031D01*
X8243991Y-14553031D02*
X8253515Y-14572079D01*
X8253515Y-14572079D02*
X8253515Y-14591127D01*
X8253515Y-14591127D02*
X8243991Y-14619698D01*
X8243991Y-14619698D02*
X8129706Y-14733984D01*
X8129706Y-14733984D02*
X8253515Y-14733984D01*
X8491611Y-14733984D02*
X8491611Y-14533984D01*
X8577325Y-14733984D02*
X8577325Y-14629222D01*
X8577325Y-14629222D02*
X8567801Y-14610174D01*
X8567801Y-14610174D02*
X8548753Y-14600650D01*
X8548753Y-14600650D02*
X8520182Y-14600650D01*
X8520182Y-14600650D02*
X8501134Y-14610174D01*
X8501134Y-14610174D02*
X8491611Y-14619698D01*
X8701134Y-14733984D02*
X8682087Y-14724460D01*
X8682087Y-14724460D02*
X8672563Y-14714936D01*
X8672563Y-14714936D02*
X8663039Y-14695888D01*
X8663039Y-14695888D02*
X8663039Y-14638746D01*
X8663039Y-14638746D02*
X8672563Y-14619698D01*
X8672563Y-14619698D02*
X8682087Y-14610174D01*
X8682087Y-14610174D02*
X8701134Y-14600650D01*
X8701134Y-14600650D02*
X8729706Y-14600650D01*
X8729706Y-14600650D02*
X8748753Y-14610174D01*
X8748753Y-14610174D02*
X8758277Y-14619698D01*
X8758277Y-14619698D02*
X8767801Y-14638746D01*
X8767801Y-14638746D02*
X8767801Y-14695888D01*
X8767801Y-14695888D02*
X8758277Y-14714936D01*
X8758277Y-14714936D02*
X8748753Y-14724460D01*
X8748753Y-14724460D02*
X8729706Y-14733984D01*
X8729706Y-14733984D02*
X8701134Y-14733984D01*
X8882087Y-14733984D02*
X8863039Y-14724460D01*
X8863039Y-14724460D02*
X8853515Y-14705412D01*
X8853515Y-14705412D02*
X8853515Y-14533984D01*
X9034468Y-14724460D02*
X9015420Y-14733984D01*
X9015420Y-14733984D02*
X8977325Y-14733984D01*
X8977325Y-14733984D02*
X8958277Y-14724460D01*
X8958277Y-14724460D02*
X8948753Y-14705412D01*
X8948753Y-14705412D02*
X8948753Y-14629222D01*
X8948753Y-14629222D02*
X8958277Y-14610174D01*
X8958277Y-14610174D02*
X8977325Y-14600650D01*
X8977325Y-14600650D02*
X9015420Y-14600650D01*
X9015420Y-14600650D02*
X9034468Y-14610174D01*
X9034468Y-14610174D02*
X9043992Y-14629222D01*
X9043992Y-14629222D02*
X9043992Y-14648269D01*
X9043992Y-14648269D02*
X8948753Y-14667317D01*
X9120182Y-14724460D02*
X9139230Y-14733984D01*
X9139230Y-14733984D02*
X9177325Y-14733984D01*
X9177325Y-14733984D02*
X9196373Y-14724460D01*
X9196373Y-14724460D02*
X9205896Y-14705412D01*
X9205896Y-14705412D02*
X9205896Y-14695888D01*
X9205896Y-14695888D02*
X9196373Y-14676841D01*
X9196373Y-14676841D02*
X9177325Y-14667317D01*
X9177325Y-14667317D02*
X9148753Y-14667317D01*
X9148753Y-14667317D02*
X9129706Y-14657793D01*
X9129706Y-14657793D02*
X9120182Y-14638746D01*
X9120182Y-14638746D02*
X9120182Y-14629222D01*
X9120182Y-14629222D02*
X9129706Y-14610174D01*
X9129706Y-14610174D02*
X9148753Y-14600650D01*
X9148753Y-14600650D02*
X9177325Y-14600650D01*
X9177325Y-14600650D02*
X9196373Y-14610174D01*
X9272563Y-14810174D02*
X9282087Y-14800650D01*
X9282087Y-14800650D02*
X9301134Y-14772079D01*
X9301134Y-14772079D02*
X9310658Y-14753031D01*
X9310658Y-14753031D02*
X9320182Y-14724460D01*
X9320182Y-14724460D02*
X9329706Y-14676841D01*
X9329706Y-14676841D02*
X9329706Y-14638746D01*
X9329706Y-14638746D02*
X9320182Y-14591127D01*
X9320182Y-14591127D02*
X9310658Y-14562555D01*
X9310658Y-14562555D02*
X9301134Y-14543508D01*
X9301134Y-14543508D02*
X9282087Y-14514936D01*
X9282087Y-14514936D02*
X9272563Y-14505412D01*
X9634468Y-14810174D02*
X9624944Y-14800650D01*
X9624944Y-14800650D02*
X9605896Y-14772079D01*
X9605896Y-14772079D02*
X9596373Y-14753031D01*
X9596373Y-14753031D02*
X9586849Y-14724460D01*
X9586849Y-14724460D02*
X9577325Y-14676841D01*
X9577325Y-14676841D02*
X9577325Y-14638746D01*
X9577325Y-14638746D02*
X9586849Y-14591127D01*
X9586849Y-14591127D02*
X9596373Y-14562555D01*
X9596373Y-14562555D02*
X9605896Y-14543508D01*
X9605896Y-14543508D02*
X9624944Y-14514936D01*
X9624944Y-14514936D02*
X9634468Y-14505412D01*
X9710658Y-14600650D02*
X9710658Y-14733984D01*
X9710658Y-14619698D02*
X9720182Y-14610174D01*
X9720182Y-14610174D02*
X9739230Y-14600650D01*
X9739230Y-14600650D02*
X9767801Y-14600650D01*
X9767801Y-14600650D02*
X9786849Y-14610174D01*
X9786849Y-14610174D02*
X9796373Y-14629222D01*
X9796373Y-14629222D02*
X9796373Y-14733984D01*
X9920182Y-14733984D02*
X9901134Y-14724460D01*
X9901134Y-14724460D02*
X9891611Y-14714936D01*
X9891611Y-14714936D02*
X9882087Y-14695888D01*
X9882087Y-14695888D02*
X9882087Y-14638746D01*
X9882087Y-14638746D02*
X9891611Y-14619698D01*
X9891611Y-14619698D02*
X9901134Y-14610174D01*
X9901134Y-14610174D02*
X9920182Y-14600650D01*
X9920182Y-14600650D02*
X9948754Y-14600650D01*
X9948754Y-14600650D02*
X9967801Y-14610174D01*
X9967801Y-14610174D02*
X9977325Y-14619698D01*
X9977325Y-14619698D02*
X9986849Y-14638746D01*
X9986849Y-14638746D02*
X9986849Y-14695888D01*
X9986849Y-14695888D02*
X9977325Y-14714936D01*
X9977325Y-14714936D02*
X9967801Y-14724460D01*
X9967801Y-14724460D02*
X9948754Y-14733984D01*
X9948754Y-14733984D02*
X9920182Y-14733984D01*
X10043992Y-14600650D02*
X10120182Y-14600650D01*
X10072563Y-14533984D02*
X10072563Y-14705412D01*
X10072563Y-14705412D02*
X10082087Y-14724460D01*
X10082087Y-14724460D02*
X10101134Y-14733984D01*
X10101134Y-14733984D02*
X10120182Y-14733984D01*
X10339230Y-14600650D02*
X10339230Y-14800650D01*
X10339230Y-14610174D02*
X10358277Y-14600650D01*
X10358277Y-14600650D02*
X10396373Y-14600650D01*
X10396373Y-14600650D02*
X10415420Y-14610174D01*
X10415420Y-14610174D02*
X10424944Y-14619698D01*
X10424944Y-14619698D02*
X10434468Y-14638746D01*
X10434468Y-14638746D02*
X10434468Y-14695888D01*
X10434468Y-14695888D02*
X10424944Y-14714936D01*
X10424944Y-14714936D02*
X10415420Y-14724460D01*
X10415420Y-14724460D02*
X10396373Y-14733984D01*
X10396373Y-14733984D02*
X10358277Y-14733984D01*
X10358277Y-14733984D02*
X10339230Y-14724460D01*
X10548754Y-14733984D02*
X10529706Y-14724460D01*
X10529706Y-14724460D02*
X10520182Y-14705412D01*
X10520182Y-14705412D02*
X10520182Y-14533984D01*
X10710658Y-14733984D02*
X10710658Y-14629222D01*
X10710658Y-14629222D02*
X10701135Y-14610174D01*
X10701135Y-14610174D02*
X10682087Y-14600650D01*
X10682087Y-14600650D02*
X10643992Y-14600650D01*
X10643992Y-14600650D02*
X10624944Y-14610174D01*
X10710658Y-14724460D02*
X10691611Y-14733984D01*
X10691611Y-14733984D02*
X10643992Y-14733984D01*
X10643992Y-14733984D02*
X10624944Y-14724460D01*
X10624944Y-14724460D02*
X10615420Y-14705412D01*
X10615420Y-14705412D02*
X10615420Y-14686365D01*
X10615420Y-14686365D02*
X10624944Y-14667317D01*
X10624944Y-14667317D02*
X10643992Y-14657793D01*
X10643992Y-14657793D02*
X10691611Y-14657793D01*
X10691611Y-14657793D02*
X10710658Y-14648269D01*
X10777325Y-14600650D02*
X10853515Y-14600650D01*
X10805896Y-14533984D02*
X10805896Y-14705412D01*
X10805896Y-14705412D02*
X10815420Y-14724460D01*
X10815420Y-14724460D02*
X10834468Y-14733984D01*
X10834468Y-14733984D02*
X10853515Y-14733984D01*
X10996373Y-14724460D02*
X10977325Y-14733984D01*
X10977325Y-14733984D02*
X10939230Y-14733984D01*
X10939230Y-14733984D02*
X10920182Y-14724460D01*
X10920182Y-14724460D02*
X10910658Y-14705412D01*
X10910658Y-14705412D02*
X10910658Y-14629222D01*
X10910658Y-14629222D02*
X10920182Y-14610174D01*
X10920182Y-14610174D02*
X10939230Y-14600650D01*
X10939230Y-14600650D02*
X10977325Y-14600650D01*
X10977325Y-14600650D02*
X10996373Y-14610174D01*
X10996373Y-14610174D02*
X11005896Y-14629222D01*
X11005896Y-14629222D02*
X11005896Y-14648269D01*
X11005896Y-14648269D02*
X10910658Y-14667317D01*
X11177325Y-14733984D02*
X11177325Y-14533984D01*
X11177325Y-14724460D02*
X11158277Y-14733984D01*
X11158277Y-14733984D02*
X11120182Y-14733984D01*
X11120182Y-14733984D02*
X11101135Y-14724460D01*
X11101135Y-14724460D02*
X11091611Y-14714936D01*
X11091611Y-14714936D02*
X11082087Y-14695888D01*
X11082087Y-14695888D02*
X11082087Y-14638746D01*
X11082087Y-14638746D02*
X11091611Y-14619698D01*
X11091611Y-14619698D02*
X11101135Y-14610174D01*
X11101135Y-14610174D02*
X11120182Y-14600650D01*
X11120182Y-14600650D02*
X11158277Y-14600650D01*
X11158277Y-14600650D02*
X11177325Y-14610174D01*
X11253515Y-14810174D02*
X11263039Y-14800650D01*
X11263039Y-14800650D02*
X11282087Y-14772079D01*
X11282087Y-14772079D02*
X11291611Y-14753031D01*
X11291611Y-14753031D02*
X11301134Y-14724460D01*
X11301134Y-14724460D02*
X11310658Y-14676841D01*
X11310658Y-14676841D02*
X11310658Y-14638746D01*
X11310658Y-14638746D02*
X11301134Y-14591127D01*
X11301134Y-14591127D02*
X11291611Y-14562555D01*
X11291611Y-14562555D02*
X11282087Y-14543508D01*
X11282087Y-14543508D02*
X11263039Y-14514936D01*
X11263039Y-14514936D02*
X11253515Y-14505412D01*
D13*
X4497500Y-14906500D02*
G75*
G02*
X4347500Y-14906500I-75000J0D01*
G01*
X4347500Y-14906500D02*
G75*
G02*
X4497500Y-14906500I75000J0D01*
G01*
D11*
X4863039Y-14997984D02*
X4748753Y-14997984D01*
X4805896Y-14997984D02*
X4805896Y-14797984D01*
X4805896Y-14797984D02*
X4786848Y-14826555D01*
X4786848Y-14826555D02*
X4767801Y-14845603D01*
X4767801Y-14845603D02*
X4748753Y-14855127D01*
X4948753Y-14978936D02*
X4958277Y-14988460D01*
X4958277Y-14988460D02*
X4948753Y-14997984D01*
X4948753Y-14997984D02*
X4939229Y-14988460D01*
X4939229Y-14988460D02*
X4948753Y-14978936D01*
X4948753Y-14978936D02*
X4948753Y-14997984D01*
X5139229Y-14797984D02*
X5043991Y-14797984D01*
X5043991Y-14797984D02*
X5034467Y-14893222D01*
X5034467Y-14893222D02*
X5043991Y-14883698D01*
X5043991Y-14883698D02*
X5063039Y-14874174D01*
X5063039Y-14874174D02*
X5110658Y-14874174D01*
X5110658Y-14874174D02*
X5129705Y-14883698D01*
X5129705Y-14883698D02*
X5139229Y-14893222D01*
X5139229Y-14893222D02*
X5148753Y-14912269D01*
X5148753Y-14912269D02*
X5148753Y-14959888D01*
X5148753Y-14959888D02*
X5139229Y-14978936D01*
X5139229Y-14978936D02*
X5129705Y-14988460D01*
X5129705Y-14988460D02*
X5110658Y-14997984D01*
X5110658Y-14997984D02*
X5063039Y-14997984D01*
X5063039Y-14997984D02*
X5043991Y-14988460D01*
X5043991Y-14988460D02*
X5034467Y-14978936D01*
X5272563Y-14797984D02*
X5291610Y-14797984D01*
X5291610Y-14797984D02*
X5310658Y-14807508D01*
X5310658Y-14807508D02*
X5320182Y-14817031D01*
X5320182Y-14817031D02*
X5329705Y-14836079D01*
X5329705Y-14836079D02*
X5339229Y-14874174D01*
X5339229Y-14874174D02*
X5339229Y-14921793D01*
X5339229Y-14921793D02*
X5329705Y-14959888D01*
X5329705Y-14959888D02*
X5320182Y-14978936D01*
X5320182Y-14978936D02*
X5310658Y-14988460D01*
X5310658Y-14988460D02*
X5291610Y-14997984D01*
X5291610Y-14997984D02*
X5272563Y-14997984D01*
X5272563Y-14997984D02*
X5253515Y-14988460D01*
X5253515Y-14988460D02*
X5243991Y-14978936D01*
X5243991Y-14978936D02*
X5234467Y-14959888D01*
X5234467Y-14959888D02*
X5224944Y-14921793D01*
X5224944Y-14921793D02*
X5224944Y-14874174D01*
X5224944Y-14874174D02*
X5234467Y-14836079D01*
X5234467Y-14836079D02*
X5243991Y-14817031D01*
X5243991Y-14817031D02*
X5253515Y-14807508D01*
X5253515Y-14807508D02*
X5272563Y-14797984D01*
X5463039Y-14797984D02*
X5482086Y-14797984D01*
X5482086Y-14797984D02*
X5501134Y-14807508D01*
X5501134Y-14807508D02*
X5510658Y-14817031D01*
X5510658Y-14817031D02*
X5520182Y-14836079D01*
X5520182Y-14836079D02*
X5529705Y-14874174D01*
X5529705Y-14874174D02*
X5529705Y-14921793D01*
X5529705Y-14921793D02*
X5520182Y-14959888D01*
X5520182Y-14959888D02*
X5510658Y-14978936D01*
X5510658Y-14978936D02*
X5501134Y-14988460D01*
X5501134Y-14988460D02*
X5482086Y-14997984D01*
X5482086Y-14997984D02*
X5463039Y-14997984D01*
X5463039Y-14997984D02*
X5443991Y-14988460D01*
X5443991Y-14988460D02*
X5434467Y-14978936D01*
X5434467Y-14978936D02*
X5424944Y-14959888D01*
X5424944Y-14959888D02*
X5415420Y-14921793D01*
X5415420Y-14921793D02*
X5415420Y-14874174D01*
X5415420Y-14874174D02*
X5424944Y-14836079D01*
X5424944Y-14836079D02*
X5434467Y-14817031D01*
X5434467Y-14817031D02*
X5443991Y-14807508D01*
X5443991Y-14807508D02*
X5463039Y-14797984D01*
X5615420Y-14997984D02*
X5615420Y-14864650D01*
X5615420Y-14883698D02*
X5624943Y-14874174D01*
X5624943Y-14874174D02*
X5643991Y-14864650D01*
X5643991Y-14864650D02*
X5672563Y-14864650D01*
X5672563Y-14864650D02*
X5691610Y-14874174D01*
X5691610Y-14874174D02*
X5701134Y-14893222D01*
X5701134Y-14893222D02*
X5701134Y-14997984D01*
X5701134Y-14893222D02*
X5710658Y-14874174D01*
X5710658Y-14874174D02*
X5729705Y-14864650D01*
X5729705Y-14864650D02*
X5758277Y-14864650D01*
X5758277Y-14864650D02*
X5777324Y-14874174D01*
X5777324Y-14874174D02*
X5786848Y-14893222D01*
X5786848Y-14893222D02*
X5786848Y-14997984D01*
X5882086Y-14997984D02*
X5882086Y-14864650D01*
X5882086Y-14883698D02*
X5891610Y-14874174D01*
X5891610Y-14874174D02*
X5910658Y-14864650D01*
X5910658Y-14864650D02*
X5939229Y-14864650D01*
X5939229Y-14864650D02*
X5958277Y-14874174D01*
X5958277Y-14874174D02*
X5967801Y-14893222D01*
X5967801Y-14893222D02*
X5967801Y-14997984D01*
X5967801Y-14893222D02*
X5977324Y-14874174D01*
X5977324Y-14874174D02*
X5996372Y-14864650D01*
X5996372Y-14864650D02*
X6024943Y-14864650D01*
X6024943Y-14864650D02*
X6043991Y-14874174D01*
X6043991Y-14874174D02*
X6053515Y-14893222D01*
X6053515Y-14893222D02*
X6053515Y-14997984D01*
X6443991Y-14788460D02*
X6272563Y-15045603D01*
X6701134Y-14797984D02*
X6720182Y-14797984D01*
X6720182Y-14797984D02*
X6739229Y-14807508D01*
X6739229Y-14807508D02*
X6748753Y-14817031D01*
X6748753Y-14817031D02*
X6758277Y-14836079D01*
X6758277Y-14836079D02*
X6767801Y-14874174D01*
X6767801Y-14874174D02*
X6767801Y-14921793D01*
X6767801Y-14921793D02*
X6758277Y-14959888D01*
X6758277Y-14959888D02*
X6748753Y-14978936D01*
X6748753Y-14978936D02*
X6739229Y-14988460D01*
X6739229Y-14988460D02*
X6720182Y-14997984D01*
X6720182Y-14997984D02*
X6701134Y-14997984D01*
X6701134Y-14997984D02*
X6682086Y-14988460D01*
X6682086Y-14988460D02*
X6672563Y-14978936D01*
X6672563Y-14978936D02*
X6663039Y-14959888D01*
X6663039Y-14959888D02*
X6653515Y-14921793D01*
X6653515Y-14921793D02*
X6653515Y-14874174D01*
X6653515Y-14874174D02*
X6663039Y-14836079D01*
X6663039Y-14836079D02*
X6672563Y-14817031D01*
X6672563Y-14817031D02*
X6682086Y-14807508D01*
X6682086Y-14807508D02*
X6701134Y-14797984D01*
X6853515Y-14978936D02*
X6863039Y-14988460D01*
X6863039Y-14988460D02*
X6853515Y-14997984D01*
X6853515Y-14997984D02*
X6843991Y-14988460D01*
X6843991Y-14988460D02*
X6853515Y-14978936D01*
X6853515Y-14978936D02*
X6853515Y-14997984D01*
X6986848Y-14797984D02*
X7005896Y-14797984D01*
X7005896Y-14797984D02*
X7024944Y-14807508D01*
X7024944Y-14807508D02*
X7034467Y-14817031D01*
X7034467Y-14817031D02*
X7043991Y-14836079D01*
X7043991Y-14836079D02*
X7053515Y-14874174D01*
X7053515Y-14874174D02*
X7053515Y-14921793D01*
X7053515Y-14921793D02*
X7043991Y-14959888D01*
X7043991Y-14959888D02*
X7034467Y-14978936D01*
X7034467Y-14978936D02*
X7024944Y-14988460D01*
X7024944Y-14988460D02*
X7005896Y-14997984D01*
X7005896Y-14997984D02*
X6986848Y-14997984D01*
X6986848Y-14997984D02*
X6967801Y-14988460D01*
X6967801Y-14988460D02*
X6958277Y-14978936D01*
X6958277Y-14978936D02*
X6948753Y-14959888D01*
X6948753Y-14959888D02*
X6939229Y-14921793D01*
X6939229Y-14921793D02*
X6939229Y-14874174D01*
X6939229Y-14874174D02*
X6948753Y-14836079D01*
X6948753Y-14836079D02*
X6958277Y-14817031D01*
X6958277Y-14817031D02*
X6967801Y-14807508D01*
X6967801Y-14807508D02*
X6986848Y-14797984D01*
X7234467Y-14797984D02*
X7139229Y-14797984D01*
X7139229Y-14797984D02*
X7129706Y-14893222D01*
X7129706Y-14893222D02*
X7139229Y-14883698D01*
X7139229Y-14883698D02*
X7158277Y-14874174D01*
X7158277Y-14874174D02*
X7205896Y-14874174D01*
X7205896Y-14874174D02*
X7224944Y-14883698D01*
X7224944Y-14883698D02*
X7234467Y-14893222D01*
X7234467Y-14893222D02*
X7243991Y-14912269D01*
X7243991Y-14912269D02*
X7243991Y-14959888D01*
X7243991Y-14959888D02*
X7234467Y-14978936D01*
X7234467Y-14978936D02*
X7224944Y-14988460D01*
X7224944Y-14988460D02*
X7205896Y-14997984D01*
X7205896Y-14997984D02*
X7158277Y-14997984D01*
X7158277Y-14997984D02*
X7139229Y-14988460D01*
X7139229Y-14988460D02*
X7129706Y-14978936D01*
X7339229Y-14997984D02*
X7377325Y-14997984D01*
X7377325Y-14997984D02*
X7396372Y-14988460D01*
X7396372Y-14988460D02*
X7405896Y-14978936D01*
X7405896Y-14978936D02*
X7424944Y-14950365D01*
X7424944Y-14950365D02*
X7434467Y-14912269D01*
X7434467Y-14912269D02*
X7434467Y-14836079D01*
X7434467Y-14836079D02*
X7424944Y-14817031D01*
X7424944Y-14817031D02*
X7415420Y-14807508D01*
X7415420Y-14807508D02*
X7396372Y-14797984D01*
X7396372Y-14797984D02*
X7358277Y-14797984D01*
X7358277Y-14797984D02*
X7339229Y-14807508D01*
X7339229Y-14807508D02*
X7329706Y-14817031D01*
X7329706Y-14817031D02*
X7320182Y-14836079D01*
X7320182Y-14836079D02*
X7320182Y-14883698D01*
X7320182Y-14883698D02*
X7329706Y-14902746D01*
X7329706Y-14902746D02*
X7339229Y-14912269D01*
X7339229Y-14912269D02*
X7358277Y-14921793D01*
X7358277Y-14921793D02*
X7396372Y-14921793D01*
X7396372Y-14921793D02*
X7415420Y-14912269D01*
X7415420Y-14912269D02*
X7424944Y-14902746D01*
X7424944Y-14902746D02*
X7434467Y-14883698D01*
X7624944Y-14997984D02*
X7510658Y-14997984D01*
X7567801Y-14997984D02*
X7567801Y-14797984D01*
X7567801Y-14797984D02*
X7548753Y-14826555D01*
X7548753Y-14826555D02*
X7529706Y-14845603D01*
X7529706Y-14845603D02*
X7510658Y-14855127D01*
X7701134Y-14797984D02*
X7701134Y-14836079D01*
X7777325Y-14797984D02*
X7777325Y-14836079D01*
X8072563Y-15074174D02*
X8063039Y-15064650D01*
X8063039Y-15064650D02*
X8043991Y-15036079D01*
X8043991Y-15036079D02*
X8034468Y-15017031D01*
X8034468Y-15017031D02*
X8024944Y-14988460D01*
X8024944Y-14988460D02*
X8015420Y-14940841D01*
X8015420Y-14940841D02*
X8015420Y-14902746D01*
X8015420Y-14902746D02*
X8024944Y-14855127D01*
X8024944Y-14855127D02*
X8034468Y-14826555D01*
X8034468Y-14826555D02*
X8043991Y-14807508D01*
X8043991Y-14807508D02*
X8063039Y-14778936D01*
X8063039Y-14778936D02*
X8072563Y-14769412D01*
X8129706Y-14797984D02*
X8253515Y-14797984D01*
X8253515Y-14797984D02*
X8186848Y-14874174D01*
X8186848Y-14874174D02*
X8215420Y-14874174D01*
X8215420Y-14874174D02*
X8234468Y-14883698D01*
X8234468Y-14883698D02*
X8243991Y-14893222D01*
X8243991Y-14893222D02*
X8253515Y-14912269D01*
X8253515Y-14912269D02*
X8253515Y-14959888D01*
X8253515Y-14959888D02*
X8243991Y-14978936D01*
X8243991Y-14978936D02*
X8234468Y-14988460D01*
X8234468Y-14988460D02*
X8215420Y-14997984D01*
X8215420Y-14997984D02*
X8158277Y-14997984D01*
X8158277Y-14997984D02*
X8139229Y-14988460D01*
X8139229Y-14988460D02*
X8129706Y-14978936D01*
X8491611Y-14997984D02*
X8491611Y-14797984D01*
X8577325Y-14997984D02*
X8577325Y-14893222D01*
X8577325Y-14893222D02*
X8567801Y-14874174D01*
X8567801Y-14874174D02*
X8548753Y-14864650D01*
X8548753Y-14864650D02*
X8520182Y-14864650D01*
X8520182Y-14864650D02*
X8501134Y-14874174D01*
X8501134Y-14874174D02*
X8491611Y-14883698D01*
X8701134Y-14997984D02*
X8682087Y-14988460D01*
X8682087Y-14988460D02*
X8672563Y-14978936D01*
X8672563Y-14978936D02*
X8663039Y-14959888D01*
X8663039Y-14959888D02*
X8663039Y-14902746D01*
X8663039Y-14902746D02*
X8672563Y-14883698D01*
X8672563Y-14883698D02*
X8682087Y-14874174D01*
X8682087Y-14874174D02*
X8701134Y-14864650D01*
X8701134Y-14864650D02*
X8729706Y-14864650D01*
X8729706Y-14864650D02*
X8748753Y-14874174D01*
X8748753Y-14874174D02*
X8758277Y-14883698D01*
X8758277Y-14883698D02*
X8767801Y-14902746D01*
X8767801Y-14902746D02*
X8767801Y-14959888D01*
X8767801Y-14959888D02*
X8758277Y-14978936D01*
X8758277Y-14978936D02*
X8748753Y-14988460D01*
X8748753Y-14988460D02*
X8729706Y-14997984D01*
X8729706Y-14997984D02*
X8701134Y-14997984D01*
X8882087Y-14997984D02*
X8863039Y-14988460D01*
X8863039Y-14988460D02*
X8853515Y-14969412D01*
X8853515Y-14969412D02*
X8853515Y-14797984D01*
X9034468Y-14988460D02*
X9015420Y-14997984D01*
X9015420Y-14997984D02*
X8977325Y-14997984D01*
X8977325Y-14997984D02*
X8958277Y-14988460D01*
X8958277Y-14988460D02*
X8948753Y-14969412D01*
X8948753Y-14969412D02*
X8948753Y-14893222D01*
X8948753Y-14893222D02*
X8958277Y-14874174D01*
X8958277Y-14874174D02*
X8977325Y-14864650D01*
X8977325Y-14864650D02*
X9015420Y-14864650D01*
X9015420Y-14864650D02*
X9034468Y-14874174D01*
X9034468Y-14874174D02*
X9043992Y-14893222D01*
X9043992Y-14893222D02*
X9043992Y-14912269D01*
X9043992Y-14912269D02*
X8948753Y-14931317D01*
X9120182Y-14988460D02*
X9139230Y-14997984D01*
X9139230Y-14997984D02*
X9177325Y-14997984D01*
X9177325Y-14997984D02*
X9196373Y-14988460D01*
X9196373Y-14988460D02*
X9205896Y-14969412D01*
X9205896Y-14969412D02*
X9205896Y-14959888D01*
X9205896Y-14959888D02*
X9196373Y-14940841D01*
X9196373Y-14940841D02*
X9177325Y-14931317D01*
X9177325Y-14931317D02*
X9148753Y-14931317D01*
X9148753Y-14931317D02*
X9129706Y-14921793D01*
X9129706Y-14921793D02*
X9120182Y-14902746D01*
X9120182Y-14902746D02*
X9120182Y-14893222D01*
X9120182Y-14893222D02*
X9129706Y-14874174D01*
X9129706Y-14874174D02*
X9148753Y-14864650D01*
X9148753Y-14864650D02*
X9177325Y-14864650D01*
X9177325Y-14864650D02*
X9196373Y-14874174D01*
X9272563Y-15074174D02*
X9282087Y-15064650D01*
X9282087Y-15064650D02*
X9301134Y-15036079D01*
X9301134Y-15036079D02*
X9310658Y-15017031D01*
X9310658Y-15017031D02*
X9320182Y-14988460D01*
X9320182Y-14988460D02*
X9329706Y-14940841D01*
X9329706Y-14940841D02*
X9329706Y-14902746D01*
X9329706Y-14902746D02*
X9320182Y-14855127D01*
X9320182Y-14855127D02*
X9310658Y-14826555D01*
X9310658Y-14826555D02*
X9301134Y-14807508D01*
X9301134Y-14807508D02*
X9282087Y-14778936D01*
X9282087Y-14778936D02*
X9272563Y-14769412D01*
X9634468Y-15074174D02*
X9624944Y-15064650D01*
X9624944Y-15064650D02*
X9605896Y-15036079D01*
X9605896Y-15036079D02*
X9596373Y-15017031D01*
X9596373Y-15017031D02*
X9586849Y-14988460D01*
X9586849Y-14988460D02*
X9577325Y-14940841D01*
X9577325Y-14940841D02*
X9577325Y-14902746D01*
X9577325Y-14902746D02*
X9586849Y-14855127D01*
X9586849Y-14855127D02*
X9596373Y-14826555D01*
X9596373Y-14826555D02*
X9605896Y-14807508D01*
X9605896Y-14807508D02*
X9624944Y-14778936D01*
X9624944Y-14778936D02*
X9634468Y-14769412D01*
X9710658Y-14864650D02*
X9710658Y-14997984D01*
X9710658Y-14883698D02*
X9720182Y-14874174D01*
X9720182Y-14874174D02*
X9739230Y-14864650D01*
X9739230Y-14864650D02*
X9767801Y-14864650D01*
X9767801Y-14864650D02*
X9786849Y-14874174D01*
X9786849Y-14874174D02*
X9796373Y-14893222D01*
X9796373Y-14893222D02*
X9796373Y-14997984D01*
X9920182Y-14997984D02*
X9901134Y-14988460D01*
X9901134Y-14988460D02*
X9891611Y-14978936D01*
X9891611Y-14978936D02*
X9882087Y-14959888D01*
X9882087Y-14959888D02*
X9882087Y-14902746D01*
X9882087Y-14902746D02*
X9891611Y-14883698D01*
X9891611Y-14883698D02*
X9901134Y-14874174D01*
X9901134Y-14874174D02*
X9920182Y-14864650D01*
X9920182Y-14864650D02*
X9948754Y-14864650D01*
X9948754Y-14864650D02*
X9967801Y-14874174D01*
X9967801Y-14874174D02*
X9977325Y-14883698D01*
X9977325Y-14883698D02*
X9986849Y-14902746D01*
X9986849Y-14902746D02*
X9986849Y-14959888D01*
X9986849Y-14959888D02*
X9977325Y-14978936D01*
X9977325Y-14978936D02*
X9967801Y-14988460D01*
X9967801Y-14988460D02*
X9948754Y-14997984D01*
X9948754Y-14997984D02*
X9920182Y-14997984D01*
X10043992Y-14864650D02*
X10120182Y-14864650D01*
X10072563Y-14797984D02*
X10072563Y-14969412D01*
X10072563Y-14969412D02*
X10082087Y-14988460D01*
X10082087Y-14988460D02*
X10101134Y-14997984D01*
X10101134Y-14997984D02*
X10120182Y-14997984D01*
X10339230Y-14864650D02*
X10339230Y-15064650D01*
X10339230Y-14874174D02*
X10358277Y-14864650D01*
X10358277Y-14864650D02*
X10396373Y-14864650D01*
X10396373Y-14864650D02*
X10415420Y-14874174D01*
X10415420Y-14874174D02*
X10424944Y-14883698D01*
X10424944Y-14883698D02*
X10434468Y-14902746D01*
X10434468Y-14902746D02*
X10434468Y-14959888D01*
X10434468Y-14959888D02*
X10424944Y-14978936D01*
X10424944Y-14978936D02*
X10415420Y-14988460D01*
X10415420Y-14988460D02*
X10396373Y-14997984D01*
X10396373Y-14997984D02*
X10358277Y-14997984D01*
X10358277Y-14997984D02*
X10339230Y-14988460D01*
X10548754Y-14997984D02*
X10529706Y-14988460D01*
X10529706Y-14988460D02*
X10520182Y-14969412D01*
X10520182Y-14969412D02*
X10520182Y-14797984D01*
X10710658Y-14997984D02*
X10710658Y-14893222D01*
X10710658Y-14893222D02*
X10701135Y-14874174D01*
X10701135Y-14874174D02*
X10682087Y-14864650D01*
X10682087Y-14864650D02*
X10643992Y-14864650D01*
X10643992Y-14864650D02*
X10624944Y-14874174D01*
X10710658Y-14988460D02*
X10691611Y-14997984D01*
X10691611Y-14997984D02*
X10643992Y-14997984D01*
X10643992Y-14997984D02*
X10624944Y-14988460D01*
X10624944Y-14988460D02*
X10615420Y-14969412D01*
X10615420Y-14969412D02*
X10615420Y-14950365D01*
X10615420Y-14950365D02*
X10624944Y-14931317D01*
X10624944Y-14931317D02*
X10643992Y-14921793D01*
X10643992Y-14921793D02*
X10691611Y-14921793D01*
X10691611Y-14921793D02*
X10710658Y-14912269D01*
X10777325Y-14864650D02*
X10853515Y-14864650D01*
X10805896Y-14797984D02*
X10805896Y-14969412D01*
X10805896Y-14969412D02*
X10815420Y-14988460D01*
X10815420Y-14988460D02*
X10834468Y-14997984D01*
X10834468Y-14997984D02*
X10853515Y-14997984D01*
X10996373Y-14988460D02*
X10977325Y-14997984D01*
X10977325Y-14997984D02*
X10939230Y-14997984D01*
X10939230Y-14997984D02*
X10920182Y-14988460D01*
X10920182Y-14988460D02*
X10910658Y-14969412D01*
X10910658Y-14969412D02*
X10910658Y-14893222D01*
X10910658Y-14893222D02*
X10920182Y-14874174D01*
X10920182Y-14874174D02*
X10939230Y-14864650D01*
X10939230Y-14864650D02*
X10977325Y-14864650D01*
X10977325Y-14864650D02*
X10996373Y-14874174D01*
X10996373Y-14874174D02*
X11005896Y-14893222D01*
X11005896Y-14893222D02*
X11005896Y-14912269D01*
X11005896Y-14912269D02*
X10910658Y-14931317D01*
X11177325Y-14997984D02*
X11177325Y-14797984D01*
X11177325Y-14988460D02*
X11158277Y-14997984D01*
X11158277Y-14997984D02*
X11120182Y-14997984D01*
X11120182Y-14997984D02*
X11101135Y-14988460D01*
X11101135Y-14988460D02*
X11091611Y-14978936D01*
X11091611Y-14978936D02*
X11082087Y-14959888D01*
X11082087Y-14959888D02*
X11082087Y-14902746D01*
X11082087Y-14902746D02*
X11091611Y-14883698D01*
X11091611Y-14883698D02*
X11101135Y-14874174D01*
X11101135Y-14874174D02*
X11120182Y-14864650D01*
X11120182Y-14864650D02*
X11158277Y-14864650D01*
X11158277Y-14864650D02*
X11177325Y-14874174D01*
X11253515Y-15074174D02*
X11263039Y-15064650D01*
X11263039Y-15064650D02*
X11282087Y-15036079D01*
X11282087Y-15036079D02*
X11291611Y-15017031D01*
X11291611Y-15017031D02*
X11301134Y-14988460D01*
X11301134Y-14988460D02*
X11310658Y-14940841D01*
X11310658Y-14940841D02*
X11310658Y-14902746D01*
X11310658Y-14902746D02*
X11301134Y-14855127D01*
X11301134Y-14855127D02*
X11291611Y-14826555D01*
X11291611Y-14826555D02*
X11282087Y-14807508D01*
X11282087Y-14807508D02*
X11263039Y-14778936D01*
X11263039Y-14778936D02*
X11253515Y-14769412D01*
X4397500Y-15076500D02*
X4397500Y-15276500D01*
X4297500Y-15176500D02*
X4497500Y-15176500D01*
X4739229Y-15067984D02*
X4863039Y-15067984D01*
X4863039Y-15067984D02*
X4796372Y-15144174D01*
X4796372Y-15144174D02*
X4824944Y-15144174D01*
X4824944Y-15144174D02*
X4843991Y-15153698D01*
X4843991Y-15153698D02*
X4853515Y-15163222D01*
X4853515Y-15163222D02*
X4863039Y-15182269D01*
X4863039Y-15182269D02*
X4863039Y-15229888D01*
X4863039Y-15229888D02*
X4853515Y-15248936D01*
X4853515Y-15248936D02*
X4843991Y-15258460D01*
X4843991Y-15258460D02*
X4824944Y-15267984D01*
X4824944Y-15267984D02*
X4767801Y-15267984D01*
X4767801Y-15267984D02*
X4748753Y-15258460D01*
X4748753Y-15258460D02*
X4739229Y-15248936D01*
X4948753Y-15248936D02*
X4958277Y-15258460D01*
X4958277Y-15258460D02*
X4948753Y-15267984D01*
X4948753Y-15267984D02*
X4939229Y-15258460D01*
X4939229Y-15258460D02*
X4948753Y-15248936D01*
X4948753Y-15248936D02*
X4948753Y-15267984D01*
X5082086Y-15067984D02*
X5101134Y-15067984D01*
X5101134Y-15067984D02*
X5120182Y-15077508D01*
X5120182Y-15077508D02*
X5129705Y-15087031D01*
X5129705Y-15087031D02*
X5139229Y-15106079D01*
X5139229Y-15106079D02*
X5148753Y-15144174D01*
X5148753Y-15144174D02*
X5148753Y-15191793D01*
X5148753Y-15191793D02*
X5139229Y-15229888D01*
X5139229Y-15229888D02*
X5129705Y-15248936D01*
X5129705Y-15248936D02*
X5120182Y-15258460D01*
X5120182Y-15258460D02*
X5101134Y-15267984D01*
X5101134Y-15267984D02*
X5082086Y-15267984D01*
X5082086Y-15267984D02*
X5063039Y-15258460D01*
X5063039Y-15258460D02*
X5053515Y-15248936D01*
X5053515Y-15248936D02*
X5043991Y-15229888D01*
X5043991Y-15229888D02*
X5034467Y-15191793D01*
X5034467Y-15191793D02*
X5034467Y-15144174D01*
X5034467Y-15144174D02*
X5043991Y-15106079D01*
X5043991Y-15106079D02*
X5053515Y-15087031D01*
X5053515Y-15087031D02*
X5063039Y-15077508D01*
X5063039Y-15077508D02*
X5082086Y-15067984D01*
X5272563Y-15067984D02*
X5291610Y-15067984D01*
X5291610Y-15067984D02*
X5310658Y-15077508D01*
X5310658Y-15077508D02*
X5320182Y-15087031D01*
X5320182Y-15087031D02*
X5329705Y-15106079D01*
X5329705Y-15106079D02*
X5339229Y-15144174D01*
X5339229Y-15144174D02*
X5339229Y-15191793D01*
X5339229Y-15191793D02*
X5329705Y-15229888D01*
X5329705Y-15229888D02*
X5320182Y-15248936D01*
X5320182Y-15248936D02*
X5310658Y-15258460D01*
X5310658Y-15258460D02*
X5291610Y-15267984D01*
X5291610Y-15267984D02*
X5272563Y-15267984D01*
X5272563Y-15267984D02*
X5253515Y-15258460D01*
X5253515Y-15258460D02*
X5243991Y-15248936D01*
X5243991Y-15248936D02*
X5234467Y-15229888D01*
X5234467Y-15229888D02*
X5224944Y-15191793D01*
X5224944Y-15191793D02*
X5224944Y-15144174D01*
X5224944Y-15144174D02*
X5234467Y-15106079D01*
X5234467Y-15106079D02*
X5243991Y-15087031D01*
X5243991Y-15087031D02*
X5253515Y-15077508D01*
X5253515Y-15077508D02*
X5272563Y-15067984D01*
X5463039Y-15067984D02*
X5482086Y-15067984D01*
X5482086Y-15067984D02*
X5501134Y-15077508D01*
X5501134Y-15077508D02*
X5510658Y-15087031D01*
X5510658Y-15087031D02*
X5520182Y-15106079D01*
X5520182Y-15106079D02*
X5529705Y-15144174D01*
X5529705Y-15144174D02*
X5529705Y-15191793D01*
X5529705Y-15191793D02*
X5520182Y-15229888D01*
X5520182Y-15229888D02*
X5510658Y-15248936D01*
X5510658Y-15248936D02*
X5501134Y-15258460D01*
X5501134Y-15258460D02*
X5482086Y-15267984D01*
X5482086Y-15267984D02*
X5463039Y-15267984D01*
X5463039Y-15267984D02*
X5443991Y-15258460D01*
X5443991Y-15258460D02*
X5434467Y-15248936D01*
X5434467Y-15248936D02*
X5424944Y-15229888D01*
X5424944Y-15229888D02*
X5415420Y-15191793D01*
X5415420Y-15191793D02*
X5415420Y-15144174D01*
X5415420Y-15144174D02*
X5424944Y-15106079D01*
X5424944Y-15106079D02*
X5434467Y-15087031D01*
X5434467Y-15087031D02*
X5443991Y-15077508D01*
X5443991Y-15077508D02*
X5463039Y-15067984D01*
X5615420Y-15267984D02*
X5615420Y-15134650D01*
X5615420Y-15153698D02*
X5624943Y-15144174D01*
X5624943Y-15144174D02*
X5643991Y-15134650D01*
X5643991Y-15134650D02*
X5672563Y-15134650D01*
X5672563Y-15134650D02*
X5691610Y-15144174D01*
X5691610Y-15144174D02*
X5701134Y-15163222D01*
X5701134Y-15163222D02*
X5701134Y-15267984D01*
X5701134Y-15163222D02*
X5710658Y-15144174D01*
X5710658Y-15144174D02*
X5729705Y-15134650D01*
X5729705Y-15134650D02*
X5758277Y-15134650D01*
X5758277Y-15134650D02*
X5777324Y-15144174D01*
X5777324Y-15144174D02*
X5786848Y-15163222D01*
X5786848Y-15163222D02*
X5786848Y-15267984D01*
X5882086Y-15267984D02*
X5882086Y-15134650D01*
X5882086Y-15153698D02*
X5891610Y-15144174D01*
X5891610Y-15144174D02*
X5910658Y-15134650D01*
X5910658Y-15134650D02*
X5939229Y-15134650D01*
X5939229Y-15134650D02*
X5958277Y-15144174D01*
X5958277Y-15144174D02*
X5967801Y-15163222D01*
X5967801Y-15163222D02*
X5967801Y-15267984D01*
X5967801Y-15163222D02*
X5977324Y-15144174D01*
X5977324Y-15144174D02*
X5996372Y-15134650D01*
X5996372Y-15134650D02*
X6024943Y-15134650D01*
X6024943Y-15134650D02*
X6043991Y-15144174D01*
X6043991Y-15144174D02*
X6053515Y-15163222D01*
X6053515Y-15163222D02*
X6053515Y-15267984D01*
X6443991Y-15058460D02*
X6272563Y-15315603D01*
X6701134Y-15067984D02*
X6720182Y-15067984D01*
X6720182Y-15067984D02*
X6739229Y-15077508D01*
X6739229Y-15077508D02*
X6748753Y-15087031D01*
X6748753Y-15087031D02*
X6758277Y-15106079D01*
X6758277Y-15106079D02*
X6767801Y-15144174D01*
X6767801Y-15144174D02*
X6767801Y-15191793D01*
X6767801Y-15191793D02*
X6758277Y-15229888D01*
X6758277Y-15229888D02*
X6748753Y-15248936D01*
X6748753Y-15248936D02*
X6739229Y-15258460D01*
X6739229Y-15258460D02*
X6720182Y-15267984D01*
X6720182Y-15267984D02*
X6701134Y-15267984D01*
X6701134Y-15267984D02*
X6682086Y-15258460D01*
X6682086Y-15258460D02*
X6672563Y-15248936D01*
X6672563Y-15248936D02*
X6663039Y-15229888D01*
X6663039Y-15229888D02*
X6653515Y-15191793D01*
X6653515Y-15191793D02*
X6653515Y-15144174D01*
X6653515Y-15144174D02*
X6663039Y-15106079D01*
X6663039Y-15106079D02*
X6672563Y-15087031D01*
X6672563Y-15087031D02*
X6682086Y-15077508D01*
X6682086Y-15077508D02*
X6701134Y-15067984D01*
X6853515Y-15248936D02*
X6863039Y-15258460D01*
X6863039Y-15258460D02*
X6853515Y-15267984D01*
X6853515Y-15267984D02*
X6843991Y-15258460D01*
X6843991Y-15258460D02*
X6853515Y-15248936D01*
X6853515Y-15248936D02*
X6853515Y-15267984D01*
X7053515Y-15267984D02*
X6939229Y-15267984D01*
X6996372Y-15267984D02*
X6996372Y-15067984D01*
X6996372Y-15067984D02*
X6977325Y-15096555D01*
X6977325Y-15096555D02*
X6958277Y-15115603D01*
X6958277Y-15115603D02*
X6939229Y-15125127D01*
X7243991Y-15267984D02*
X7129706Y-15267984D01*
X7186848Y-15267984D02*
X7186848Y-15067984D01*
X7186848Y-15067984D02*
X7167801Y-15096555D01*
X7167801Y-15096555D02*
X7148753Y-15115603D01*
X7148753Y-15115603D02*
X7129706Y-15125127D01*
X7358277Y-15153698D02*
X7339229Y-15144174D01*
X7339229Y-15144174D02*
X7329706Y-15134650D01*
X7329706Y-15134650D02*
X7320182Y-15115603D01*
X7320182Y-15115603D02*
X7320182Y-15106079D01*
X7320182Y-15106079D02*
X7329706Y-15087031D01*
X7329706Y-15087031D02*
X7339229Y-15077508D01*
X7339229Y-15077508D02*
X7358277Y-15067984D01*
X7358277Y-15067984D02*
X7396372Y-15067984D01*
X7396372Y-15067984D02*
X7415420Y-15077508D01*
X7415420Y-15077508D02*
X7424944Y-15087031D01*
X7424944Y-15087031D02*
X7434467Y-15106079D01*
X7434467Y-15106079D02*
X7434467Y-15115603D01*
X7434467Y-15115603D02*
X7424944Y-15134650D01*
X7424944Y-15134650D02*
X7415420Y-15144174D01*
X7415420Y-15144174D02*
X7396372Y-15153698D01*
X7396372Y-15153698D02*
X7358277Y-15153698D01*
X7358277Y-15153698D02*
X7339229Y-15163222D01*
X7339229Y-15163222D02*
X7329706Y-15172746D01*
X7329706Y-15172746D02*
X7320182Y-15191793D01*
X7320182Y-15191793D02*
X7320182Y-15229888D01*
X7320182Y-15229888D02*
X7329706Y-15248936D01*
X7329706Y-15248936D02*
X7339229Y-15258460D01*
X7339229Y-15258460D02*
X7358277Y-15267984D01*
X7358277Y-15267984D02*
X7396372Y-15267984D01*
X7396372Y-15267984D02*
X7415420Y-15258460D01*
X7415420Y-15258460D02*
X7424944Y-15248936D01*
X7424944Y-15248936D02*
X7434467Y-15229888D01*
X7434467Y-15229888D02*
X7434467Y-15191793D01*
X7434467Y-15191793D02*
X7424944Y-15172746D01*
X7424944Y-15172746D02*
X7415420Y-15163222D01*
X7415420Y-15163222D02*
X7396372Y-15153698D01*
X7624944Y-15267984D02*
X7510658Y-15267984D01*
X7567801Y-15267984D02*
X7567801Y-15067984D01*
X7567801Y-15067984D02*
X7548753Y-15096555D01*
X7548753Y-15096555D02*
X7529706Y-15115603D01*
X7529706Y-15115603D02*
X7510658Y-15125127D01*
X7701134Y-15067984D02*
X7701134Y-15106079D01*
X7777325Y-15067984D02*
X7777325Y-15106079D01*
X8072563Y-15344174D02*
X8063039Y-15334650D01*
X8063039Y-15334650D02*
X8043991Y-15306079D01*
X8043991Y-15306079D02*
X8034468Y-15287031D01*
X8034468Y-15287031D02*
X8024944Y-15258460D01*
X8024944Y-15258460D02*
X8015420Y-15210841D01*
X8015420Y-15210841D02*
X8015420Y-15172746D01*
X8015420Y-15172746D02*
X8024944Y-15125127D01*
X8024944Y-15125127D02*
X8034468Y-15096555D01*
X8034468Y-15096555D02*
X8043991Y-15077508D01*
X8043991Y-15077508D02*
X8063039Y-15048936D01*
X8063039Y-15048936D02*
X8072563Y-15039412D01*
X8234468Y-15134650D02*
X8234468Y-15267984D01*
X8186848Y-15058460D02*
X8139229Y-15201317D01*
X8139229Y-15201317D02*
X8263039Y-15201317D01*
X8491611Y-15267984D02*
X8491611Y-15067984D01*
X8577325Y-15267984D02*
X8577325Y-15163222D01*
X8577325Y-15163222D02*
X8567801Y-15144174D01*
X8567801Y-15144174D02*
X8548753Y-15134650D01*
X8548753Y-15134650D02*
X8520182Y-15134650D01*
X8520182Y-15134650D02*
X8501134Y-15144174D01*
X8501134Y-15144174D02*
X8491611Y-15153698D01*
X8701134Y-15267984D02*
X8682087Y-15258460D01*
X8682087Y-15258460D02*
X8672563Y-15248936D01*
X8672563Y-15248936D02*
X8663039Y-15229888D01*
X8663039Y-15229888D02*
X8663039Y-15172746D01*
X8663039Y-15172746D02*
X8672563Y-15153698D01*
X8672563Y-15153698D02*
X8682087Y-15144174D01*
X8682087Y-15144174D02*
X8701134Y-15134650D01*
X8701134Y-15134650D02*
X8729706Y-15134650D01*
X8729706Y-15134650D02*
X8748753Y-15144174D01*
X8748753Y-15144174D02*
X8758277Y-15153698D01*
X8758277Y-15153698D02*
X8767801Y-15172746D01*
X8767801Y-15172746D02*
X8767801Y-15229888D01*
X8767801Y-15229888D02*
X8758277Y-15248936D01*
X8758277Y-15248936D02*
X8748753Y-15258460D01*
X8748753Y-15258460D02*
X8729706Y-15267984D01*
X8729706Y-15267984D02*
X8701134Y-15267984D01*
X8882087Y-15267984D02*
X8863039Y-15258460D01*
X8863039Y-15258460D02*
X8853515Y-15239412D01*
X8853515Y-15239412D02*
X8853515Y-15067984D01*
X9034468Y-15258460D02*
X9015420Y-15267984D01*
X9015420Y-15267984D02*
X8977325Y-15267984D01*
X8977325Y-15267984D02*
X8958277Y-15258460D01*
X8958277Y-15258460D02*
X8948753Y-15239412D01*
X8948753Y-15239412D02*
X8948753Y-15163222D01*
X8948753Y-15163222D02*
X8958277Y-15144174D01*
X8958277Y-15144174D02*
X8977325Y-15134650D01*
X8977325Y-15134650D02*
X9015420Y-15134650D01*
X9015420Y-15134650D02*
X9034468Y-15144174D01*
X9034468Y-15144174D02*
X9043992Y-15163222D01*
X9043992Y-15163222D02*
X9043992Y-15182269D01*
X9043992Y-15182269D02*
X8948753Y-15201317D01*
X9120182Y-15258460D02*
X9139230Y-15267984D01*
X9139230Y-15267984D02*
X9177325Y-15267984D01*
X9177325Y-15267984D02*
X9196373Y-15258460D01*
X9196373Y-15258460D02*
X9205896Y-15239412D01*
X9205896Y-15239412D02*
X9205896Y-15229888D01*
X9205896Y-15229888D02*
X9196373Y-15210841D01*
X9196373Y-15210841D02*
X9177325Y-15201317D01*
X9177325Y-15201317D02*
X9148753Y-15201317D01*
X9148753Y-15201317D02*
X9129706Y-15191793D01*
X9129706Y-15191793D02*
X9120182Y-15172746D01*
X9120182Y-15172746D02*
X9120182Y-15163222D01*
X9120182Y-15163222D02*
X9129706Y-15144174D01*
X9129706Y-15144174D02*
X9148753Y-15134650D01*
X9148753Y-15134650D02*
X9177325Y-15134650D01*
X9177325Y-15134650D02*
X9196373Y-15144174D01*
X9272563Y-15344174D02*
X9282087Y-15334650D01*
X9282087Y-15334650D02*
X9301134Y-15306079D01*
X9301134Y-15306079D02*
X9310658Y-15287031D01*
X9310658Y-15287031D02*
X9320182Y-15258460D01*
X9320182Y-15258460D02*
X9329706Y-15210841D01*
X9329706Y-15210841D02*
X9329706Y-15172746D01*
X9329706Y-15172746D02*
X9320182Y-15125127D01*
X9320182Y-15125127D02*
X9310658Y-15096555D01*
X9310658Y-15096555D02*
X9301134Y-15077508D01*
X9301134Y-15077508D02*
X9282087Y-15048936D01*
X9282087Y-15048936D02*
X9272563Y-15039412D01*
X9634468Y-15344174D02*
X9624944Y-15334650D01*
X9624944Y-15334650D02*
X9605896Y-15306079D01*
X9605896Y-15306079D02*
X9596373Y-15287031D01*
X9596373Y-15287031D02*
X9586849Y-15258460D01*
X9586849Y-15258460D02*
X9577325Y-15210841D01*
X9577325Y-15210841D02*
X9577325Y-15172746D01*
X9577325Y-15172746D02*
X9586849Y-15125127D01*
X9586849Y-15125127D02*
X9596373Y-15096555D01*
X9596373Y-15096555D02*
X9605896Y-15077508D01*
X9605896Y-15077508D02*
X9624944Y-15048936D01*
X9624944Y-15048936D02*
X9634468Y-15039412D01*
X9710658Y-15134650D02*
X9710658Y-15267984D01*
X9710658Y-15153698D02*
X9720182Y-15144174D01*
X9720182Y-15144174D02*
X9739230Y-15134650D01*
X9739230Y-15134650D02*
X9767801Y-15134650D01*
X9767801Y-15134650D02*
X9786849Y-15144174D01*
X9786849Y-15144174D02*
X9796373Y-15163222D01*
X9796373Y-15163222D02*
X9796373Y-15267984D01*
X9920182Y-15267984D02*
X9901134Y-15258460D01*
X9901134Y-15258460D02*
X9891611Y-15248936D01*
X9891611Y-15248936D02*
X9882087Y-15229888D01*
X9882087Y-15229888D02*
X9882087Y-15172746D01*
X9882087Y-15172746D02*
X9891611Y-15153698D01*
X9891611Y-15153698D02*
X9901134Y-15144174D01*
X9901134Y-15144174D02*
X9920182Y-15134650D01*
X9920182Y-15134650D02*
X9948754Y-15134650D01*
X9948754Y-15134650D02*
X9967801Y-15144174D01*
X9967801Y-15144174D02*
X9977325Y-15153698D01*
X9977325Y-15153698D02*
X9986849Y-15172746D01*
X9986849Y-15172746D02*
X9986849Y-15229888D01*
X9986849Y-15229888D02*
X9977325Y-15248936D01*
X9977325Y-15248936D02*
X9967801Y-15258460D01*
X9967801Y-15258460D02*
X9948754Y-15267984D01*
X9948754Y-15267984D02*
X9920182Y-15267984D01*
X10043992Y-15134650D02*
X10120182Y-15134650D01*
X10072563Y-15067984D02*
X10072563Y-15239412D01*
X10072563Y-15239412D02*
X10082087Y-15258460D01*
X10082087Y-15258460D02*
X10101134Y-15267984D01*
X10101134Y-15267984D02*
X10120182Y-15267984D01*
X10339230Y-15134650D02*
X10339230Y-15334650D01*
X10339230Y-15144174D02*
X10358277Y-15134650D01*
X10358277Y-15134650D02*
X10396373Y-15134650D01*
X10396373Y-15134650D02*
X10415420Y-15144174D01*
X10415420Y-15144174D02*
X10424944Y-15153698D01*
X10424944Y-15153698D02*
X10434468Y-15172746D01*
X10434468Y-15172746D02*
X10434468Y-15229888D01*
X10434468Y-15229888D02*
X10424944Y-15248936D01*
X10424944Y-15248936D02*
X10415420Y-15258460D01*
X10415420Y-15258460D02*
X10396373Y-15267984D01*
X10396373Y-15267984D02*
X10358277Y-15267984D01*
X10358277Y-15267984D02*
X10339230Y-15258460D01*
X10548754Y-15267984D02*
X10529706Y-15258460D01*
X10529706Y-15258460D02*
X10520182Y-15239412D01*
X10520182Y-15239412D02*
X10520182Y-15067984D01*
X10710658Y-15267984D02*
X10710658Y-15163222D01*
X10710658Y-15163222D02*
X10701135Y-15144174D01*
X10701135Y-15144174D02*
X10682087Y-15134650D01*
X10682087Y-15134650D02*
X10643992Y-15134650D01*
X10643992Y-15134650D02*
X10624944Y-15144174D01*
X10710658Y-15258460D02*
X10691611Y-15267984D01*
X10691611Y-15267984D02*
X10643992Y-15267984D01*
X10643992Y-15267984D02*
X10624944Y-15258460D01*
X10624944Y-15258460D02*
X10615420Y-15239412D01*
X10615420Y-15239412D02*
X10615420Y-15220365D01*
X10615420Y-15220365D02*
X10624944Y-15201317D01*
X10624944Y-15201317D02*
X10643992Y-15191793D01*
X10643992Y-15191793D02*
X10691611Y-15191793D01*
X10691611Y-15191793D02*
X10710658Y-15182269D01*
X10777325Y-15134650D02*
X10853515Y-15134650D01*
X10805896Y-15067984D02*
X10805896Y-15239412D01*
X10805896Y-15239412D02*
X10815420Y-15258460D01*
X10815420Y-15258460D02*
X10834468Y-15267984D01*
X10834468Y-15267984D02*
X10853515Y-15267984D01*
X10996373Y-15258460D02*
X10977325Y-15267984D01*
X10977325Y-15267984D02*
X10939230Y-15267984D01*
X10939230Y-15267984D02*
X10920182Y-15258460D01*
X10920182Y-15258460D02*
X10910658Y-15239412D01*
X10910658Y-15239412D02*
X10910658Y-15163222D01*
X10910658Y-15163222D02*
X10920182Y-15144174D01*
X10920182Y-15144174D02*
X10939230Y-15134650D01*
X10939230Y-15134650D02*
X10977325Y-15134650D01*
X10977325Y-15134650D02*
X10996373Y-15144174D01*
X10996373Y-15144174D02*
X11005896Y-15163222D01*
X11005896Y-15163222D02*
X11005896Y-15182269D01*
X11005896Y-15182269D02*
X10910658Y-15201317D01*
X11177325Y-15267984D02*
X11177325Y-15067984D01*
X11177325Y-15258460D02*
X11158277Y-15267984D01*
X11158277Y-15267984D02*
X11120182Y-15267984D01*
X11120182Y-15267984D02*
X11101135Y-15258460D01*
X11101135Y-15258460D02*
X11091611Y-15248936D01*
X11091611Y-15248936D02*
X11082087Y-15229888D01*
X11082087Y-15229888D02*
X11082087Y-15172746D01*
X11082087Y-15172746D02*
X11091611Y-15153698D01*
X11091611Y-15153698D02*
X11101135Y-15144174D01*
X11101135Y-15144174D02*
X11120182Y-15134650D01*
X11120182Y-15134650D02*
X11158277Y-15134650D01*
X11158277Y-15134650D02*
X11177325Y-15144174D01*
X11253515Y-15344174D02*
X11263039Y-15334650D01*
X11263039Y-15334650D02*
X11282087Y-15306079D01*
X11282087Y-15306079D02*
X11291611Y-15287031D01*
X11291611Y-15287031D02*
X11301134Y-15258460D01*
X11301134Y-15258460D02*
X11310658Y-15210841D01*
X11310658Y-15210841D02*
X11310658Y-15172746D01*
X11310658Y-15172746D02*
X11301134Y-15125127D01*
X11301134Y-15125127D02*
X11291611Y-15096555D01*
X11291611Y-15096555D02*
X11282087Y-15077508D01*
X11282087Y-15077508D02*
X11263039Y-15048936D01*
X11263039Y-15048936D02*
X11253515Y-15039412D01*
X4468211Y-15567211D02*
X4468211Y-15425789D01*
X4326789Y-15425789D01*
X4326789Y-15567211D01*
X4468211Y-15567211D01*
X4739229Y-15387984D02*
X4863039Y-15387984D01*
X4863039Y-15387984D02*
X4796372Y-15464174D01*
X4796372Y-15464174D02*
X4824944Y-15464174D01*
X4824944Y-15464174D02*
X4843991Y-15473698D01*
X4843991Y-15473698D02*
X4853515Y-15483222D01*
X4853515Y-15483222D02*
X4863039Y-15502269D01*
X4863039Y-15502269D02*
X4863039Y-15549888D01*
X4863039Y-15549888D02*
X4853515Y-15568936D01*
X4853515Y-15568936D02*
X4843991Y-15578460D01*
X4843991Y-15578460D02*
X4824944Y-15587984D01*
X4824944Y-15587984D02*
X4767801Y-15587984D01*
X4767801Y-15587984D02*
X4748753Y-15578460D01*
X4748753Y-15578460D02*
X4739229Y-15568936D01*
X4948753Y-15568936D02*
X4958277Y-15578460D01*
X4958277Y-15578460D02*
X4948753Y-15587984D01*
X4948753Y-15587984D02*
X4939229Y-15578460D01*
X4939229Y-15578460D02*
X4948753Y-15568936D01*
X4948753Y-15568936D02*
X4948753Y-15587984D01*
X5034467Y-15407031D02*
X5043991Y-15397508D01*
X5043991Y-15397508D02*
X5063039Y-15387984D01*
X5063039Y-15387984D02*
X5110658Y-15387984D01*
X5110658Y-15387984D02*
X5129705Y-15397508D01*
X5129705Y-15397508D02*
X5139229Y-15407031D01*
X5139229Y-15407031D02*
X5148753Y-15426079D01*
X5148753Y-15426079D02*
X5148753Y-15445127D01*
X5148753Y-15445127D02*
X5139229Y-15473698D01*
X5139229Y-15473698D02*
X5024944Y-15587984D01*
X5024944Y-15587984D02*
X5148753Y-15587984D01*
X5329705Y-15387984D02*
X5234467Y-15387984D01*
X5234467Y-15387984D02*
X5224944Y-15483222D01*
X5224944Y-15483222D02*
X5234467Y-15473698D01*
X5234467Y-15473698D02*
X5253515Y-15464174D01*
X5253515Y-15464174D02*
X5301134Y-15464174D01*
X5301134Y-15464174D02*
X5320182Y-15473698D01*
X5320182Y-15473698D02*
X5329705Y-15483222D01*
X5329705Y-15483222D02*
X5339229Y-15502269D01*
X5339229Y-15502269D02*
X5339229Y-15549888D01*
X5339229Y-15549888D02*
X5329705Y-15568936D01*
X5329705Y-15568936D02*
X5320182Y-15578460D01*
X5320182Y-15578460D02*
X5301134Y-15587984D01*
X5301134Y-15587984D02*
X5253515Y-15587984D01*
X5253515Y-15587984D02*
X5234467Y-15578460D01*
X5234467Y-15578460D02*
X5224944Y-15568936D01*
X5463039Y-15387984D02*
X5482086Y-15387984D01*
X5482086Y-15387984D02*
X5501134Y-15397508D01*
X5501134Y-15397508D02*
X5510658Y-15407031D01*
X5510658Y-15407031D02*
X5520182Y-15426079D01*
X5520182Y-15426079D02*
X5529705Y-15464174D01*
X5529705Y-15464174D02*
X5529705Y-15511793D01*
X5529705Y-15511793D02*
X5520182Y-15549888D01*
X5520182Y-15549888D02*
X5510658Y-15568936D01*
X5510658Y-15568936D02*
X5501134Y-15578460D01*
X5501134Y-15578460D02*
X5482086Y-15587984D01*
X5482086Y-15587984D02*
X5463039Y-15587984D01*
X5463039Y-15587984D02*
X5443991Y-15578460D01*
X5443991Y-15578460D02*
X5434467Y-15568936D01*
X5434467Y-15568936D02*
X5424944Y-15549888D01*
X5424944Y-15549888D02*
X5415420Y-15511793D01*
X5415420Y-15511793D02*
X5415420Y-15464174D01*
X5415420Y-15464174D02*
X5424944Y-15426079D01*
X5424944Y-15426079D02*
X5434467Y-15407031D01*
X5434467Y-15407031D02*
X5443991Y-15397508D01*
X5443991Y-15397508D02*
X5463039Y-15387984D01*
X5615420Y-15587984D02*
X5615420Y-15454650D01*
X5615420Y-15473698D02*
X5624943Y-15464174D01*
X5624943Y-15464174D02*
X5643991Y-15454650D01*
X5643991Y-15454650D02*
X5672563Y-15454650D01*
X5672563Y-15454650D02*
X5691610Y-15464174D01*
X5691610Y-15464174D02*
X5701134Y-15483222D01*
X5701134Y-15483222D02*
X5701134Y-15587984D01*
X5701134Y-15483222D02*
X5710658Y-15464174D01*
X5710658Y-15464174D02*
X5729705Y-15454650D01*
X5729705Y-15454650D02*
X5758277Y-15454650D01*
X5758277Y-15454650D02*
X5777324Y-15464174D01*
X5777324Y-15464174D02*
X5786848Y-15483222D01*
X5786848Y-15483222D02*
X5786848Y-15587984D01*
X5882086Y-15587984D02*
X5882086Y-15454650D01*
X5882086Y-15473698D02*
X5891610Y-15464174D01*
X5891610Y-15464174D02*
X5910658Y-15454650D01*
X5910658Y-15454650D02*
X5939229Y-15454650D01*
X5939229Y-15454650D02*
X5958277Y-15464174D01*
X5958277Y-15464174D02*
X5967801Y-15483222D01*
X5967801Y-15483222D02*
X5967801Y-15587984D01*
X5967801Y-15483222D02*
X5977324Y-15464174D01*
X5977324Y-15464174D02*
X5996372Y-15454650D01*
X5996372Y-15454650D02*
X6024943Y-15454650D01*
X6024943Y-15454650D02*
X6043991Y-15464174D01*
X6043991Y-15464174D02*
X6053515Y-15483222D01*
X6053515Y-15483222D02*
X6053515Y-15587984D01*
X6443991Y-15378460D02*
X6272563Y-15635603D01*
X6701134Y-15387984D02*
X6720182Y-15387984D01*
X6720182Y-15387984D02*
X6739229Y-15397508D01*
X6739229Y-15397508D02*
X6748753Y-15407031D01*
X6748753Y-15407031D02*
X6758277Y-15426079D01*
X6758277Y-15426079D02*
X6767801Y-15464174D01*
X6767801Y-15464174D02*
X6767801Y-15511793D01*
X6767801Y-15511793D02*
X6758277Y-15549888D01*
X6758277Y-15549888D02*
X6748753Y-15568936D01*
X6748753Y-15568936D02*
X6739229Y-15578460D01*
X6739229Y-15578460D02*
X6720182Y-15587984D01*
X6720182Y-15587984D02*
X6701134Y-15587984D01*
X6701134Y-15587984D02*
X6682086Y-15578460D01*
X6682086Y-15578460D02*
X6672563Y-15568936D01*
X6672563Y-15568936D02*
X6663039Y-15549888D01*
X6663039Y-15549888D02*
X6653515Y-15511793D01*
X6653515Y-15511793D02*
X6653515Y-15464174D01*
X6653515Y-15464174D02*
X6663039Y-15426079D01*
X6663039Y-15426079D02*
X6672563Y-15407031D01*
X6672563Y-15407031D02*
X6682086Y-15397508D01*
X6682086Y-15397508D02*
X6701134Y-15387984D01*
X6853515Y-15568936D02*
X6863039Y-15578460D01*
X6863039Y-15578460D02*
X6853515Y-15587984D01*
X6853515Y-15587984D02*
X6843991Y-15578460D01*
X6843991Y-15578460D02*
X6853515Y-15568936D01*
X6853515Y-15568936D02*
X6853515Y-15587984D01*
X7053515Y-15587984D02*
X6939229Y-15587984D01*
X6996372Y-15587984D02*
X6996372Y-15387984D01*
X6996372Y-15387984D02*
X6977325Y-15416555D01*
X6977325Y-15416555D02*
X6958277Y-15435603D01*
X6958277Y-15435603D02*
X6939229Y-15445127D01*
X7129706Y-15407031D02*
X7139229Y-15397508D01*
X7139229Y-15397508D02*
X7158277Y-15387984D01*
X7158277Y-15387984D02*
X7205896Y-15387984D01*
X7205896Y-15387984D02*
X7224944Y-15397508D01*
X7224944Y-15397508D02*
X7234467Y-15407031D01*
X7234467Y-15407031D02*
X7243991Y-15426079D01*
X7243991Y-15426079D02*
X7243991Y-15445127D01*
X7243991Y-15445127D02*
X7234467Y-15473698D01*
X7234467Y-15473698D02*
X7120182Y-15587984D01*
X7120182Y-15587984D02*
X7243991Y-15587984D01*
X7358277Y-15473698D02*
X7339229Y-15464174D01*
X7339229Y-15464174D02*
X7329706Y-15454650D01*
X7329706Y-15454650D02*
X7320182Y-15435603D01*
X7320182Y-15435603D02*
X7320182Y-15426079D01*
X7320182Y-15426079D02*
X7329706Y-15407031D01*
X7329706Y-15407031D02*
X7339229Y-15397508D01*
X7339229Y-15397508D02*
X7358277Y-15387984D01*
X7358277Y-15387984D02*
X7396372Y-15387984D01*
X7396372Y-15387984D02*
X7415420Y-15397508D01*
X7415420Y-15397508D02*
X7424944Y-15407031D01*
X7424944Y-15407031D02*
X7434467Y-15426079D01*
X7434467Y-15426079D02*
X7434467Y-15435603D01*
X7434467Y-15435603D02*
X7424944Y-15454650D01*
X7424944Y-15454650D02*
X7415420Y-15464174D01*
X7415420Y-15464174D02*
X7396372Y-15473698D01*
X7396372Y-15473698D02*
X7358277Y-15473698D01*
X7358277Y-15473698D02*
X7339229Y-15483222D01*
X7339229Y-15483222D02*
X7329706Y-15492746D01*
X7329706Y-15492746D02*
X7320182Y-15511793D01*
X7320182Y-15511793D02*
X7320182Y-15549888D01*
X7320182Y-15549888D02*
X7329706Y-15568936D01*
X7329706Y-15568936D02*
X7339229Y-15578460D01*
X7339229Y-15578460D02*
X7358277Y-15587984D01*
X7358277Y-15587984D02*
X7396372Y-15587984D01*
X7396372Y-15587984D02*
X7415420Y-15578460D01*
X7415420Y-15578460D02*
X7424944Y-15568936D01*
X7424944Y-15568936D02*
X7434467Y-15549888D01*
X7434467Y-15549888D02*
X7434467Y-15511793D01*
X7434467Y-15511793D02*
X7424944Y-15492746D01*
X7424944Y-15492746D02*
X7415420Y-15483222D01*
X7415420Y-15483222D02*
X7396372Y-15473698D01*
X7558277Y-15387984D02*
X7577325Y-15387984D01*
X7577325Y-15387984D02*
X7596372Y-15397508D01*
X7596372Y-15397508D02*
X7605896Y-15407031D01*
X7605896Y-15407031D02*
X7615420Y-15426079D01*
X7615420Y-15426079D02*
X7624944Y-15464174D01*
X7624944Y-15464174D02*
X7624944Y-15511793D01*
X7624944Y-15511793D02*
X7615420Y-15549888D01*
X7615420Y-15549888D02*
X7605896Y-15568936D01*
X7605896Y-15568936D02*
X7596372Y-15578460D01*
X7596372Y-15578460D02*
X7577325Y-15587984D01*
X7577325Y-15587984D02*
X7558277Y-15587984D01*
X7558277Y-15587984D02*
X7539229Y-15578460D01*
X7539229Y-15578460D02*
X7529706Y-15568936D01*
X7529706Y-15568936D02*
X7520182Y-15549888D01*
X7520182Y-15549888D02*
X7510658Y-15511793D01*
X7510658Y-15511793D02*
X7510658Y-15464174D01*
X7510658Y-15464174D02*
X7520182Y-15426079D01*
X7520182Y-15426079D02*
X7529706Y-15407031D01*
X7529706Y-15407031D02*
X7539229Y-15397508D01*
X7539229Y-15397508D02*
X7558277Y-15387984D01*
X7701134Y-15387984D02*
X7701134Y-15426079D01*
X7777325Y-15387984D02*
X7777325Y-15426079D01*
X8072563Y-15664174D02*
X8063039Y-15654650D01*
X8063039Y-15654650D02*
X8043991Y-15626079D01*
X8043991Y-15626079D02*
X8034468Y-15607031D01*
X8034468Y-15607031D02*
X8024944Y-15578460D01*
X8024944Y-15578460D02*
X8015420Y-15530841D01*
X8015420Y-15530841D02*
X8015420Y-15492746D01*
X8015420Y-15492746D02*
X8024944Y-15445127D01*
X8024944Y-15445127D02*
X8034468Y-15416555D01*
X8034468Y-15416555D02*
X8043991Y-15397508D01*
X8043991Y-15397508D02*
X8063039Y-15368936D01*
X8063039Y-15368936D02*
X8072563Y-15359412D01*
X8139229Y-15407031D02*
X8148753Y-15397508D01*
X8148753Y-15397508D02*
X8167801Y-15387984D01*
X8167801Y-15387984D02*
X8215420Y-15387984D01*
X8215420Y-15387984D02*
X8234468Y-15397508D01*
X8234468Y-15397508D02*
X8243991Y-15407031D01*
X8243991Y-15407031D02*
X8253515Y-15426079D01*
X8253515Y-15426079D02*
X8253515Y-15445127D01*
X8253515Y-15445127D02*
X8243991Y-15473698D01*
X8243991Y-15473698D02*
X8129706Y-15587984D01*
X8129706Y-15587984D02*
X8253515Y-15587984D01*
X8491611Y-15587984D02*
X8491611Y-15387984D01*
X8577325Y-15587984D02*
X8577325Y-15483222D01*
X8577325Y-15483222D02*
X8567801Y-15464174D01*
X8567801Y-15464174D02*
X8548753Y-15454650D01*
X8548753Y-15454650D02*
X8520182Y-15454650D01*
X8520182Y-15454650D02*
X8501134Y-15464174D01*
X8501134Y-15464174D02*
X8491611Y-15473698D01*
X8701134Y-15587984D02*
X8682087Y-15578460D01*
X8682087Y-15578460D02*
X8672563Y-15568936D01*
X8672563Y-15568936D02*
X8663039Y-15549888D01*
X8663039Y-15549888D02*
X8663039Y-15492746D01*
X8663039Y-15492746D02*
X8672563Y-15473698D01*
X8672563Y-15473698D02*
X8682087Y-15464174D01*
X8682087Y-15464174D02*
X8701134Y-15454650D01*
X8701134Y-15454650D02*
X8729706Y-15454650D01*
X8729706Y-15454650D02*
X8748753Y-15464174D01*
X8748753Y-15464174D02*
X8758277Y-15473698D01*
X8758277Y-15473698D02*
X8767801Y-15492746D01*
X8767801Y-15492746D02*
X8767801Y-15549888D01*
X8767801Y-15549888D02*
X8758277Y-15568936D01*
X8758277Y-15568936D02*
X8748753Y-15578460D01*
X8748753Y-15578460D02*
X8729706Y-15587984D01*
X8729706Y-15587984D02*
X8701134Y-15587984D01*
X8882087Y-15587984D02*
X8863039Y-15578460D01*
X8863039Y-15578460D02*
X8853515Y-15559412D01*
X8853515Y-15559412D02*
X8853515Y-15387984D01*
X9034468Y-15578460D02*
X9015420Y-15587984D01*
X9015420Y-15587984D02*
X8977325Y-15587984D01*
X8977325Y-15587984D02*
X8958277Y-15578460D01*
X8958277Y-15578460D02*
X8948753Y-15559412D01*
X8948753Y-15559412D02*
X8948753Y-15483222D01*
X8948753Y-15483222D02*
X8958277Y-15464174D01*
X8958277Y-15464174D02*
X8977325Y-15454650D01*
X8977325Y-15454650D02*
X9015420Y-15454650D01*
X9015420Y-15454650D02*
X9034468Y-15464174D01*
X9034468Y-15464174D02*
X9043992Y-15483222D01*
X9043992Y-15483222D02*
X9043992Y-15502269D01*
X9043992Y-15502269D02*
X8948753Y-15521317D01*
X9120182Y-15578460D02*
X9139230Y-15587984D01*
X9139230Y-15587984D02*
X9177325Y-15587984D01*
X9177325Y-15587984D02*
X9196373Y-15578460D01*
X9196373Y-15578460D02*
X9205896Y-15559412D01*
X9205896Y-15559412D02*
X9205896Y-15549888D01*
X9205896Y-15549888D02*
X9196373Y-15530841D01*
X9196373Y-15530841D02*
X9177325Y-15521317D01*
X9177325Y-15521317D02*
X9148753Y-15521317D01*
X9148753Y-15521317D02*
X9129706Y-15511793D01*
X9129706Y-15511793D02*
X9120182Y-15492746D01*
X9120182Y-15492746D02*
X9120182Y-15483222D01*
X9120182Y-15483222D02*
X9129706Y-15464174D01*
X9129706Y-15464174D02*
X9148753Y-15454650D01*
X9148753Y-15454650D02*
X9177325Y-15454650D01*
X9177325Y-15454650D02*
X9196373Y-15464174D01*
X9272563Y-15664174D02*
X9282087Y-15654650D01*
X9282087Y-15654650D02*
X9301134Y-15626079D01*
X9301134Y-15626079D02*
X9310658Y-15607031D01*
X9310658Y-15607031D02*
X9320182Y-15578460D01*
X9320182Y-15578460D02*
X9329706Y-15530841D01*
X9329706Y-15530841D02*
X9329706Y-15492746D01*
X9329706Y-15492746D02*
X9320182Y-15445127D01*
X9320182Y-15445127D02*
X9310658Y-15416555D01*
X9310658Y-15416555D02*
X9301134Y-15397508D01*
X9301134Y-15397508D02*
X9282087Y-15368936D01*
X9282087Y-15368936D02*
X9272563Y-15359412D01*
X9634468Y-15664174D02*
X9624944Y-15654650D01*
X9624944Y-15654650D02*
X9605896Y-15626079D01*
X9605896Y-15626079D02*
X9596373Y-15607031D01*
X9596373Y-15607031D02*
X9586849Y-15578460D01*
X9586849Y-15578460D02*
X9577325Y-15530841D01*
X9577325Y-15530841D02*
X9577325Y-15492746D01*
X9577325Y-15492746D02*
X9586849Y-15445127D01*
X9586849Y-15445127D02*
X9596373Y-15416555D01*
X9596373Y-15416555D02*
X9605896Y-15397508D01*
X9605896Y-15397508D02*
X9624944Y-15368936D01*
X9624944Y-15368936D02*
X9634468Y-15359412D01*
X9710658Y-15454650D02*
X9710658Y-15587984D01*
X9710658Y-15473698D02*
X9720182Y-15464174D01*
X9720182Y-15464174D02*
X9739230Y-15454650D01*
X9739230Y-15454650D02*
X9767801Y-15454650D01*
X9767801Y-15454650D02*
X9786849Y-15464174D01*
X9786849Y-15464174D02*
X9796373Y-15483222D01*
X9796373Y-15483222D02*
X9796373Y-15587984D01*
X9920182Y-15587984D02*
X9901134Y-15578460D01*
X9901134Y-15578460D02*
X9891611Y-15568936D01*
X9891611Y-15568936D02*
X9882087Y-15549888D01*
X9882087Y-15549888D02*
X9882087Y-15492746D01*
X9882087Y-15492746D02*
X9891611Y-15473698D01*
X9891611Y-15473698D02*
X9901134Y-15464174D01*
X9901134Y-15464174D02*
X9920182Y-15454650D01*
X9920182Y-15454650D02*
X9948754Y-15454650D01*
X9948754Y-15454650D02*
X9967801Y-15464174D01*
X9967801Y-15464174D02*
X9977325Y-15473698D01*
X9977325Y-15473698D02*
X9986849Y-15492746D01*
X9986849Y-15492746D02*
X9986849Y-15549888D01*
X9986849Y-15549888D02*
X9977325Y-15568936D01*
X9977325Y-15568936D02*
X9967801Y-15578460D01*
X9967801Y-15578460D02*
X9948754Y-15587984D01*
X9948754Y-15587984D02*
X9920182Y-15587984D01*
X10043992Y-15454650D02*
X10120182Y-15454650D01*
X10072563Y-15387984D02*
X10072563Y-15559412D01*
X10072563Y-15559412D02*
X10082087Y-15578460D01*
X10082087Y-15578460D02*
X10101134Y-15587984D01*
X10101134Y-15587984D02*
X10120182Y-15587984D01*
X10339230Y-15454650D02*
X10339230Y-15654650D01*
X10339230Y-15464174D02*
X10358277Y-15454650D01*
X10358277Y-15454650D02*
X10396373Y-15454650D01*
X10396373Y-15454650D02*
X10415420Y-15464174D01*
X10415420Y-15464174D02*
X10424944Y-15473698D01*
X10424944Y-15473698D02*
X10434468Y-15492746D01*
X10434468Y-15492746D02*
X10434468Y-15549888D01*
X10434468Y-15549888D02*
X10424944Y-15568936D01*
X10424944Y-15568936D02*
X10415420Y-15578460D01*
X10415420Y-15578460D02*
X10396373Y-15587984D01*
X10396373Y-15587984D02*
X10358277Y-15587984D01*
X10358277Y-15587984D02*
X10339230Y-15578460D01*
X10548754Y-15587984D02*
X10529706Y-15578460D01*
X10529706Y-15578460D02*
X10520182Y-15559412D01*
X10520182Y-15559412D02*
X10520182Y-15387984D01*
X10710658Y-15587984D02*
X10710658Y-15483222D01*
X10710658Y-15483222D02*
X10701135Y-15464174D01*
X10701135Y-15464174D02*
X10682087Y-15454650D01*
X10682087Y-15454650D02*
X10643992Y-15454650D01*
X10643992Y-15454650D02*
X10624944Y-15464174D01*
X10710658Y-15578460D02*
X10691611Y-15587984D01*
X10691611Y-15587984D02*
X10643992Y-15587984D01*
X10643992Y-15587984D02*
X10624944Y-15578460D01*
X10624944Y-15578460D02*
X10615420Y-15559412D01*
X10615420Y-15559412D02*
X10615420Y-15540365D01*
X10615420Y-15540365D02*
X10624944Y-15521317D01*
X10624944Y-15521317D02*
X10643992Y-15511793D01*
X10643992Y-15511793D02*
X10691611Y-15511793D01*
X10691611Y-15511793D02*
X10710658Y-15502269D01*
X10777325Y-15454650D02*
X10853515Y-15454650D01*
X10805896Y-15387984D02*
X10805896Y-15559412D01*
X10805896Y-15559412D02*
X10815420Y-15578460D01*
X10815420Y-15578460D02*
X10834468Y-15587984D01*
X10834468Y-15587984D02*
X10853515Y-15587984D01*
X10996373Y-15578460D02*
X10977325Y-15587984D01*
X10977325Y-15587984D02*
X10939230Y-15587984D01*
X10939230Y-15587984D02*
X10920182Y-15578460D01*
X10920182Y-15578460D02*
X10910658Y-15559412D01*
X10910658Y-15559412D02*
X10910658Y-15483222D01*
X10910658Y-15483222D02*
X10920182Y-15464174D01*
X10920182Y-15464174D02*
X10939230Y-15454650D01*
X10939230Y-15454650D02*
X10977325Y-15454650D01*
X10977325Y-15454650D02*
X10996373Y-15464174D01*
X10996373Y-15464174D02*
X11005896Y-15483222D01*
X11005896Y-15483222D02*
X11005896Y-15502269D01*
X11005896Y-15502269D02*
X10910658Y-15521317D01*
X11177325Y-15587984D02*
X11177325Y-15387984D01*
X11177325Y-15578460D02*
X11158277Y-15587984D01*
X11158277Y-15587984D02*
X11120182Y-15587984D01*
X11120182Y-15587984D02*
X11101135Y-15578460D01*
X11101135Y-15578460D02*
X11091611Y-15568936D01*
X11091611Y-15568936D02*
X11082087Y-15549888D01*
X11082087Y-15549888D02*
X11082087Y-15492746D01*
X11082087Y-15492746D02*
X11091611Y-15473698D01*
X11091611Y-15473698D02*
X11101135Y-15464174D01*
X11101135Y-15464174D02*
X11120182Y-15454650D01*
X11120182Y-15454650D02*
X11158277Y-15454650D01*
X11158277Y-15454650D02*
X11177325Y-15464174D01*
X11253515Y-15664174D02*
X11263039Y-15654650D01*
X11263039Y-15654650D02*
X11282087Y-15626079D01*
X11282087Y-15626079D02*
X11291611Y-15607031D01*
X11291611Y-15607031D02*
X11301134Y-15578460D01*
X11301134Y-15578460D02*
X11310658Y-15530841D01*
X11310658Y-15530841D02*
X11310658Y-15492746D01*
X11310658Y-15492746D02*
X11301134Y-15445127D01*
X11301134Y-15445127D02*
X11291611Y-15416555D01*
X11291611Y-15416555D02*
X11282087Y-15397508D01*
X11282087Y-15397508D02*
X11263039Y-15368936D01*
X11263039Y-15368936D02*
X11253515Y-15359412D01*
M02*
